G04 #@! TF.GenerationSoftware,KiCad,Pcbnew,(5.1.6)-1*
G04 #@! TF.CreationDate,2020-06-08T17:18:55+12:00*
G04 #@! TF.ProjectId,discipad-pcb,64697363-6970-4616-942d-7063622e6b69,rev?*
G04 #@! TF.SameCoordinates,Original*
G04 #@! TF.FileFunction,Legend,Bot*
G04 #@! TF.FilePolarity,Positive*
%FSLAX46Y46*%
G04 Gerber Fmt 4.6, Leading zero omitted, Abs format (unit mm)*
G04 Created by KiCad (PCBNEW (5.1.6)-1) date 2020-06-08 17:18:55*
%MOMM*%
%LPD*%
G01*
G04 APERTURE LIST*
%ADD10C,0.150000*%
%ADD11C,0.120000*%
%ADD12C,0.200000*%
G04 APERTURE END LIST*
D10*
X3862493Y-61774493D02*
X3862493Y-62155493D01*
X15292493Y-59234493D02*
X15292493Y-60250493D01*
X15292493Y-60250493D02*
X10212493Y-60250493D01*
X7748331Y-62155493D02*
X6021493Y-62155493D01*
X4243493Y-62155493D02*
X3862493Y-62155493D01*
X3862493Y-58345493D02*
X3862493Y-58726493D01*
X6402493Y-55805493D02*
X15292493Y-55805493D01*
X15292493Y-55805493D02*
X15292493Y-56186493D01*
X7748331Y-62174453D02*
G75*
G02*
X10212493Y-60250493I2464162J-616040D01*
G01*
X3862493Y-58345493D02*
G75*
G02*
X6402493Y-55805493I2540000J0D01*
G01*
X69902493Y-83364493D02*
X69902493Y-83745493D01*
X81332493Y-80824493D02*
X81332493Y-81840493D01*
X81332493Y-81840493D02*
X76252493Y-81840493D01*
X73788331Y-83745493D02*
X72061493Y-83745493D01*
X70283493Y-83745493D02*
X69902493Y-83745493D01*
X69902493Y-79935493D02*
X69902493Y-80316493D01*
X72442493Y-77395493D02*
X81332493Y-77395493D01*
X81332493Y-77395493D02*
X81332493Y-77776493D01*
X73788331Y-83764453D02*
G75*
G02*
X76252493Y-81840493I2464162J-616040D01*
G01*
X69902493Y-79935493D02*
G75*
G02*
X72442493Y-77395493I2540000J0D01*
G01*
X77304493Y-110589493D02*
X76923493Y-110589493D01*
X79844493Y-122019493D02*
X78828493Y-122019493D01*
X78828493Y-122019493D02*
X78828493Y-116939493D01*
X76923493Y-114475331D02*
X76923493Y-112748493D01*
X76923493Y-110970493D02*
X76923493Y-110589493D01*
X80733493Y-110589493D02*
X80352493Y-110589493D01*
X83273493Y-113129493D02*
X83273493Y-122019493D01*
X83273493Y-122019493D02*
X82892493Y-122019493D01*
X76904533Y-114475331D02*
G75*
G02*
X78828493Y-116939493I-616040J-2464162D01*
G01*
X80733493Y-110589493D02*
G75*
G02*
X83273493Y-113129493I0J-2540000D01*
G01*
X77268493Y-153722493D02*
X76887493Y-153722493D01*
X79808493Y-165152493D02*
X78792493Y-165152493D01*
X78792493Y-165152493D02*
X78792493Y-160072493D01*
X76887493Y-157608331D02*
X76887493Y-155881493D01*
X76887493Y-154103493D02*
X76887493Y-153722493D01*
X80697493Y-153722493D02*
X80316493Y-153722493D01*
X83237493Y-156262493D02*
X83237493Y-165152493D01*
X83237493Y-165152493D02*
X82856493Y-165152493D01*
X76868533Y-157608331D02*
G75*
G02*
X78792493Y-160072493I-616040J-2464162D01*
G01*
X80697493Y-153722493D02*
G75*
G02*
X83237493Y-156262493I0J-2540000D01*
G01*
X47296493Y-168708493D02*
X47296493Y-169089493D01*
X58726493Y-166168493D02*
X58726493Y-167184493D01*
X58726493Y-167184493D02*
X53646493Y-167184493D01*
X51182331Y-169089493D02*
X49455493Y-169089493D01*
X47677493Y-169089493D02*
X47296493Y-169089493D01*
X47296493Y-165279493D02*
X47296493Y-165660493D01*
X49836493Y-162739493D02*
X58726493Y-162739493D01*
X58726493Y-162739493D02*
X58726493Y-163120493D01*
X51182331Y-169108453D02*
G75*
G02*
X53646493Y-167184493I2464162J-616040D01*
G01*
X47296493Y-165279493D02*
G75*
G02*
X49836493Y-162739493I2540000J0D01*
G01*
X47296493Y-126036493D02*
X47296493Y-126417493D01*
X58726493Y-123496493D02*
X58726493Y-124512493D01*
X58726493Y-124512493D02*
X53646493Y-124512493D01*
X51182331Y-126417493D02*
X49455493Y-126417493D01*
X47677493Y-126417493D02*
X47296493Y-126417493D01*
X47296493Y-122607493D02*
X47296493Y-122988493D01*
X49836493Y-120067493D02*
X58726493Y-120067493D01*
X58726493Y-120067493D02*
X58726493Y-120448493D01*
X51182331Y-126436453D02*
G75*
G02*
X53646493Y-124512493I2464162J-616040D01*
G01*
X47296493Y-122607493D02*
G75*
G02*
X49836493Y-120067493I2540000J0D01*
G01*
X47296493Y-104700493D02*
X47296493Y-105081493D01*
X58726493Y-102160493D02*
X58726493Y-103176493D01*
X58726493Y-103176493D02*
X53646493Y-103176493D01*
X51182331Y-105081493D02*
X49455493Y-105081493D01*
X47677493Y-105081493D02*
X47296493Y-105081493D01*
X47296493Y-101271493D02*
X47296493Y-101652493D01*
X49836493Y-98731493D02*
X58726493Y-98731493D01*
X58726493Y-98731493D02*
X58726493Y-99112493D01*
X51182331Y-105100453D02*
G75*
G02*
X53646493Y-103176493I2464162J-616040D01*
G01*
X47296493Y-101271493D02*
G75*
G02*
X49836493Y-98731493I2540000J0D01*
G01*
X47296493Y-83110493D02*
X47296493Y-83491493D01*
X58726493Y-80570493D02*
X58726493Y-81586493D01*
X58726493Y-81586493D02*
X53646493Y-81586493D01*
X51182331Y-83491493D02*
X49455493Y-83491493D01*
X47677493Y-83491493D02*
X47296493Y-83491493D01*
X47296493Y-79681493D02*
X47296493Y-80062493D01*
X49836493Y-77141493D02*
X58726493Y-77141493D01*
X58726493Y-77141493D02*
X58726493Y-77522493D01*
X51182331Y-83510453D02*
G75*
G02*
X53646493Y-81586493I2464162J-616040D01*
G01*
X47296493Y-79681493D02*
G75*
G02*
X49836493Y-77141493I2540000J0D01*
G01*
X47296493Y-61520493D02*
X47296493Y-61901493D01*
X58726493Y-58980493D02*
X58726493Y-59996493D01*
X58726493Y-59996493D02*
X53646493Y-59996493D01*
X51182331Y-61901493D02*
X49455493Y-61901493D01*
X47677493Y-61901493D02*
X47296493Y-61901493D01*
X47296493Y-58091493D02*
X47296493Y-58472493D01*
X49836493Y-55551493D02*
X58726493Y-55551493D01*
X58726493Y-55551493D02*
X58726493Y-55932493D01*
X51182331Y-61920453D02*
G75*
G02*
X53646493Y-59996493I2464162J-616040D01*
G01*
X47296493Y-58091493D02*
G75*
G02*
X49836493Y-55551493I2540000J0D01*
G01*
X25706493Y-147372493D02*
X25706493Y-147753493D01*
X37136493Y-144832493D02*
X37136493Y-145848493D01*
X37136493Y-145848493D02*
X32056493Y-145848493D01*
X29592331Y-147753493D02*
X27865493Y-147753493D01*
X26087493Y-147753493D02*
X25706493Y-147753493D01*
X25706493Y-143943493D02*
X25706493Y-144324493D01*
X28246493Y-141403493D02*
X37136493Y-141403493D01*
X37136493Y-141403493D02*
X37136493Y-141784493D01*
X29592331Y-147772453D02*
G75*
G02*
X32056493Y-145848493I2464162J-616040D01*
G01*
X25706493Y-143943493D02*
G75*
G02*
X28246493Y-141403493I2540000J0D01*
G01*
X25452493Y-125782493D02*
X25452493Y-126163493D01*
X36882493Y-123242493D02*
X36882493Y-124258493D01*
X36882493Y-124258493D02*
X31802493Y-124258493D01*
X29338331Y-126163493D02*
X27611493Y-126163493D01*
X25833493Y-126163493D02*
X25452493Y-126163493D01*
X25452493Y-122353493D02*
X25452493Y-122734493D01*
X27992493Y-119813493D02*
X36882493Y-119813493D01*
X36882493Y-119813493D02*
X36882493Y-120194493D01*
X29338331Y-126182453D02*
G75*
G02*
X31802493Y-124258493I2464162J-616040D01*
G01*
X25452493Y-122353493D02*
G75*
G02*
X27992493Y-119813493I2540000J0D01*
G01*
X25452493Y-104700493D02*
X25452493Y-105081493D01*
X36882493Y-102160493D02*
X36882493Y-103176493D01*
X36882493Y-103176493D02*
X31802493Y-103176493D01*
X29338331Y-105081493D02*
X27611493Y-105081493D01*
X25833493Y-105081493D02*
X25452493Y-105081493D01*
X25452493Y-101271493D02*
X25452493Y-101652493D01*
X27992493Y-98731493D02*
X36882493Y-98731493D01*
X36882493Y-98731493D02*
X36882493Y-99112493D01*
X29338331Y-105100453D02*
G75*
G02*
X31802493Y-103176493I2464162J-616040D01*
G01*
X25452493Y-101271493D02*
G75*
G02*
X27992493Y-98731493I2540000J0D01*
G01*
X25452493Y-83110493D02*
X25452493Y-83491493D01*
X36882493Y-80570493D02*
X36882493Y-81586493D01*
X36882493Y-81586493D02*
X31802493Y-81586493D01*
X29338331Y-83491493D02*
X27611493Y-83491493D01*
X25833493Y-83491493D02*
X25452493Y-83491493D01*
X25452493Y-79681493D02*
X25452493Y-80062493D01*
X27992493Y-77141493D02*
X36882493Y-77141493D01*
X36882493Y-77141493D02*
X36882493Y-77522493D01*
X29338331Y-83510453D02*
G75*
G02*
X31802493Y-81586493I2464162J-616040D01*
G01*
X25452493Y-79681493D02*
G75*
G02*
X27992493Y-77141493I2540000J0D01*
G01*
X3862493Y-147118493D02*
X3862493Y-147499493D01*
X15292493Y-144578493D02*
X15292493Y-145594493D01*
X15292493Y-145594493D02*
X10212493Y-145594493D01*
X7748331Y-147499493D02*
X6021493Y-147499493D01*
X4243493Y-147499493D02*
X3862493Y-147499493D01*
X3862493Y-143689493D02*
X3862493Y-144070493D01*
X6402493Y-141149493D02*
X15292493Y-141149493D01*
X15292493Y-141149493D02*
X15292493Y-141530493D01*
X7748331Y-147518453D02*
G75*
G02*
X10212493Y-145594493I2464162J-616040D01*
G01*
X3862493Y-143689493D02*
G75*
G02*
X6402493Y-141149493I2540000J0D01*
G01*
X13514493Y-168454493D02*
X13514493Y-168835493D01*
X24944493Y-165914493D02*
X24944493Y-166930493D01*
X24944493Y-166930493D02*
X19864493Y-166930493D01*
X17400331Y-168835493D02*
X15673493Y-168835493D01*
X13895493Y-168835493D02*
X13514493Y-168835493D01*
X13514493Y-165025493D02*
X13514493Y-165406493D01*
X16054493Y-162485493D02*
X24944493Y-162485493D01*
X24944493Y-162485493D02*
X24944493Y-162866493D01*
X17400331Y-168854453D02*
G75*
G02*
X19864493Y-166930493I2464162J-616040D01*
G01*
X13514493Y-165025493D02*
G75*
G02*
X16054493Y-162485493I2540000J0D01*
G01*
X47296493Y-147118493D02*
X47296493Y-147499493D01*
X58726493Y-144578493D02*
X58726493Y-145594493D01*
X58726493Y-145594493D02*
X53646493Y-145594493D01*
X51182331Y-147499493D02*
X49455493Y-147499493D01*
X47677493Y-147499493D02*
X47296493Y-147499493D01*
X47296493Y-143689493D02*
X47296493Y-144070493D01*
X49836493Y-141149493D02*
X58726493Y-141149493D01*
X58726493Y-141149493D02*
X58726493Y-141530493D01*
X51182331Y-147518453D02*
G75*
G02*
X53646493Y-145594493I2464162J-616040D01*
G01*
X47296493Y-143689493D02*
G75*
G02*
X49836493Y-141149493I2540000J0D01*
G01*
X3862493Y-125782493D02*
X3862493Y-126163493D01*
X15292493Y-123242493D02*
X15292493Y-124258493D01*
X15292493Y-124258493D02*
X10212493Y-124258493D01*
X7748331Y-126163493D02*
X6021493Y-126163493D01*
X4243493Y-126163493D02*
X3862493Y-126163493D01*
X3862493Y-122353493D02*
X3862493Y-122734493D01*
X6402493Y-119813493D02*
X15292493Y-119813493D01*
X15292493Y-119813493D02*
X15292493Y-120194493D01*
X7748331Y-126182453D02*
G75*
G02*
X10212493Y-124258493I2464162J-616040D01*
G01*
X3862493Y-122353493D02*
G75*
G02*
X6402493Y-119813493I2540000J0D01*
G01*
X3862493Y-104446493D02*
X3862493Y-104827493D01*
X15292493Y-101906493D02*
X15292493Y-102922493D01*
X15292493Y-102922493D02*
X10212493Y-102922493D01*
X7748331Y-104827493D02*
X6021493Y-104827493D01*
X4243493Y-104827493D02*
X3862493Y-104827493D01*
X3862493Y-101017493D02*
X3862493Y-101398493D01*
X6402493Y-98477493D02*
X15292493Y-98477493D01*
X15292493Y-98477493D02*
X15292493Y-98858493D01*
X7748331Y-104846453D02*
G75*
G02*
X10212493Y-102922493I2464162J-616040D01*
G01*
X3862493Y-101017493D02*
G75*
G02*
X6402493Y-98477493I2540000J0D01*
G01*
X3862493Y-83110493D02*
X3862493Y-83491493D01*
X15292493Y-80570493D02*
X15292493Y-81586493D01*
X15292493Y-81586493D02*
X10212493Y-81586493D01*
X7748331Y-83491493D02*
X6021493Y-83491493D01*
X4243493Y-83491493D02*
X3862493Y-83491493D01*
X3862493Y-79681493D02*
X3862493Y-80062493D01*
X6402493Y-77141493D02*
X15292493Y-77141493D01*
X15292493Y-77141493D02*
X15292493Y-77522493D01*
X7748331Y-83510453D02*
G75*
G02*
X10212493Y-81586493I2464162J-616040D01*
G01*
X3862493Y-79681493D02*
G75*
G02*
X6402493Y-77141493I2540000J0D01*
G01*
X25452493Y-61520493D02*
X25452493Y-61901493D01*
X36882493Y-58980493D02*
X36882493Y-59996493D01*
X36882493Y-59996493D02*
X31802493Y-59996493D01*
X29338331Y-61901493D02*
X27611493Y-61901493D01*
X25833493Y-61901493D02*
X25452493Y-61901493D01*
X25452493Y-58091493D02*
X25452493Y-58472493D01*
X27992493Y-55551493D02*
X36882493Y-55551493D01*
X36882493Y-55551493D02*
X36882493Y-55932493D01*
X29338331Y-61920453D02*
G75*
G02*
X31802493Y-59996493I2464162J-616040D01*
G01*
X25452493Y-58091493D02*
G75*
G02*
X27992493Y-55551493I2540000J0D01*
G01*
X69902493Y-61774493D02*
X69902493Y-62155493D01*
X81332493Y-59234493D02*
X81332493Y-60250493D01*
X81332493Y-60250493D02*
X76252493Y-60250493D01*
X73788331Y-62155493D02*
X72061493Y-62155493D01*
X70283493Y-62155493D02*
X69902493Y-62155493D01*
X69902493Y-58345493D02*
X69902493Y-58726493D01*
X72442493Y-55805493D02*
X81332493Y-55805493D01*
X81332493Y-55805493D02*
X81332493Y-56186493D01*
X73788331Y-62174453D02*
G75*
G02*
X76252493Y-60250493I2464162J-616040D01*
G01*
X69902493Y-58345493D02*
G75*
G02*
X72442493Y-55805493I2540000J0D01*
G01*
D11*
X4530493Y-97544493D02*
X11830493Y-97544493D01*
X4530493Y-92044493D02*
X11830493Y-92044493D01*
X11830493Y-92044493D02*
X11830493Y-93194493D01*
X4784493Y-48268493D02*
X12084493Y-48268493D01*
X4784493Y-42768493D02*
X12084493Y-42768493D01*
X12084493Y-42768493D02*
X12084493Y-43918493D01*
X3768493Y-140216493D02*
X11068493Y-140216493D01*
X3768493Y-134716493D02*
X11068493Y-134716493D01*
X11068493Y-134716493D02*
X11068493Y-135866493D01*
X3768493Y-24646493D02*
X11068493Y-24646493D01*
X3768493Y-19146493D02*
X11068493Y-19146493D01*
X11068493Y-19146493D02*
X11068493Y-20296493D01*
X72094493Y-48776493D02*
X79394493Y-48776493D01*
X72094493Y-43276493D02*
X79394493Y-43276493D01*
X79394493Y-43276493D02*
X79394493Y-44426493D01*
X32724493Y-171204493D02*
X40024493Y-171204493D01*
X32724493Y-165704493D02*
X40024493Y-165704493D01*
X40024493Y-165704493D02*
X40024493Y-166854493D01*
X71586493Y-99830493D02*
X78886493Y-99830493D01*
X71586493Y-94330493D02*
X78886493Y-94330493D01*
X78886493Y-94330493D02*
X78886493Y-95480493D01*
X75142493Y-141232493D02*
X82442493Y-141232493D01*
X75142493Y-135732493D02*
X82442493Y-135732493D01*
X82442493Y-135732493D02*
X82442493Y-136882493D01*
D12*
X79306493Y-65654493D02*
X73506493Y-65654493D01*
X79306493Y-68054493D02*
X79306493Y-65654493D01*
X73506493Y-68054493D02*
X79306493Y-68054493D01*
X73581493Y-68054493D02*
X73581493Y-65654493D01*
X73706493Y-68054493D02*
X73706493Y-65654493D01*
X73481493Y-65654493D02*
X73481493Y-68054493D01*
X73881493Y-68054493D02*
X73881493Y-65654493D01*
X74056493Y-68054493D02*
X74056493Y-65654493D01*
X74231493Y-68054493D02*
X74231493Y-65654493D01*
X56446493Y-65654493D02*
X50646493Y-65654493D01*
X56446493Y-68054493D02*
X56446493Y-65654493D01*
X50646493Y-68054493D02*
X56446493Y-68054493D01*
X50721493Y-68054493D02*
X50721493Y-65654493D01*
X50846493Y-68054493D02*
X50846493Y-65654493D01*
X50621493Y-65654493D02*
X50621493Y-68054493D01*
X51021493Y-68054493D02*
X51021493Y-65654493D01*
X51196493Y-68054493D02*
X51196493Y-65654493D01*
X51371493Y-68054493D02*
X51371493Y-65654493D01*
X34856493Y-65654493D02*
X29056493Y-65654493D01*
X34856493Y-68054493D02*
X34856493Y-65654493D01*
X29056493Y-68054493D02*
X34856493Y-68054493D01*
X29131493Y-68054493D02*
X29131493Y-65654493D01*
X29256493Y-68054493D02*
X29256493Y-65654493D01*
X29031493Y-65654493D02*
X29031493Y-68054493D01*
X29431493Y-68054493D02*
X29431493Y-65654493D01*
X29606493Y-68054493D02*
X29606493Y-65654493D01*
X29781493Y-68054493D02*
X29781493Y-65654493D01*
X13012493Y-65654493D02*
X7212493Y-65654493D01*
X13012493Y-68054493D02*
X13012493Y-65654493D01*
X7212493Y-68054493D02*
X13012493Y-68054493D01*
X7287493Y-68054493D02*
X7287493Y-65654493D01*
X7412493Y-68054493D02*
X7412493Y-65654493D01*
X7187493Y-65654493D02*
X7187493Y-68054493D01*
X7587493Y-68054493D02*
X7587493Y-65654493D01*
X7762493Y-68054493D02*
X7762493Y-65654493D01*
X7937493Y-68054493D02*
X7937493Y-65654493D01*
X7937493Y-89644493D02*
X7937493Y-87244493D01*
X7762493Y-89644493D02*
X7762493Y-87244493D01*
X7587493Y-89644493D02*
X7587493Y-87244493D01*
X7187493Y-87244493D02*
X7187493Y-89644493D01*
X7412493Y-89644493D02*
X7412493Y-87244493D01*
X7287493Y-89644493D02*
X7287493Y-87244493D01*
X7212493Y-89644493D02*
X13012493Y-89644493D01*
X13012493Y-89644493D02*
X13012493Y-87244493D01*
X13012493Y-87244493D02*
X7212493Y-87244493D01*
X29781493Y-89644493D02*
X29781493Y-87244493D01*
X29606493Y-89644493D02*
X29606493Y-87244493D01*
X29431493Y-89644493D02*
X29431493Y-87244493D01*
X29031493Y-87244493D02*
X29031493Y-89644493D01*
X29256493Y-89644493D02*
X29256493Y-87244493D01*
X29131493Y-89644493D02*
X29131493Y-87244493D01*
X29056493Y-89644493D02*
X34856493Y-89644493D01*
X34856493Y-89644493D02*
X34856493Y-87244493D01*
X34856493Y-87244493D02*
X29056493Y-87244493D01*
X51371493Y-89644493D02*
X51371493Y-87244493D01*
X51196493Y-89644493D02*
X51196493Y-87244493D01*
X51021493Y-89644493D02*
X51021493Y-87244493D01*
X50621493Y-87244493D02*
X50621493Y-89644493D01*
X50846493Y-89644493D02*
X50846493Y-87244493D01*
X50721493Y-89644493D02*
X50721493Y-87244493D01*
X50646493Y-89644493D02*
X56446493Y-89644493D01*
X56446493Y-89644493D02*
X56446493Y-87244493D01*
X56446493Y-87244493D02*
X50646493Y-87244493D01*
X73723493Y-89644493D02*
X73723493Y-87244493D01*
X73548493Y-89644493D02*
X73548493Y-87244493D01*
X73373493Y-89644493D02*
X73373493Y-87244493D01*
X72973493Y-87244493D02*
X72973493Y-89644493D01*
X73198493Y-89644493D02*
X73198493Y-87244493D01*
X73073493Y-89644493D02*
X73073493Y-87244493D01*
X72998493Y-89644493D02*
X78798493Y-89644493D01*
X78798493Y-89644493D02*
X78798493Y-87244493D01*
X78798493Y-87244493D02*
X72998493Y-87244493D01*
X13012493Y-108580493D02*
X7212493Y-108580493D01*
X13012493Y-110980493D02*
X13012493Y-108580493D01*
X7212493Y-110980493D02*
X13012493Y-110980493D01*
X7287493Y-110980493D02*
X7287493Y-108580493D01*
X7412493Y-110980493D02*
X7412493Y-108580493D01*
X7187493Y-108580493D02*
X7187493Y-110980493D01*
X7587493Y-110980493D02*
X7587493Y-108580493D01*
X7762493Y-110980493D02*
X7762493Y-108580493D01*
X7937493Y-110980493D02*
X7937493Y-108580493D01*
X29527493Y-110980493D02*
X29527493Y-108580493D01*
X29352493Y-110980493D02*
X29352493Y-108580493D01*
X29177493Y-110980493D02*
X29177493Y-108580493D01*
X28777493Y-108580493D02*
X28777493Y-110980493D01*
X29002493Y-110980493D02*
X29002493Y-108580493D01*
X28877493Y-110980493D02*
X28877493Y-108580493D01*
X28802493Y-110980493D02*
X34602493Y-110980493D01*
X34602493Y-110980493D02*
X34602493Y-108580493D01*
X34602493Y-108580493D02*
X28802493Y-108580493D01*
X51371493Y-110980493D02*
X51371493Y-108580493D01*
X51196493Y-110980493D02*
X51196493Y-108580493D01*
X51021493Y-110980493D02*
X51021493Y-108580493D01*
X50621493Y-108580493D02*
X50621493Y-110980493D01*
X50846493Y-110980493D02*
X50846493Y-108580493D01*
X50721493Y-110980493D02*
X50721493Y-108580493D01*
X50646493Y-110980493D02*
X56446493Y-110980493D01*
X56446493Y-110980493D02*
X56446493Y-108580493D01*
X56446493Y-108580493D02*
X50646493Y-108580493D01*
X7937493Y-132062493D02*
X7937493Y-129662493D01*
X7762493Y-132062493D02*
X7762493Y-129662493D01*
X7587493Y-132062493D02*
X7587493Y-129662493D01*
X7187493Y-129662493D02*
X7187493Y-132062493D01*
X7412493Y-132062493D02*
X7412493Y-129662493D01*
X7287493Y-132062493D02*
X7287493Y-129662493D01*
X7212493Y-132062493D02*
X13012493Y-132062493D01*
X13012493Y-132062493D02*
X13012493Y-129662493D01*
X13012493Y-129662493D02*
X7212493Y-129662493D01*
X29527493Y-132316493D02*
X29527493Y-129916493D01*
X29352493Y-132316493D02*
X29352493Y-129916493D01*
X29177493Y-132316493D02*
X29177493Y-129916493D01*
X28777493Y-129916493D02*
X28777493Y-132316493D01*
X29002493Y-132316493D02*
X29002493Y-129916493D01*
X28877493Y-132316493D02*
X28877493Y-129916493D01*
X28802493Y-132316493D02*
X34602493Y-132316493D01*
X34602493Y-132316493D02*
X34602493Y-129916493D01*
X34602493Y-129916493D02*
X28802493Y-129916493D01*
X56446493Y-129916493D02*
X50646493Y-129916493D01*
X56446493Y-132316493D02*
X56446493Y-129916493D01*
X50646493Y-132316493D02*
X56446493Y-132316493D01*
X50721493Y-132316493D02*
X50721493Y-129916493D01*
X50846493Y-132316493D02*
X50846493Y-129916493D01*
X50621493Y-129916493D02*
X50621493Y-132316493D01*
X51021493Y-132316493D02*
X51021493Y-129916493D01*
X51196493Y-132316493D02*
X51196493Y-129916493D01*
X51371493Y-132316493D02*
X51371493Y-129916493D01*
X73134493Y-119692493D02*
X73134493Y-113892493D01*
X70734493Y-119692493D02*
X73134493Y-119692493D01*
X70734493Y-113892493D02*
X70734493Y-119692493D01*
X70734493Y-113967493D02*
X73134493Y-113967493D01*
X70734493Y-114092493D02*
X73134493Y-114092493D01*
X73134493Y-113867493D02*
X70734493Y-113867493D01*
X70734493Y-114267493D02*
X73134493Y-114267493D01*
X70734493Y-114442493D02*
X73134493Y-114442493D01*
X70734493Y-114617493D02*
X73134493Y-114617493D01*
X13012493Y-151252493D02*
X7212493Y-151252493D01*
X13012493Y-153652493D02*
X13012493Y-151252493D01*
X7212493Y-153652493D02*
X13012493Y-153652493D01*
X7287493Y-153652493D02*
X7287493Y-151252493D01*
X7412493Y-153652493D02*
X7412493Y-151252493D01*
X7187493Y-151252493D02*
X7187493Y-153652493D01*
X7587493Y-153652493D02*
X7587493Y-151252493D01*
X7762493Y-153652493D02*
X7762493Y-151252493D01*
X7937493Y-153652493D02*
X7937493Y-151252493D01*
X29781493Y-153652493D02*
X29781493Y-151252493D01*
X29606493Y-153652493D02*
X29606493Y-151252493D01*
X29431493Y-153652493D02*
X29431493Y-151252493D01*
X29031493Y-151252493D02*
X29031493Y-153652493D01*
X29256493Y-153652493D02*
X29256493Y-151252493D01*
X29131493Y-153652493D02*
X29131493Y-151252493D01*
X29056493Y-153652493D02*
X34856493Y-153652493D01*
X34856493Y-153652493D02*
X34856493Y-151252493D01*
X34856493Y-151252493D02*
X29056493Y-151252493D01*
X56192493Y-151252493D02*
X50392493Y-151252493D01*
X56192493Y-153652493D02*
X56192493Y-151252493D01*
X50392493Y-153652493D02*
X56192493Y-153652493D01*
X50467493Y-153652493D02*
X50467493Y-151252493D01*
X50592493Y-153652493D02*
X50592493Y-151252493D01*
X50367493Y-151252493D02*
X50367493Y-153652493D01*
X50767493Y-153652493D02*
X50767493Y-151252493D01*
X50942493Y-153652493D02*
X50942493Y-151252493D01*
X51117493Y-153652493D02*
X51117493Y-151252493D01*
X22918493Y-172588493D02*
X17118493Y-172588493D01*
X22918493Y-174988493D02*
X22918493Y-172588493D01*
X17118493Y-174988493D02*
X22918493Y-174988493D01*
X17193493Y-174988493D02*
X17193493Y-172588493D01*
X17318493Y-174988493D02*
X17318493Y-172588493D01*
X17093493Y-172588493D02*
X17093493Y-174988493D01*
X17493493Y-174988493D02*
X17493493Y-172588493D01*
X17668493Y-174988493D02*
X17668493Y-172588493D01*
X17843493Y-174988493D02*
X17843493Y-172588493D01*
X56446493Y-172588493D02*
X50646493Y-172588493D01*
X56446493Y-174988493D02*
X56446493Y-172588493D01*
X50646493Y-174988493D02*
X56446493Y-174988493D01*
X50721493Y-174988493D02*
X50721493Y-172588493D01*
X50846493Y-174988493D02*
X50846493Y-172588493D01*
X50621493Y-172588493D02*
X50621493Y-174988493D01*
X51021493Y-174988493D02*
X51021493Y-172588493D01*
X51196493Y-174988493D02*
X51196493Y-172588493D01*
X51371493Y-174988493D02*
X51371493Y-172588493D01*
X72880493Y-163380493D02*
X72880493Y-157580493D01*
X70480493Y-163380493D02*
X72880493Y-163380493D01*
X70480493Y-157580493D02*
X70480493Y-163380493D01*
X70480493Y-157655493D02*
X72880493Y-157655493D01*
X70480493Y-157780493D02*
X72880493Y-157780493D01*
X72880493Y-157555493D02*
X70480493Y-157555493D01*
X70480493Y-157955493D02*
X72880493Y-157955493D01*
X70480493Y-158130493D02*
X72880493Y-158130493D01*
X70480493Y-158305493D02*
X72880493Y-158305493D01*
D10*
X11545826Y-54987873D02*
X11879159Y-54511683D01*
X12117254Y-54987873D02*
X12117254Y-53987873D01*
X11736302Y-53987873D01*
X11641064Y-54035493D01*
X11593445Y-54083112D01*
X11545826Y-54178350D01*
X11545826Y-54321207D01*
X11593445Y-54416445D01*
X11641064Y-54464064D01*
X11736302Y-54511683D01*
X12117254Y-54511683D01*
X11117254Y-54464064D02*
X10783921Y-54464064D01*
X10641064Y-54987873D02*
X11117254Y-54987873D01*
X11117254Y-53987873D01*
X10641064Y-53987873D01*
X9879159Y-54464064D02*
X10212493Y-54464064D01*
X10212493Y-54987873D02*
X10212493Y-53987873D01*
X9736302Y-53987873D01*
X9212493Y-53987873D02*
X9212493Y-54225969D01*
X9450588Y-54130731D02*
X9212493Y-54225969D01*
X8974397Y-54130731D01*
X9355350Y-54416445D02*
X9212493Y-54225969D01*
X9069635Y-54416445D01*
X8450588Y-53987873D02*
X8450588Y-54225969D01*
X8688683Y-54130731D02*
X8450588Y-54225969D01*
X8212493Y-54130731D01*
X8593445Y-54416445D02*
X8450588Y-54225969D01*
X8307731Y-54416445D01*
X77585826Y-76577873D02*
X77919159Y-76101683D01*
X78157254Y-76577873D02*
X78157254Y-75577873D01*
X77776302Y-75577873D01*
X77681064Y-75625493D01*
X77633445Y-75673112D01*
X77585826Y-75768350D01*
X77585826Y-75911207D01*
X77633445Y-76006445D01*
X77681064Y-76054064D01*
X77776302Y-76101683D01*
X78157254Y-76101683D01*
X77157254Y-76054064D02*
X76823921Y-76054064D01*
X76681064Y-76577873D02*
X77157254Y-76577873D01*
X77157254Y-75577873D01*
X76681064Y-75577873D01*
X75919159Y-76054064D02*
X76252493Y-76054064D01*
X76252493Y-76577873D02*
X76252493Y-75577873D01*
X75776302Y-75577873D01*
X75252493Y-75577873D02*
X75252493Y-75815969D01*
X75490588Y-75720731D02*
X75252493Y-75815969D01*
X75014397Y-75720731D01*
X75395350Y-76006445D02*
X75252493Y-75815969D01*
X75109635Y-76006445D01*
X74490588Y-75577873D02*
X74490588Y-75815969D01*
X74728683Y-75720731D02*
X74490588Y-75815969D01*
X74252493Y-75720731D01*
X74633445Y-76006445D02*
X74490588Y-75815969D01*
X74347731Y-76006445D01*
X84995873Y-115606159D02*
X84519683Y-115272826D01*
X84995873Y-115034731D02*
X83995873Y-115034731D01*
X83995873Y-115415683D01*
X84043493Y-115510921D01*
X84091112Y-115558540D01*
X84186350Y-115606159D01*
X84329207Y-115606159D01*
X84424445Y-115558540D01*
X84472064Y-115510921D01*
X84519683Y-115415683D01*
X84519683Y-115034731D01*
X84472064Y-116034731D02*
X84472064Y-116368064D01*
X84995873Y-116510921D02*
X84995873Y-116034731D01*
X83995873Y-116034731D01*
X83995873Y-116510921D01*
X84472064Y-117272826D02*
X84472064Y-116939493D01*
X84995873Y-116939493D02*
X83995873Y-116939493D01*
X83995873Y-117415683D01*
X83995873Y-117939493D02*
X84233969Y-117939493D01*
X84138731Y-117701397D02*
X84233969Y-117939493D01*
X84138731Y-118177588D01*
X84424445Y-117796635D02*
X84233969Y-117939493D01*
X84424445Y-118082350D01*
X83995873Y-118701397D02*
X84233969Y-118701397D01*
X84138731Y-118463302D02*
X84233969Y-118701397D01*
X84138731Y-118939493D01*
X84424445Y-118558540D02*
X84233969Y-118701397D01*
X84424445Y-118844254D01*
X84959873Y-158739159D02*
X84483683Y-158405826D01*
X84959873Y-158167731D02*
X83959873Y-158167731D01*
X83959873Y-158548683D01*
X84007493Y-158643921D01*
X84055112Y-158691540D01*
X84150350Y-158739159D01*
X84293207Y-158739159D01*
X84388445Y-158691540D01*
X84436064Y-158643921D01*
X84483683Y-158548683D01*
X84483683Y-158167731D01*
X84436064Y-159167731D02*
X84436064Y-159501064D01*
X84959873Y-159643921D02*
X84959873Y-159167731D01*
X83959873Y-159167731D01*
X83959873Y-159643921D01*
X84436064Y-160405826D02*
X84436064Y-160072493D01*
X84959873Y-160072493D02*
X83959873Y-160072493D01*
X83959873Y-160548683D01*
X83959873Y-161072493D02*
X84197969Y-161072493D01*
X84102731Y-160834397D02*
X84197969Y-161072493D01*
X84102731Y-161310588D01*
X84388445Y-160929635D02*
X84197969Y-161072493D01*
X84388445Y-161215350D01*
X83959873Y-161834397D02*
X84197969Y-161834397D01*
X84102731Y-161596302D02*
X84197969Y-161834397D01*
X84102731Y-162072493D01*
X84388445Y-161691540D02*
X84197969Y-161834397D01*
X84388445Y-161977254D01*
X54979826Y-161921873D02*
X55313159Y-161445683D01*
X55551254Y-161921873D02*
X55551254Y-160921873D01*
X55170302Y-160921873D01*
X55075064Y-160969493D01*
X55027445Y-161017112D01*
X54979826Y-161112350D01*
X54979826Y-161255207D01*
X55027445Y-161350445D01*
X55075064Y-161398064D01*
X55170302Y-161445683D01*
X55551254Y-161445683D01*
X54551254Y-161398064D02*
X54217921Y-161398064D01*
X54075064Y-161921873D02*
X54551254Y-161921873D01*
X54551254Y-160921873D01*
X54075064Y-160921873D01*
X53313159Y-161398064D02*
X53646493Y-161398064D01*
X53646493Y-161921873D02*
X53646493Y-160921873D01*
X53170302Y-160921873D01*
X52646493Y-160921873D02*
X52646493Y-161159969D01*
X52884588Y-161064731D02*
X52646493Y-161159969D01*
X52408397Y-161064731D01*
X52789350Y-161350445D02*
X52646493Y-161159969D01*
X52503635Y-161350445D01*
X51884588Y-160921873D02*
X51884588Y-161159969D01*
X52122683Y-161064731D02*
X51884588Y-161159969D01*
X51646493Y-161064731D01*
X52027445Y-161350445D02*
X51884588Y-161159969D01*
X51741731Y-161350445D01*
X54979826Y-119249873D02*
X55313159Y-118773683D01*
X55551254Y-119249873D02*
X55551254Y-118249873D01*
X55170302Y-118249873D01*
X55075064Y-118297493D01*
X55027445Y-118345112D01*
X54979826Y-118440350D01*
X54979826Y-118583207D01*
X55027445Y-118678445D01*
X55075064Y-118726064D01*
X55170302Y-118773683D01*
X55551254Y-118773683D01*
X54551254Y-118726064D02*
X54217921Y-118726064D01*
X54075064Y-119249873D02*
X54551254Y-119249873D01*
X54551254Y-118249873D01*
X54075064Y-118249873D01*
X53313159Y-118726064D02*
X53646493Y-118726064D01*
X53646493Y-119249873D02*
X53646493Y-118249873D01*
X53170302Y-118249873D01*
X52646493Y-118249873D02*
X52646493Y-118487969D01*
X52884588Y-118392731D02*
X52646493Y-118487969D01*
X52408397Y-118392731D01*
X52789350Y-118678445D02*
X52646493Y-118487969D01*
X52503635Y-118678445D01*
X51884588Y-118249873D02*
X51884588Y-118487969D01*
X52122683Y-118392731D02*
X51884588Y-118487969D01*
X51646493Y-118392731D01*
X52027445Y-118678445D02*
X51884588Y-118487969D01*
X51741731Y-118678445D01*
X54979826Y-97913873D02*
X55313159Y-97437683D01*
X55551254Y-97913873D02*
X55551254Y-96913873D01*
X55170302Y-96913873D01*
X55075064Y-96961493D01*
X55027445Y-97009112D01*
X54979826Y-97104350D01*
X54979826Y-97247207D01*
X55027445Y-97342445D01*
X55075064Y-97390064D01*
X55170302Y-97437683D01*
X55551254Y-97437683D01*
X54551254Y-97390064D02*
X54217921Y-97390064D01*
X54075064Y-97913873D02*
X54551254Y-97913873D01*
X54551254Y-96913873D01*
X54075064Y-96913873D01*
X53313159Y-97390064D02*
X53646493Y-97390064D01*
X53646493Y-97913873D02*
X53646493Y-96913873D01*
X53170302Y-96913873D01*
X52646493Y-96913873D02*
X52646493Y-97151969D01*
X52884588Y-97056731D02*
X52646493Y-97151969D01*
X52408397Y-97056731D01*
X52789350Y-97342445D02*
X52646493Y-97151969D01*
X52503635Y-97342445D01*
X51884588Y-96913873D02*
X51884588Y-97151969D01*
X52122683Y-97056731D02*
X51884588Y-97151969D01*
X51646493Y-97056731D01*
X52027445Y-97342445D02*
X51884588Y-97151969D01*
X51741731Y-97342445D01*
X54979826Y-76323873D02*
X55313159Y-75847683D01*
X55551254Y-76323873D02*
X55551254Y-75323873D01*
X55170302Y-75323873D01*
X55075064Y-75371493D01*
X55027445Y-75419112D01*
X54979826Y-75514350D01*
X54979826Y-75657207D01*
X55027445Y-75752445D01*
X55075064Y-75800064D01*
X55170302Y-75847683D01*
X55551254Y-75847683D01*
X54551254Y-75800064D02*
X54217921Y-75800064D01*
X54075064Y-76323873D02*
X54551254Y-76323873D01*
X54551254Y-75323873D01*
X54075064Y-75323873D01*
X53313159Y-75800064D02*
X53646493Y-75800064D01*
X53646493Y-76323873D02*
X53646493Y-75323873D01*
X53170302Y-75323873D01*
X52646493Y-75323873D02*
X52646493Y-75561969D01*
X52884588Y-75466731D02*
X52646493Y-75561969D01*
X52408397Y-75466731D01*
X52789350Y-75752445D02*
X52646493Y-75561969D01*
X52503635Y-75752445D01*
X51884588Y-75323873D02*
X51884588Y-75561969D01*
X52122683Y-75466731D02*
X51884588Y-75561969D01*
X51646493Y-75466731D01*
X52027445Y-75752445D02*
X51884588Y-75561969D01*
X51741731Y-75752445D01*
X54979826Y-54733873D02*
X55313159Y-54257683D01*
X55551254Y-54733873D02*
X55551254Y-53733873D01*
X55170302Y-53733873D01*
X55075064Y-53781493D01*
X55027445Y-53829112D01*
X54979826Y-53924350D01*
X54979826Y-54067207D01*
X55027445Y-54162445D01*
X55075064Y-54210064D01*
X55170302Y-54257683D01*
X55551254Y-54257683D01*
X54551254Y-54210064D02*
X54217921Y-54210064D01*
X54075064Y-54733873D02*
X54551254Y-54733873D01*
X54551254Y-53733873D01*
X54075064Y-53733873D01*
X53313159Y-54210064D02*
X53646493Y-54210064D01*
X53646493Y-54733873D02*
X53646493Y-53733873D01*
X53170302Y-53733873D01*
X52646493Y-53733873D02*
X52646493Y-53971969D01*
X52884588Y-53876731D02*
X52646493Y-53971969D01*
X52408397Y-53876731D01*
X52789350Y-54162445D02*
X52646493Y-53971969D01*
X52503635Y-54162445D01*
X51884588Y-53733873D02*
X51884588Y-53971969D01*
X52122683Y-53876731D02*
X51884588Y-53971969D01*
X51646493Y-53876731D01*
X52027445Y-54162445D02*
X51884588Y-53971969D01*
X51741731Y-54162445D01*
X33389826Y-140585873D02*
X33723159Y-140109683D01*
X33961254Y-140585873D02*
X33961254Y-139585873D01*
X33580302Y-139585873D01*
X33485064Y-139633493D01*
X33437445Y-139681112D01*
X33389826Y-139776350D01*
X33389826Y-139919207D01*
X33437445Y-140014445D01*
X33485064Y-140062064D01*
X33580302Y-140109683D01*
X33961254Y-140109683D01*
X32961254Y-140062064D02*
X32627921Y-140062064D01*
X32485064Y-140585873D02*
X32961254Y-140585873D01*
X32961254Y-139585873D01*
X32485064Y-139585873D01*
X31723159Y-140062064D02*
X32056493Y-140062064D01*
X32056493Y-140585873D02*
X32056493Y-139585873D01*
X31580302Y-139585873D01*
X31056493Y-139585873D02*
X31056493Y-139823969D01*
X31294588Y-139728731D02*
X31056493Y-139823969D01*
X30818397Y-139728731D01*
X31199350Y-140014445D02*
X31056493Y-139823969D01*
X30913635Y-140014445D01*
X30294588Y-139585873D02*
X30294588Y-139823969D01*
X30532683Y-139728731D02*
X30294588Y-139823969D01*
X30056493Y-139728731D01*
X30437445Y-140014445D02*
X30294588Y-139823969D01*
X30151731Y-140014445D01*
X33135826Y-118995873D02*
X33469159Y-118519683D01*
X33707254Y-118995873D02*
X33707254Y-117995873D01*
X33326302Y-117995873D01*
X33231064Y-118043493D01*
X33183445Y-118091112D01*
X33135826Y-118186350D01*
X33135826Y-118329207D01*
X33183445Y-118424445D01*
X33231064Y-118472064D01*
X33326302Y-118519683D01*
X33707254Y-118519683D01*
X32707254Y-118472064D02*
X32373921Y-118472064D01*
X32231064Y-118995873D02*
X32707254Y-118995873D01*
X32707254Y-117995873D01*
X32231064Y-117995873D01*
X31469159Y-118472064D02*
X31802493Y-118472064D01*
X31802493Y-118995873D02*
X31802493Y-117995873D01*
X31326302Y-117995873D01*
X30802493Y-117995873D02*
X30802493Y-118233969D01*
X31040588Y-118138731D02*
X30802493Y-118233969D01*
X30564397Y-118138731D01*
X30945350Y-118424445D02*
X30802493Y-118233969D01*
X30659635Y-118424445D01*
X30040588Y-117995873D02*
X30040588Y-118233969D01*
X30278683Y-118138731D02*
X30040588Y-118233969D01*
X29802493Y-118138731D01*
X30183445Y-118424445D02*
X30040588Y-118233969D01*
X29897731Y-118424445D01*
X33135826Y-97913873D02*
X33469159Y-97437683D01*
X33707254Y-97913873D02*
X33707254Y-96913873D01*
X33326302Y-96913873D01*
X33231064Y-96961493D01*
X33183445Y-97009112D01*
X33135826Y-97104350D01*
X33135826Y-97247207D01*
X33183445Y-97342445D01*
X33231064Y-97390064D01*
X33326302Y-97437683D01*
X33707254Y-97437683D01*
X32707254Y-97390064D02*
X32373921Y-97390064D01*
X32231064Y-97913873D02*
X32707254Y-97913873D01*
X32707254Y-96913873D01*
X32231064Y-96913873D01*
X31469159Y-97390064D02*
X31802493Y-97390064D01*
X31802493Y-97913873D02*
X31802493Y-96913873D01*
X31326302Y-96913873D01*
X30802493Y-96913873D02*
X30802493Y-97151969D01*
X31040588Y-97056731D02*
X30802493Y-97151969D01*
X30564397Y-97056731D01*
X30945350Y-97342445D02*
X30802493Y-97151969D01*
X30659635Y-97342445D01*
X30040588Y-96913873D02*
X30040588Y-97151969D01*
X30278683Y-97056731D02*
X30040588Y-97151969D01*
X29802493Y-97056731D01*
X30183445Y-97342445D02*
X30040588Y-97151969D01*
X29897731Y-97342445D01*
X33135826Y-76323873D02*
X33469159Y-75847683D01*
X33707254Y-76323873D02*
X33707254Y-75323873D01*
X33326302Y-75323873D01*
X33231064Y-75371493D01*
X33183445Y-75419112D01*
X33135826Y-75514350D01*
X33135826Y-75657207D01*
X33183445Y-75752445D01*
X33231064Y-75800064D01*
X33326302Y-75847683D01*
X33707254Y-75847683D01*
X32707254Y-75800064D02*
X32373921Y-75800064D01*
X32231064Y-76323873D02*
X32707254Y-76323873D01*
X32707254Y-75323873D01*
X32231064Y-75323873D01*
X31469159Y-75800064D02*
X31802493Y-75800064D01*
X31802493Y-76323873D02*
X31802493Y-75323873D01*
X31326302Y-75323873D01*
X30802493Y-75323873D02*
X30802493Y-75561969D01*
X31040588Y-75466731D02*
X30802493Y-75561969D01*
X30564397Y-75466731D01*
X30945350Y-75752445D02*
X30802493Y-75561969D01*
X30659635Y-75752445D01*
X30040588Y-75323873D02*
X30040588Y-75561969D01*
X30278683Y-75466731D02*
X30040588Y-75561969D01*
X29802493Y-75466731D01*
X30183445Y-75752445D02*
X30040588Y-75561969D01*
X29897731Y-75752445D01*
X11545826Y-140331873D02*
X11879159Y-139855683D01*
X12117254Y-140331873D02*
X12117254Y-139331873D01*
X11736302Y-139331873D01*
X11641064Y-139379493D01*
X11593445Y-139427112D01*
X11545826Y-139522350D01*
X11545826Y-139665207D01*
X11593445Y-139760445D01*
X11641064Y-139808064D01*
X11736302Y-139855683D01*
X12117254Y-139855683D01*
X11117254Y-139808064D02*
X10783921Y-139808064D01*
X10641064Y-140331873D02*
X11117254Y-140331873D01*
X11117254Y-139331873D01*
X10641064Y-139331873D01*
X9879159Y-139808064D02*
X10212493Y-139808064D01*
X10212493Y-140331873D02*
X10212493Y-139331873D01*
X9736302Y-139331873D01*
X9212493Y-139331873D02*
X9212493Y-139569969D01*
X9450588Y-139474731D02*
X9212493Y-139569969D01*
X8974397Y-139474731D01*
X9355350Y-139760445D02*
X9212493Y-139569969D01*
X9069635Y-139760445D01*
X8450588Y-139331873D02*
X8450588Y-139569969D01*
X8688683Y-139474731D02*
X8450588Y-139569969D01*
X8212493Y-139474731D01*
X8593445Y-139760445D02*
X8450588Y-139569969D01*
X8307731Y-139760445D01*
X21197826Y-161667873D02*
X21531159Y-161191683D01*
X21769254Y-161667873D02*
X21769254Y-160667873D01*
X21388302Y-160667873D01*
X21293064Y-160715493D01*
X21245445Y-160763112D01*
X21197826Y-160858350D01*
X21197826Y-161001207D01*
X21245445Y-161096445D01*
X21293064Y-161144064D01*
X21388302Y-161191683D01*
X21769254Y-161191683D01*
X20769254Y-161144064D02*
X20435921Y-161144064D01*
X20293064Y-161667873D02*
X20769254Y-161667873D01*
X20769254Y-160667873D01*
X20293064Y-160667873D01*
X19531159Y-161144064D02*
X19864493Y-161144064D01*
X19864493Y-161667873D02*
X19864493Y-160667873D01*
X19388302Y-160667873D01*
X18864493Y-160667873D02*
X18864493Y-160905969D01*
X19102588Y-160810731D02*
X18864493Y-160905969D01*
X18626397Y-160810731D01*
X19007350Y-161096445D02*
X18864493Y-160905969D01*
X18721635Y-161096445D01*
X18102588Y-160667873D02*
X18102588Y-160905969D01*
X18340683Y-160810731D02*
X18102588Y-160905969D01*
X17864493Y-160810731D01*
X18245445Y-161096445D02*
X18102588Y-160905969D01*
X17959731Y-161096445D01*
X54979826Y-140331873D02*
X55313159Y-139855683D01*
X55551254Y-140331873D02*
X55551254Y-139331873D01*
X55170302Y-139331873D01*
X55075064Y-139379493D01*
X55027445Y-139427112D01*
X54979826Y-139522350D01*
X54979826Y-139665207D01*
X55027445Y-139760445D01*
X55075064Y-139808064D01*
X55170302Y-139855683D01*
X55551254Y-139855683D01*
X54551254Y-139808064D02*
X54217921Y-139808064D01*
X54075064Y-140331873D02*
X54551254Y-140331873D01*
X54551254Y-139331873D01*
X54075064Y-139331873D01*
X53313159Y-139808064D02*
X53646493Y-139808064D01*
X53646493Y-140331873D02*
X53646493Y-139331873D01*
X53170302Y-139331873D01*
X52646493Y-139331873D02*
X52646493Y-139569969D01*
X52884588Y-139474731D02*
X52646493Y-139569969D01*
X52408397Y-139474731D01*
X52789350Y-139760445D02*
X52646493Y-139569969D01*
X52503635Y-139760445D01*
X51884588Y-139331873D02*
X51884588Y-139569969D01*
X52122683Y-139474731D02*
X51884588Y-139569969D01*
X51646493Y-139474731D01*
X52027445Y-139760445D02*
X51884588Y-139569969D01*
X51741731Y-139760445D01*
X11545826Y-118995873D02*
X11879159Y-118519683D01*
X12117254Y-118995873D02*
X12117254Y-117995873D01*
X11736302Y-117995873D01*
X11641064Y-118043493D01*
X11593445Y-118091112D01*
X11545826Y-118186350D01*
X11545826Y-118329207D01*
X11593445Y-118424445D01*
X11641064Y-118472064D01*
X11736302Y-118519683D01*
X12117254Y-118519683D01*
X11117254Y-118472064D02*
X10783921Y-118472064D01*
X10641064Y-118995873D02*
X11117254Y-118995873D01*
X11117254Y-117995873D01*
X10641064Y-117995873D01*
X9879159Y-118472064D02*
X10212493Y-118472064D01*
X10212493Y-118995873D02*
X10212493Y-117995873D01*
X9736302Y-117995873D01*
X9212493Y-117995873D02*
X9212493Y-118233969D01*
X9450588Y-118138731D02*
X9212493Y-118233969D01*
X8974397Y-118138731D01*
X9355350Y-118424445D02*
X9212493Y-118233969D01*
X9069635Y-118424445D01*
X8450588Y-117995873D02*
X8450588Y-118233969D01*
X8688683Y-118138731D02*
X8450588Y-118233969D01*
X8212493Y-118138731D01*
X8593445Y-118424445D02*
X8450588Y-118233969D01*
X8307731Y-118424445D01*
X11545826Y-97659873D02*
X11879159Y-97183683D01*
X12117254Y-97659873D02*
X12117254Y-96659873D01*
X11736302Y-96659873D01*
X11641064Y-96707493D01*
X11593445Y-96755112D01*
X11545826Y-96850350D01*
X11545826Y-96993207D01*
X11593445Y-97088445D01*
X11641064Y-97136064D01*
X11736302Y-97183683D01*
X12117254Y-97183683D01*
X11117254Y-97136064D02*
X10783921Y-97136064D01*
X10641064Y-97659873D02*
X11117254Y-97659873D01*
X11117254Y-96659873D01*
X10641064Y-96659873D01*
X9879159Y-97136064D02*
X10212493Y-97136064D01*
X10212493Y-97659873D02*
X10212493Y-96659873D01*
X9736302Y-96659873D01*
X9212493Y-96659873D02*
X9212493Y-96897969D01*
X9450588Y-96802731D02*
X9212493Y-96897969D01*
X8974397Y-96802731D01*
X9355350Y-97088445D02*
X9212493Y-96897969D01*
X9069635Y-97088445D01*
X8450588Y-96659873D02*
X8450588Y-96897969D01*
X8688683Y-96802731D02*
X8450588Y-96897969D01*
X8212493Y-96802731D01*
X8593445Y-97088445D02*
X8450588Y-96897969D01*
X8307731Y-97088445D01*
X11545826Y-76323873D02*
X11879159Y-75847683D01*
X12117254Y-76323873D02*
X12117254Y-75323873D01*
X11736302Y-75323873D01*
X11641064Y-75371493D01*
X11593445Y-75419112D01*
X11545826Y-75514350D01*
X11545826Y-75657207D01*
X11593445Y-75752445D01*
X11641064Y-75800064D01*
X11736302Y-75847683D01*
X12117254Y-75847683D01*
X11117254Y-75800064D02*
X10783921Y-75800064D01*
X10641064Y-76323873D02*
X11117254Y-76323873D01*
X11117254Y-75323873D01*
X10641064Y-75323873D01*
X9879159Y-75800064D02*
X10212493Y-75800064D01*
X10212493Y-76323873D02*
X10212493Y-75323873D01*
X9736302Y-75323873D01*
X9212493Y-75323873D02*
X9212493Y-75561969D01*
X9450588Y-75466731D02*
X9212493Y-75561969D01*
X8974397Y-75466731D01*
X9355350Y-75752445D02*
X9212493Y-75561969D01*
X9069635Y-75752445D01*
X8450588Y-75323873D02*
X8450588Y-75561969D01*
X8688683Y-75466731D02*
X8450588Y-75561969D01*
X8212493Y-75466731D01*
X8593445Y-75752445D02*
X8450588Y-75561969D01*
X8307731Y-75752445D01*
X33135826Y-54733873D02*
X33469159Y-54257683D01*
X33707254Y-54733873D02*
X33707254Y-53733873D01*
X33326302Y-53733873D01*
X33231064Y-53781493D01*
X33183445Y-53829112D01*
X33135826Y-53924350D01*
X33135826Y-54067207D01*
X33183445Y-54162445D01*
X33231064Y-54210064D01*
X33326302Y-54257683D01*
X33707254Y-54257683D01*
X32707254Y-54210064D02*
X32373921Y-54210064D01*
X32231064Y-54733873D02*
X32707254Y-54733873D01*
X32707254Y-53733873D01*
X32231064Y-53733873D01*
X31469159Y-54210064D02*
X31802493Y-54210064D01*
X31802493Y-54733873D02*
X31802493Y-53733873D01*
X31326302Y-53733873D01*
X30802493Y-53733873D02*
X30802493Y-53971969D01*
X31040588Y-53876731D02*
X30802493Y-53971969D01*
X30564397Y-53876731D01*
X30945350Y-54162445D02*
X30802493Y-53971969D01*
X30659635Y-54162445D01*
X30040588Y-53733873D02*
X30040588Y-53971969D01*
X30278683Y-53876731D02*
X30040588Y-53971969D01*
X29802493Y-53876731D01*
X30183445Y-54162445D02*
X30040588Y-53971969D01*
X29897731Y-54162445D01*
X77585826Y-54987873D02*
X77919159Y-54511683D01*
X78157254Y-54987873D02*
X78157254Y-53987873D01*
X77776302Y-53987873D01*
X77681064Y-54035493D01*
X77633445Y-54083112D01*
X77585826Y-54178350D01*
X77585826Y-54321207D01*
X77633445Y-54416445D01*
X77681064Y-54464064D01*
X77776302Y-54511683D01*
X78157254Y-54511683D01*
X77157254Y-54464064D02*
X76823921Y-54464064D01*
X76681064Y-54987873D02*
X77157254Y-54987873D01*
X77157254Y-53987873D01*
X76681064Y-53987873D01*
X75919159Y-54464064D02*
X76252493Y-54464064D01*
X76252493Y-54987873D02*
X76252493Y-53987873D01*
X75776302Y-53987873D01*
X75252493Y-53987873D02*
X75252493Y-54225969D01*
X75490588Y-54130731D02*
X75252493Y-54225969D01*
X75014397Y-54130731D01*
X75395350Y-54416445D02*
X75252493Y-54225969D01*
X75109635Y-54416445D01*
X74490588Y-53987873D02*
X74490588Y-54225969D01*
X74728683Y-54130731D02*
X74490588Y-54225969D01*
X74252493Y-54130731D01*
X74633445Y-54416445D02*
X74490588Y-54225969D01*
X74347731Y-54416445D01*
X9394778Y-98746873D02*
X9394778Y-97746873D01*
X9156683Y-97746873D01*
X9013826Y-97794493D01*
X8918588Y-97889731D01*
X8870969Y-97984969D01*
X8823350Y-98175445D01*
X8823350Y-98318302D01*
X8870969Y-98508778D01*
X8918588Y-98604016D01*
X9013826Y-98699254D01*
X9156683Y-98746873D01*
X9394778Y-98746873D01*
X8490016Y-97746873D02*
X7823350Y-97746873D01*
X8251921Y-98746873D01*
X7251921Y-97746873D02*
X7156683Y-97746873D01*
X7061445Y-97794493D01*
X7013826Y-97842112D01*
X6966207Y-97937350D01*
X6918588Y-98127826D01*
X6918588Y-98365921D01*
X6966207Y-98556397D01*
X7013826Y-98651635D01*
X7061445Y-98699254D01*
X7156683Y-98746873D01*
X7251921Y-98746873D01*
X7347159Y-98699254D01*
X7394778Y-98651635D01*
X7442397Y-98556397D01*
X7490016Y-98365921D01*
X7490016Y-98127826D01*
X7442397Y-97937350D01*
X7394778Y-97842112D01*
X7347159Y-97794493D01*
X7251921Y-97746873D01*
X3744778Y-96846873D02*
X4316207Y-96846873D01*
X4030493Y-96846873D02*
X4030493Y-95846873D01*
X4125731Y-95989731D01*
X4220969Y-96084969D01*
X4316207Y-96132588D01*
X9648778Y-49470873D02*
X9648778Y-48470873D01*
X9410683Y-48470873D01*
X9267826Y-48518493D01*
X9172588Y-48613731D01*
X9124969Y-48708969D01*
X9077350Y-48899445D01*
X9077350Y-49042302D01*
X9124969Y-49232778D01*
X9172588Y-49328016D01*
X9267826Y-49423254D01*
X9410683Y-49470873D01*
X9648778Y-49470873D01*
X8220207Y-48470873D02*
X8410683Y-48470873D01*
X8505921Y-48518493D01*
X8553540Y-48566112D01*
X8648778Y-48708969D01*
X8696397Y-48899445D01*
X8696397Y-49280397D01*
X8648778Y-49375635D01*
X8601159Y-49423254D01*
X8505921Y-49470873D01*
X8315445Y-49470873D01*
X8220207Y-49423254D01*
X8172588Y-49375635D01*
X8124969Y-49280397D01*
X8124969Y-49042302D01*
X8172588Y-48947064D01*
X8220207Y-48899445D01*
X8315445Y-48851826D01*
X8505921Y-48851826D01*
X8601159Y-48899445D01*
X8648778Y-48947064D01*
X8696397Y-49042302D01*
X7648778Y-49470873D02*
X7458302Y-49470873D01*
X7363064Y-49423254D01*
X7315445Y-49375635D01*
X7220207Y-49232778D01*
X7172588Y-49042302D01*
X7172588Y-48661350D01*
X7220207Y-48566112D01*
X7267826Y-48518493D01*
X7363064Y-48470873D01*
X7553540Y-48470873D01*
X7648778Y-48518493D01*
X7696397Y-48566112D01*
X7744016Y-48661350D01*
X7744016Y-48899445D01*
X7696397Y-48994683D01*
X7648778Y-49042302D01*
X7553540Y-49089921D01*
X7363064Y-49089921D01*
X7267826Y-49042302D01*
X7220207Y-48994683D01*
X7172588Y-48899445D01*
X3998778Y-47570873D02*
X4570207Y-47570873D01*
X4284493Y-47570873D02*
X4284493Y-46570873D01*
X4379731Y-46713731D01*
X4474969Y-46808969D01*
X4570207Y-46856588D01*
X8632778Y-141418873D02*
X8632778Y-140418873D01*
X8394683Y-140418873D01*
X8251826Y-140466493D01*
X8156588Y-140561731D01*
X8108969Y-140656969D01*
X8061350Y-140847445D01*
X8061350Y-140990302D01*
X8108969Y-141180778D01*
X8156588Y-141276016D01*
X8251826Y-141371254D01*
X8394683Y-141418873D01*
X8632778Y-141418873D01*
X7204207Y-140418873D02*
X7394683Y-140418873D01*
X7489921Y-140466493D01*
X7537540Y-140514112D01*
X7632778Y-140656969D01*
X7680397Y-140847445D01*
X7680397Y-141228397D01*
X7632778Y-141323635D01*
X7585159Y-141371254D01*
X7489921Y-141418873D01*
X7299445Y-141418873D01*
X7204207Y-141371254D01*
X7156588Y-141323635D01*
X7108969Y-141228397D01*
X7108969Y-140990302D01*
X7156588Y-140895064D01*
X7204207Y-140847445D01*
X7299445Y-140799826D01*
X7489921Y-140799826D01*
X7585159Y-140847445D01*
X7632778Y-140895064D01*
X7680397Y-140990302D01*
X6537540Y-140847445D02*
X6632778Y-140799826D01*
X6680397Y-140752207D01*
X6728016Y-140656969D01*
X6728016Y-140609350D01*
X6680397Y-140514112D01*
X6632778Y-140466493D01*
X6537540Y-140418873D01*
X6347064Y-140418873D01*
X6251826Y-140466493D01*
X6204207Y-140514112D01*
X6156588Y-140609350D01*
X6156588Y-140656969D01*
X6204207Y-140752207D01*
X6251826Y-140799826D01*
X6347064Y-140847445D01*
X6537540Y-140847445D01*
X6632778Y-140895064D01*
X6680397Y-140942683D01*
X6728016Y-141037921D01*
X6728016Y-141228397D01*
X6680397Y-141323635D01*
X6632778Y-141371254D01*
X6537540Y-141418873D01*
X6347064Y-141418873D01*
X6251826Y-141371254D01*
X6204207Y-141323635D01*
X6156588Y-141228397D01*
X6156588Y-141037921D01*
X6204207Y-140942683D01*
X6251826Y-140895064D01*
X6347064Y-140847445D01*
X2982778Y-139518873D02*
X3554207Y-139518873D01*
X3268493Y-139518873D02*
X3268493Y-138518873D01*
X3363731Y-138661731D01*
X3458969Y-138756969D01*
X3554207Y-138804588D01*
X8632778Y-25848873D02*
X8632778Y-24848873D01*
X8394683Y-24848873D01*
X8251826Y-24896493D01*
X8156588Y-24991731D01*
X8108969Y-25086969D01*
X8061350Y-25277445D01*
X8061350Y-25420302D01*
X8108969Y-25610778D01*
X8156588Y-25706016D01*
X8251826Y-25801254D01*
X8394683Y-25848873D01*
X8632778Y-25848873D01*
X7204207Y-24848873D02*
X7394683Y-24848873D01*
X7489921Y-24896493D01*
X7537540Y-24944112D01*
X7632778Y-25086969D01*
X7680397Y-25277445D01*
X7680397Y-25658397D01*
X7632778Y-25753635D01*
X7585159Y-25801254D01*
X7489921Y-25848873D01*
X7299445Y-25848873D01*
X7204207Y-25801254D01*
X7156588Y-25753635D01*
X7108969Y-25658397D01*
X7108969Y-25420302D01*
X7156588Y-25325064D01*
X7204207Y-25277445D01*
X7299445Y-25229826D01*
X7489921Y-25229826D01*
X7585159Y-25277445D01*
X7632778Y-25325064D01*
X7680397Y-25420302D01*
X6775635Y-24848873D02*
X6108969Y-24848873D01*
X6537540Y-25848873D01*
X2982778Y-23948873D02*
X3554207Y-23948873D01*
X3268493Y-23948873D02*
X3268493Y-22948873D01*
X3363731Y-23091731D01*
X3458969Y-23186969D01*
X3554207Y-23234588D01*
X76958778Y-49978873D02*
X76958778Y-48978873D01*
X76720683Y-48978873D01*
X76577826Y-49026493D01*
X76482588Y-49121731D01*
X76434969Y-49216969D01*
X76387350Y-49407445D01*
X76387350Y-49550302D01*
X76434969Y-49740778D01*
X76482588Y-49836016D01*
X76577826Y-49931254D01*
X76720683Y-49978873D01*
X76958778Y-49978873D01*
X75530207Y-48978873D02*
X75720683Y-48978873D01*
X75815921Y-49026493D01*
X75863540Y-49074112D01*
X75958778Y-49216969D01*
X76006397Y-49407445D01*
X76006397Y-49788397D01*
X75958778Y-49883635D01*
X75911159Y-49931254D01*
X75815921Y-49978873D01*
X75625445Y-49978873D01*
X75530207Y-49931254D01*
X75482588Y-49883635D01*
X75434969Y-49788397D01*
X75434969Y-49550302D01*
X75482588Y-49455064D01*
X75530207Y-49407445D01*
X75625445Y-49359826D01*
X75815921Y-49359826D01*
X75911159Y-49407445D01*
X75958778Y-49455064D01*
X76006397Y-49550302D01*
X74577826Y-48978873D02*
X74768302Y-48978873D01*
X74863540Y-49026493D01*
X74911159Y-49074112D01*
X75006397Y-49216969D01*
X75054016Y-49407445D01*
X75054016Y-49788397D01*
X75006397Y-49883635D01*
X74958778Y-49931254D01*
X74863540Y-49978873D01*
X74673064Y-49978873D01*
X74577826Y-49931254D01*
X74530207Y-49883635D01*
X74482588Y-49788397D01*
X74482588Y-49550302D01*
X74530207Y-49455064D01*
X74577826Y-49407445D01*
X74673064Y-49359826D01*
X74863540Y-49359826D01*
X74958778Y-49407445D01*
X75006397Y-49455064D01*
X75054016Y-49550302D01*
X71308778Y-48078873D02*
X71880207Y-48078873D01*
X71594493Y-48078873D02*
X71594493Y-47078873D01*
X71689731Y-47221731D01*
X71784969Y-47316969D01*
X71880207Y-47364588D01*
X37588778Y-172406873D02*
X37588778Y-171406873D01*
X37350683Y-171406873D01*
X37207826Y-171454493D01*
X37112588Y-171549731D01*
X37064969Y-171644969D01*
X37017350Y-171835445D01*
X37017350Y-171978302D01*
X37064969Y-172168778D01*
X37112588Y-172264016D01*
X37207826Y-172359254D01*
X37350683Y-172406873D01*
X37588778Y-172406873D01*
X36160207Y-171406873D02*
X36350683Y-171406873D01*
X36445921Y-171454493D01*
X36493540Y-171502112D01*
X36588778Y-171644969D01*
X36636397Y-171835445D01*
X36636397Y-172216397D01*
X36588778Y-172311635D01*
X36541159Y-172359254D01*
X36445921Y-172406873D01*
X36255445Y-172406873D01*
X36160207Y-172359254D01*
X36112588Y-172311635D01*
X36064969Y-172216397D01*
X36064969Y-171978302D01*
X36112588Y-171883064D01*
X36160207Y-171835445D01*
X36255445Y-171787826D01*
X36445921Y-171787826D01*
X36541159Y-171835445D01*
X36588778Y-171883064D01*
X36636397Y-171978302D01*
X35160207Y-171406873D02*
X35636397Y-171406873D01*
X35684016Y-171883064D01*
X35636397Y-171835445D01*
X35541159Y-171787826D01*
X35303064Y-171787826D01*
X35207826Y-171835445D01*
X35160207Y-171883064D01*
X35112588Y-171978302D01*
X35112588Y-172216397D01*
X35160207Y-172311635D01*
X35207826Y-172359254D01*
X35303064Y-172406873D01*
X35541159Y-172406873D01*
X35636397Y-172359254D01*
X35684016Y-172311635D01*
X31938778Y-170506873D02*
X32510207Y-170506873D01*
X32224493Y-170506873D02*
X32224493Y-169506873D01*
X32319731Y-169649731D01*
X32414969Y-169744969D01*
X32510207Y-169792588D01*
X76450778Y-101032873D02*
X76450778Y-100032873D01*
X76212683Y-100032873D01*
X76069826Y-100080493D01*
X75974588Y-100175731D01*
X75926969Y-100270969D01*
X75879350Y-100461445D01*
X75879350Y-100604302D01*
X75926969Y-100794778D01*
X75974588Y-100890016D01*
X76069826Y-100985254D01*
X76212683Y-101032873D01*
X76450778Y-101032873D01*
X75022207Y-100032873D02*
X75212683Y-100032873D01*
X75307921Y-100080493D01*
X75355540Y-100128112D01*
X75450778Y-100270969D01*
X75498397Y-100461445D01*
X75498397Y-100842397D01*
X75450778Y-100937635D01*
X75403159Y-100985254D01*
X75307921Y-101032873D01*
X75117445Y-101032873D01*
X75022207Y-100985254D01*
X74974588Y-100937635D01*
X74926969Y-100842397D01*
X74926969Y-100604302D01*
X74974588Y-100509064D01*
X75022207Y-100461445D01*
X75117445Y-100413826D01*
X75307921Y-100413826D01*
X75403159Y-100461445D01*
X75450778Y-100509064D01*
X75498397Y-100604302D01*
X74069826Y-100366207D02*
X74069826Y-101032873D01*
X74307921Y-99985254D02*
X74546016Y-100699540D01*
X73926969Y-100699540D01*
X70800778Y-99132873D02*
X71372207Y-99132873D01*
X71086493Y-99132873D02*
X71086493Y-98132873D01*
X71181731Y-98275731D01*
X71276969Y-98370969D01*
X71372207Y-98418588D01*
X80006778Y-142434873D02*
X80006778Y-141434873D01*
X79768683Y-141434873D01*
X79625826Y-141482493D01*
X79530588Y-141577731D01*
X79482969Y-141672969D01*
X79435350Y-141863445D01*
X79435350Y-142006302D01*
X79482969Y-142196778D01*
X79530588Y-142292016D01*
X79625826Y-142387254D01*
X79768683Y-142434873D01*
X80006778Y-142434873D01*
X78578207Y-141434873D02*
X78768683Y-141434873D01*
X78863921Y-141482493D01*
X78911540Y-141530112D01*
X79006778Y-141672969D01*
X79054397Y-141863445D01*
X79054397Y-142244397D01*
X79006778Y-142339635D01*
X78959159Y-142387254D01*
X78863921Y-142434873D01*
X78673445Y-142434873D01*
X78578207Y-142387254D01*
X78530588Y-142339635D01*
X78482969Y-142244397D01*
X78482969Y-142006302D01*
X78530588Y-141911064D01*
X78578207Y-141863445D01*
X78673445Y-141815826D01*
X78863921Y-141815826D01*
X78959159Y-141863445D01*
X79006778Y-141911064D01*
X79054397Y-142006302D01*
X78149635Y-141434873D02*
X77530588Y-141434873D01*
X77863921Y-141815826D01*
X77721064Y-141815826D01*
X77625826Y-141863445D01*
X77578207Y-141911064D01*
X77530588Y-142006302D01*
X77530588Y-142244397D01*
X77578207Y-142339635D01*
X77625826Y-142387254D01*
X77721064Y-142434873D01*
X78006778Y-142434873D01*
X78102016Y-142387254D01*
X78149635Y-142339635D01*
X74356778Y-140534873D02*
X74928207Y-140534873D01*
X74642493Y-140534873D02*
X74642493Y-139534873D01*
X74737731Y-139677731D01*
X74832969Y-139772969D01*
X74928207Y-139820588D01*
X77858873Y-65291397D02*
X77858873Y-64491397D01*
X77668397Y-64491397D01*
X77554112Y-64529493D01*
X77477921Y-64605683D01*
X77439826Y-64681873D01*
X77401731Y-64834254D01*
X77401731Y-64948540D01*
X77439826Y-65100921D01*
X77477921Y-65177112D01*
X77554112Y-65253302D01*
X77668397Y-65291397D01*
X77858873Y-65291397D01*
X76639826Y-65291397D02*
X77096969Y-65291397D01*
X76868397Y-65291397D02*
X76868397Y-64491397D01*
X76944588Y-64605683D01*
X77020778Y-64681873D01*
X77096969Y-64719969D01*
X76335064Y-64567588D02*
X76296969Y-64529493D01*
X76220778Y-64491397D01*
X76030302Y-64491397D01*
X75954112Y-64529493D01*
X75916016Y-64567588D01*
X75877921Y-64643778D01*
X75877921Y-64719969D01*
X75916016Y-64834254D01*
X76373159Y-65291397D01*
X75877921Y-65291397D01*
X75382683Y-64491397D02*
X75306493Y-64491397D01*
X75230302Y-64529493D01*
X75192207Y-64567588D01*
X75154112Y-64643778D01*
X75116016Y-64796159D01*
X75116016Y-64986635D01*
X75154112Y-65139016D01*
X75192207Y-65215207D01*
X75230302Y-65253302D01*
X75306493Y-65291397D01*
X75382683Y-65291397D01*
X75458873Y-65253302D01*
X75496969Y-65215207D01*
X75535064Y-65139016D01*
X75573159Y-64986635D01*
X75573159Y-64796159D01*
X75535064Y-64643778D01*
X75496969Y-64567588D01*
X75458873Y-64529493D01*
X75382683Y-64491397D01*
X54998873Y-65291397D02*
X54998873Y-64491397D01*
X54808397Y-64491397D01*
X54694112Y-64529493D01*
X54617921Y-64605683D01*
X54579826Y-64681873D01*
X54541731Y-64834254D01*
X54541731Y-64948540D01*
X54579826Y-65100921D01*
X54617921Y-65177112D01*
X54694112Y-65253302D01*
X54808397Y-65291397D01*
X54998873Y-65291397D01*
X53779826Y-65291397D02*
X54236969Y-65291397D01*
X54008397Y-65291397D02*
X54008397Y-64491397D01*
X54084588Y-64605683D01*
X54160778Y-64681873D01*
X54236969Y-64719969D01*
X53017921Y-65291397D02*
X53475064Y-65291397D01*
X53246493Y-65291397D02*
X53246493Y-64491397D01*
X53322683Y-64605683D01*
X53398873Y-64681873D01*
X53475064Y-64719969D01*
X52636969Y-65291397D02*
X52484588Y-65291397D01*
X52408397Y-65253302D01*
X52370302Y-65215207D01*
X52294112Y-65100921D01*
X52256016Y-64948540D01*
X52256016Y-64643778D01*
X52294112Y-64567588D01*
X52332207Y-64529493D01*
X52408397Y-64491397D01*
X52560778Y-64491397D01*
X52636969Y-64529493D01*
X52675064Y-64567588D01*
X52713159Y-64643778D01*
X52713159Y-64834254D01*
X52675064Y-64910445D01*
X52636969Y-64948540D01*
X52560778Y-64986635D01*
X52408397Y-64986635D01*
X52332207Y-64948540D01*
X52294112Y-64910445D01*
X52256016Y-64834254D01*
X33027921Y-65291397D02*
X33027921Y-64491397D01*
X32837445Y-64491397D01*
X32723159Y-64529493D01*
X32646969Y-64605683D01*
X32608873Y-64681873D01*
X32570778Y-64834254D01*
X32570778Y-64948540D01*
X32608873Y-65100921D01*
X32646969Y-65177112D01*
X32723159Y-65253302D01*
X32837445Y-65291397D01*
X33027921Y-65291397D01*
X31808873Y-65291397D02*
X32266016Y-65291397D01*
X32037445Y-65291397D02*
X32037445Y-64491397D01*
X32113635Y-64605683D01*
X32189826Y-64681873D01*
X32266016Y-64719969D01*
X31427921Y-65291397D02*
X31275540Y-65291397D01*
X31199350Y-65253302D01*
X31161254Y-65215207D01*
X31085064Y-65100921D01*
X31046969Y-64948540D01*
X31046969Y-64643778D01*
X31085064Y-64567588D01*
X31123159Y-64529493D01*
X31199350Y-64491397D01*
X31351731Y-64491397D01*
X31427921Y-64529493D01*
X31466016Y-64567588D01*
X31504112Y-64643778D01*
X31504112Y-64834254D01*
X31466016Y-64910445D01*
X31427921Y-64948540D01*
X31351731Y-64986635D01*
X31199350Y-64986635D01*
X31123159Y-64948540D01*
X31085064Y-64910445D01*
X31046969Y-64834254D01*
X11183921Y-65291397D02*
X11183921Y-64491397D01*
X10993445Y-64491397D01*
X10879159Y-64529493D01*
X10802969Y-64605683D01*
X10764873Y-64681873D01*
X10726778Y-64834254D01*
X10726778Y-64948540D01*
X10764873Y-65100921D01*
X10802969Y-65177112D01*
X10879159Y-65253302D01*
X10993445Y-65291397D01*
X11183921Y-65291397D01*
X9964873Y-65291397D02*
X10422016Y-65291397D01*
X10193445Y-65291397D02*
X10193445Y-64491397D01*
X10269635Y-64605683D01*
X10345826Y-64681873D01*
X10422016Y-64719969D01*
X9507731Y-64834254D02*
X9583921Y-64796159D01*
X9622016Y-64758064D01*
X9660112Y-64681873D01*
X9660112Y-64643778D01*
X9622016Y-64567588D01*
X9583921Y-64529493D01*
X9507731Y-64491397D01*
X9355350Y-64491397D01*
X9279159Y-64529493D01*
X9241064Y-64567588D01*
X9202969Y-64643778D01*
X9202969Y-64681873D01*
X9241064Y-64758064D01*
X9279159Y-64796159D01*
X9355350Y-64834254D01*
X9507731Y-64834254D01*
X9583921Y-64872350D01*
X9622016Y-64910445D01*
X9660112Y-64986635D01*
X9660112Y-65139016D01*
X9622016Y-65215207D01*
X9583921Y-65253302D01*
X9507731Y-65291397D01*
X9355350Y-65291397D01*
X9279159Y-65253302D01*
X9241064Y-65215207D01*
X9202969Y-65139016D01*
X9202969Y-64986635D01*
X9241064Y-64910445D01*
X9279159Y-64872350D01*
X9355350Y-64834254D01*
X10802969Y-86881397D02*
X10802969Y-86081397D01*
X10612493Y-86081397D01*
X10498207Y-86119493D01*
X10422016Y-86195683D01*
X10383921Y-86271873D01*
X10345826Y-86424254D01*
X10345826Y-86538540D01*
X10383921Y-86690921D01*
X10422016Y-86767112D01*
X10498207Y-86843302D01*
X10612493Y-86881397D01*
X10802969Y-86881397D01*
X9583921Y-86881397D02*
X10041064Y-86881397D01*
X9812493Y-86881397D02*
X9812493Y-86081397D01*
X9888683Y-86195683D01*
X9964873Y-86271873D01*
X10041064Y-86309969D01*
X32646969Y-86881397D02*
X32646969Y-86081397D01*
X32456493Y-86081397D01*
X32342207Y-86119493D01*
X32266016Y-86195683D01*
X32227921Y-86271873D01*
X32189826Y-86424254D01*
X32189826Y-86538540D01*
X32227921Y-86690921D01*
X32266016Y-86767112D01*
X32342207Y-86843302D01*
X32456493Y-86881397D01*
X32646969Y-86881397D01*
X31885064Y-86157588D02*
X31846969Y-86119493D01*
X31770778Y-86081397D01*
X31580302Y-86081397D01*
X31504112Y-86119493D01*
X31466016Y-86157588D01*
X31427921Y-86233778D01*
X31427921Y-86309969D01*
X31466016Y-86424254D01*
X31923159Y-86881397D01*
X31427921Y-86881397D01*
X54236969Y-86881397D02*
X54236969Y-86081397D01*
X54046493Y-86081397D01*
X53932207Y-86119493D01*
X53856016Y-86195683D01*
X53817921Y-86271873D01*
X53779826Y-86424254D01*
X53779826Y-86538540D01*
X53817921Y-86690921D01*
X53856016Y-86767112D01*
X53932207Y-86843302D01*
X54046493Y-86881397D01*
X54236969Y-86881397D01*
X53513159Y-86081397D02*
X53017921Y-86081397D01*
X53284588Y-86386159D01*
X53170302Y-86386159D01*
X53094112Y-86424254D01*
X53056016Y-86462350D01*
X53017921Y-86538540D01*
X53017921Y-86729016D01*
X53056016Y-86805207D01*
X53094112Y-86843302D01*
X53170302Y-86881397D01*
X53398873Y-86881397D01*
X53475064Y-86843302D01*
X53513159Y-86805207D01*
X76588969Y-86881397D02*
X76588969Y-86081397D01*
X76398493Y-86081397D01*
X76284207Y-86119493D01*
X76208016Y-86195683D01*
X76169921Y-86271873D01*
X76131826Y-86424254D01*
X76131826Y-86538540D01*
X76169921Y-86690921D01*
X76208016Y-86767112D01*
X76284207Y-86843302D01*
X76398493Y-86881397D01*
X76588969Y-86881397D01*
X75446112Y-86348064D02*
X75446112Y-86881397D01*
X75636588Y-86043302D02*
X75827064Y-86614731D01*
X75331826Y-86614731D01*
X10802969Y-108217397D02*
X10802969Y-107417397D01*
X10612493Y-107417397D01*
X10498207Y-107455493D01*
X10422016Y-107531683D01*
X10383921Y-107607873D01*
X10345826Y-107760254D01*
X10345826Y-107874540D01*
X10383921Y-108026921D01*
X10422016Y-108103112D01*
X10498207Y-108179302D01*
X10612493Y-108217397D01*
X10802969Y-108217397D01*
X9622016Y-107417397D02*
X10002969Y-107417397D01*
X10041064Y-107798350D01*
X10002969Y-107760254D01*
X9926778Y-107722159D01*
X9736302Y-107722159D01*
X9660112Y-107760254D01*
X9622016Y-107798350D01*
X9583921Y-107874540D01*
X9583921Y-108065016D01*
X9622016Y-108141207D01*
X9660112Y-108179302D01*
X9736302Y-108217397D01*
X9926778Y-108217397D01*
X10002969Y-108179302D01*
X10041064Y-108141207D01*
X32392969Y-108217397D02*
X32392969Y-107417397D01*
X32202493Y-107417397D01*
X32088207Y-107455493D01*
X32012016Y-107531683D01*
X31973921Y-107607873D01*
X31935826Y-107760254D01*
X31935826Y-107874540D01*
X31973921Y-108026921D01*
X32012016Y-108103112D01*
X32088207Y-108179302D01*
X32202493Y-108217397D01*
X32392969Y-108217397D01*
X31250112Y-107417397D02*
X31402493Y-107417397D01*
X31478683Y-107455493D01*
X31516778Y-107493588D01*
X31592969Y-107607873D01*
X31631064Y-107760254D01*
X31631064Y-108065016D01*
X31592969Y-108141207D01*
X31554873Y-108179302D01*
X31478683Y-108217397D01*
X31326302Y-108217397D01*
X31250112Y-108179302D01*
X31212016Y-108141207D01*
X31173921Y-108065016D01*
X31173921Y-107874540D01*
X31212016Y-107798350D01*
X31250112Y-107760254D01*
X31326302Y-107722159D01*
X31478683Y-107722159D01*
X31554873Y-107760254D01*
X31592969Y-107798350D01*
X31631064Y-107874540D01*
X54236969Y-108217397D02*
X54236969Y-107417397D01*
X54046493Y-107417397D01*
X53932207Y-107455493D01*
X53856016Y-107531683D01*
X53817921Y-107607873D01*
X53779826Y-107760254D01*
X53779826Y-107874540D01*
X53817921Y-108026921D01*
X53856016Y-108103112D01*
X53932207Y-108179302D01*
X54046493Y-108217397D01*
X54236969Y-108217397D01*
X53513159Y-107417397D02*
X52979826Y-107417397D01*
X53322683Y-108217397D01*
X10802969Y-129299397D02*
X10802969Y-128499397D01*
X10612493Y-128499397D01*
X10498207Y-128537493D01*
X10422016Y-128613683D01*
X10383921Y-128689873D01*
X10345826Y-128842254D01*
X10345826Y-128956540D01*
X10383921Y-129108921D01*
X10422016Y-129185112D01*
X10498207Y-129261302D01*
X10612493Y-129299397D01*
X10802969Y-129299397D01*
X9888683Y-128842254D02*
X9964873Y-128804159D01*
X10002969Y-128766064D01*
X10041064Y-128689873D01*
X10041064Y-128651778D01*
X10002969Y-128575588D01*
X9964873Y-128537493D01*
X9888683Y-128499397D01*
X9736302Y-128499397D01*
X9660112Y-128537493D01*
X9622016Y-128575588D01*
X9583921Y-128651778D01*
X9583921Y-128689873D01*
X9622016Y-128766064D01*
X9660112Y-128804159D01*
X9736302Y-128842254D01*
X9888683Y-128842254D01*
X9964873Y-128880350D01*
X10002969Y-128918445D01*
X10041064Y-128994635D01*
X10041064Y-129147016D01*
X10002969Y-129223207D01*
X9964873Y-129261302D01*
X9888683Y-129299397D01*
X9736302Y-129299397D01*
X9660112Y-129261302D01*
X9622016Y-129223207D01*
X9583921Y-129147016D01*
X9583921Y-128994635D01*
X9622016Y-128918445D01*
X9660112Y-128880350D01*
X9736302Y-128842254D01*
X32392969Y-129553397D02*
X32392969Y-128753397D01*
X32202493Y-128753397D01*
X32088207Y-128791493D01*
X32012016Y-128867683D01*
X31973921Y-128943873D01*
X31935826Y-129096254D01*
X31935826Y-129210540D01*
X31973921Y-129362921D01*
X32012016Y-129439112D01*
X32088207Y-129515302D01*
X32202493Y-129553397D01*
X32392969Y-129553397D01*
X31554873Y-129553397D02*
X31402493Y-129553397D01*
X31326302Y-129515302D01*
X31288207Y-129477207D01*
X31212016Y-129362921D01*
X31173921Y-129210540D01*
X31173921Y-128905778D01*
X31212016Y-128829588D01*
X31250112Y-128791493D01*
X31326302Y-128753397D01*
X31478683Y-128753397D01*
X31554873Y-128791493D01*
X31592969Y-128829588D01*
X31631064Y-128905778D01*
X31631064Y-129096254D01*
X31592969Y-129172445D01*
X31554873Y-129210540D01*
X31478683Y-129248635D01*
X31326302Y-129248635D01*
X31250112Y-129210540D01*
X31212016Y-129172445D01*
X31173921Y-129096254D01*
X54617921Y-129553397D02*
X54617921Y-128753397D01*
X54427445Y-128753397D01*
X54313159Y-128791493D01*
X54236969Y-128867683D01*
X54198873Y-128943873D01*
X54160778Y-129096254D01*
X54160778Y-129210540D01*
X54198873Y-129362921D01*
X54236969Y-129439112D01*
X54313159Y-129515302D01*
X54427445Y-129553397D01*
X54617921Y-129553397D01*
X53398873Y-129553397D02*
X53856016Y-129553397D01*
X53627445Y-129553397D02*
X53627445Y-128753397D01*
X53703635Y-128867683D01*
X53779826Y-128943873D01*
X53856016Y-128981969D01*
X52903635Y-128753397D02*
X52827445Y-128753397D01*
X52751254Y-128791493D01*
X52713159Y-128829588D01*
X52675064Y-128905778D01*
X52636969Y-129058159D01*
X52636969Y-129248635D01*
X52675064Y-129401016D01*
X52713159Y-129477207D01*
X52751254Y-129515302D01*
X52827445Y-129553397D01*
X52903635Y-129553397D01*
X52979826Y-129515302D01*
X53017921Y-129477207D01*
X53056016Y-129401016D01*
X53094112Y-129248635D01*
X53094112Y-129058159D01*
X53056016Y-128905778D01*
X53017921Y-128829588D01*
X52979826Y-128791493D01*
X52903635Y-128753397D01*
X74221397Y-115921064D02*
X73421397Y-115921064D01*
X73421397Y-116111540D01*
X73459493Y-116225826D01*
X73535683Y-116302016D01*
X73611873Y-116340112D01*
X73764254Y-116378207D01*
X73878540Y-116378207D01*
X74030921Y-116340112D01*
X74107112Y-116302016D01*
X74183302Y-116225826D01*
X74221397Y-116111540D01*
X74221397Y-115921064D01*
X74221397Y-117140112D02*
X74221397Y-116682969D01*
X74221397Y-116911540D02*
X73421397Y-116911540D01*
X73535683Y-116835350D01*
X73611873Y-116759159D01*
X73649969Y-116682969D01*
X74221397Y-117902016D02*
X74221397Y-117444873D01*
X74221397Y-117673445D02*
X73421397Y-117673445D01*
X73535683Y-117597254D01*
X73611873Y-117521064D01*
X73649969Y-117444873D01*
X11183921Y-150889397D02*
X11183921Y-150089397D01*
X10993445Y-150089397D01*
X10879159Y-150127493D01*
X10802969Y-150203683D01*
X10764873Y-150279873D01*
X10726778Y-150432254D01*
X10726778Y-150546540D01*
X10764873Y-150698921D01*
X10802969Y-150775112D01*
X10879159Y-150851302D01*
X10993445Y-150889397D01*
X11183921Y-150889397D01*
X9964873Y-150889397D02*
X10422016Y-150889397D01*
X10193445Y-150889397D02*
X10193445Y-150089397D01*
X10269635Y-150203683D01*
X10345826Y-150279873D01*
X10422016Y-150317969D01*
X9660112Y-150165588D02*
X9622016Y-150127493D01*
X9545826Y-150089397D01*
X9355350Y-150089397D01*
X9279159Y-150127493D01*
X9241064Y-150165588D01*
X9202969Y-150241778D01*
X9202969Y-150317969D01*
X9241064Y-150432254D01*
X9698207Y-150889397D01*
X9202969Y-150889397D01*
X33027921Y-150889397D02*
X33027921Y-150089397D01*
X32837445Y-150089397D01*
X32723159Y-150127493D01*
X32646969Y-150203683D01*
X32608873Y-150279873D01*
X32570778Y-150432254D01*
X32570778Y-150546540D01*
X32608873Y-150698921D01*
X32646969Y-150775112D01*
X32723159Y-150851302D01*
X32837445Y-150889397D01*
X33027921Y-150889397D01*
X31808873Y-150889397D02*
X32266016Y-150889397D01*
X32037445Y-150889397D02*
X32037445Y-150089397D01*
X32113635Y-150203683D01*
X32189826Y-150279873D01*
X32266016Y-150317969D01*
X31542207Y-150089397D02*
X31046969Y-150089397D01*
X31313635Y-150394159D01*
X31199350Y-150394159D01*
X31123159Y-150432254D01*
X31085064Y-150470350D01*
X31046969Y-150546540D01*
X31046969Y-150737016D01*
X31085064Y-150813207D01*
X31123159Y-150851302D01*
X31199350Y-150889397D01*
X31427921Y-150889397D01*
X31504112Y-150851302D01*
X31542207Y-150813207D01*
X54363921Y-150889397D02*
X54363921Y-150089397D01*
X54173445Y-150089397D01*
X54059159Y-150127493D01*
X53982969Y-150203683D01*
X53944873Y-150279873D01*
X53906778Y-150432254D01*
X53906778Y-150546540D01*
X53944873Y-150698921D01*
X53982969Y-150775112D01*
X54059159Y-150851302D01*
X54173445Y-150889397D01*
X54363921Y-150889397D01*
X53144873Y-150889397D02*
X53602016Y-150889397D01*
X53373445Y-150889397D02*
X53373445Y-150089397D01*
X53449635Y-150203683D01*
X53525826Y-150279873D01*
X53602016Y-150317969D01*
X52459159Y-150356064D02*
X52459159Y-150889397D01*
X52649635Y-150051302D02*
X52840112Y-150622731D01*
X52344873Y-150622731D01*
X21089921Y-172225397D02*
X21089921Y-171425397D01*
X20899445Y-171425397D01*
X20785159Y-171463493D01*
X20708969Y-171539683D01*
X20670873Y-171615873D01*
X20632778Y-171768254D01*
X20632778Y-171882540D01*
X20670873Y-172034921D01*
X20708969Y-172111112D01*
X20785159Y-172187302D01*
X20899445Y-172225397D01*
X21089921Y-172225397D01*
X19870873Y-172225397D02*
X20328016Y-172225397D01*
X20099445Y-172225397D02*
X20099445Y-171425397D01*
X20175635Y-171539683D01*
X20251826Y-171615873D01*
X20328016Y-171653969D01*
X19147064Y-171425397D02*
X19528016Y-171425397D01*
X19566112Y-171806350D01*
X19528016Y-171768254D01*
X19451826Y-171730159D01*
X19261350Y-171730159D01*
X19185159Y-171768254D01*
X19147064Y-171806350D01*
X19108969Y-171882540D01*
X19108969Y-172073016D01*
X19147064Y-172149207D01*
X19185159Y-172187302D01*
X19261350Y-172225397D01*
X19451826Y-172225397D01*
X19528016Y-172187302D01*
X19566112Y-172149207D01*
X54617921Y-172225397D02*
X54617921Y-171425397D01*
X54427445Y-171425397D01*
X54313159Y-171463493D01*
X54236969Y-171539683D01*
X54198873Y-171615873D01*
X54160778Y-171768254D01*
X54160778Y-171882540D01*
X54198873Y-172034921D01*
X54236969Y-172111112D01*
X54313159Y-172187302D01*
X54427445Y-172225397D01*
X54617921Y-172225397D01*
X53398873Y-172225397D02*
X53856016Y-172225397D01*
X53627445Y-172225397D02*
X53627445Y-171425397D01*
X53703635Y-171539683D01*
X53779826Y-171615873D01*
X53856016Y-171653969D01*
X52713159Y-171425397D02*
X52865540Y-171425397D01*
X52941731Y-171463493D01*
X52979826Y-171501588D01*
X53056016Y-171615873D01*
X53094112Y-171768254D01*
X53094112Y-172073016D01*
X53056016Y-172149207D01*
X53017921Y-172187302D01*
X52941731Y-172225397D01*
X52789350Y-172225397D01*
X52713159Y-172187302D01*
X52675064Y-172149207D01*
X52636969Y-172073016D01*
X52636969Y-171882540D01*
X52675064Y-171806350D01*
X52713159Y-171768254D01*
X52789350Y-171730159D01*
X52941731Y-171730159D01*
X53017921Y-171768254D01*
X53056016Y-171806350D01*
X53094112Y-171882540D01*
X73967397Y-159609064D02*
X73167397Y-159609064D01*
X73167397Y-159799540D01*
X73205493Y-159913826D01*
X73281683Y-159990016D01*
X73357873Y-160028112D01*
X73510254Y-160066207D01*
X73624540Y-160066207D01*
X73776921Y-160028112D01*
X73853112Y-159990016D01*
X73929302Y-159913826D01*
X73967397Y-159799540D01*
X73967397Y-159609064D01*
X73967397Y-160828112D02*
X73967397Y-160370969D01*
X73967397Y-160599540D02*
X73167397Y-160599540D01*
X73281683Y-160523350D01*
X73357873Y-160447159D01*
X73395969Y-160370969D01*
X73167397Y-161094778D02*
X73167397Y-161628112D01*
X73967397Y-161285254D01*
M02*
