M48
; DRILL file {KiCad (5.1.6)-1} date 06/08/20 17:19:36
; FORMAT={-:-/ absolute / inch / decimal}
; #@! TF.CreationDate,2020-06-08T17:19:36+12:00
; #@! TF.GenerationSoftware,Kicad,Pcbnew,(5.1.6)-1
; #@! TF.FileFunction,Plated,1,2,PTH
FMAT,2
INCH
T1C0.0157
T2C0.0236
T3C0.0276
T4C0.0315
T5C0.0354
T6C0.0394
%
G90
G05
T1
X0.1021Y-3.7621
X0.1721Y-1.7921
X0.1721Y-3.7921
X0.2221Y-1.9121
X0.2421Y-5.4321
X0.3921Y-2.8221
X0.3921Y-4.4821
X0.5521Y-6.1821
X0.9021Y-2.7021
X0.9021Y-3.5521
X0.9121Y-4.3821
X0.9221Y-5.2321
X0.9421Y-2.1221
X0.9921Y-4.3821
X1.0021Y-3.5521
X1.0021Y-5.2321
X1.0421Y-2.1221
X1.2421Y-3.6721
X1.2721Y-2.9521
X1.4321Y-4.6321
X1.4371Y-0.7971
X1.4421Y-0.7021
X1.4421Y-6.6921
X1.4721Y-5.5321
X1.5121Y-5.4521
X1.6321Y-3.6421
X1.6621Y-5.2321
X1.7421Y-0.9021
X1.7421Y-5.5321
X1.7521Y-4.1521
X1.7621Y-2.7021
X1.7621Y-3.5521
X1.7721Y-4.3821
X1.7721Y-5.2321
X1.7721Y-6.0521
X1.8521Y-2.7021
X1.8521Y-5.2321
X1.8521Y-6.0521
X1.8621Y-4.3821
X1.9221Y-6.3921
X2.0921Y-3.6721
X2.1121Y-4.6921
X2.2921Y-6.3121
X2.3021Y-2.9521
X2.3021Y-4.6321
X2.337Y-2.0672
X2.3621Y-0.3021
X2.4721Y-5.1821
X2.4721Y-5.2821
X2.4851Y-4.1121
X2.4921Y-2.6321
X2.4921Y-5.6121
X2.5821Y-4.8321
X2.6121Y-3.5521
X2.6521Y-2.7021
X2.6621Y-4.6021
X2.6921Y-3.9721
X2.7421Y-3.5521
X2.7521Y-2.7021
X2.7621Y-0.2621
X2.8021Y-3.6521
X2.8721Y-4.2921
X2.9121Y-3.6221
X3.0021Y-5.5721
X3.0121Y-4.9321
X3.0621Y-3.9421
X3.0721Y-1.3621
X3.1421Y-2.1021
X3.1421Y-3.8321
X3.2021Y-0.6721
X3.2021Y-0.8521
X3.2021Y-0.9521
X3.2021Y-5.4521
X3.2121Y-1.0421
X3.2121Y-1.3521
X3.2821Y-5.3921
T2
X2.653Y-0.5521
X2.7121Y-0.5521
T3
X1.1085Y-3.4821
X1.4156Y-3.4821
X1.1085Y-2.6321
X1.4156Y-2.6321
X0.2485Y-5.1521
X0.5556Y-5.1521
X2.4385Y-0.6921
X2.7456Y-0.6921
X0.2485Y-2.6321
X0.5556Y-2.6321
X1.9585Y-3.4821
X2.2656Y-3.4821
X1.9585Y-4.3221
X2.2656Y-4.3221
X1.9585Y-6.8421
X2.2656Y-6.8421
X2.1621Y-0.1421
X2.1621Y-0.3421
X1.9485Y-6.0021
X2.2556Y-6.0021
X0.2485Y-6.0021
X0.5556Y-6.0021
X0.2485Y-3.4821
X0.5556Y-3.4821
X2.8221Y-6.1685
X2.8221Y-6.4756
X2.8385Y-3.4821
X3.1456Y-3.4821
X1.0985Y-4.3221
X1.4056Y-4.3221
X1.9585Y-2.6321
X2.2656Y-2.6321
X2.8321Y-4.4485
X2.8321Y-4.7556
X0.6385Y-6.8421
X0.9456Y-6.8421
X0.2485Y-4.3221
X0.5556Y-4.3221
X1.1085Y-6.0021
X1.4156Y-6.0021
X2.8585Y-2.6321
X3.1656Y-2.6321
X1.9585Y-5.1621
X2.2656Y-5.1621
X1.0985Y-5.1621
X1.4056Y-5.1621
X2.8321Y-0.2485
X2.8321Y-0.5556
T4
X2.4221Y-0.1652
X2.4221Y-0.3621
X2.9721Y-0.4121
X2.9721Y-0.6089
X3.3121Y-0.0621
X3.3121Y-0.2589
X2.5321Y-0.3021
X2.5321Y-0.6021
T5
X2.6052Y-0.0421
X2.6052Y-0.1721
X2.7036Y-0.0421
X2.7036Y-0.1721
X2.8021Y-0.0421
X2.8021Y-0.1721
T6
X3.3021Y-0.4021
X3.3021Y-0.5021
X3.3021Y-0.6021
X3.3021Y-0.7021
X3.3021Y-0.8021
X3.3021Y-0.9021
X3.3021Y-1.0021
X3.3021Y-1.1021
X3.3021Y-1.2021
X3.3021Y-1.3021
X3.3021Y-1.4021
X3.3021Y-1.5021
X3.3021Y-1.6021
X3.3021Y-1.7021
X0.4421Y-1.2121
X0.5421Y-1.2121
X0.6421Y-1.2121
X0.7421Y-1.2121
X0.8421Y-1.2121
X0.9421Y-1.2121
X1.0421Y-1.2121
X1.1421Y-1.2121
X1.2421Y-1.2121
X1.3421Y-1.2121
X1.4421Y-1.2121
X1.5421Y-1.2121
X1.6421Y-1.2121
X1.7421Y-1.2121
X1.8421Y-1.2121
X3.0136Y-0.0821
X3.1121Y-0.0821
X0.4521Y-0.1121
X0.5521Y-0.1121
X0.6521Y-0.1121
X0.7521Y-0.1121
X0.8521Y-0.1121
X0.9521Y-0.1121
X1.0521Y-0.1121
X1.1521Y-0.1121
X1.2521Y-0.1121
X1.3521Y-0.1121
X1.4521Y-0.1121
X1.5521Y-0.1121
X1.6521Y-0.1121
X1.7521Y-0.1121
X1.8521Y-0.1121
T0
M30
