G04 #@! TF.GenerationSoftware,KiCad,Pcbnew,(5.1.6)-1*
G04 #@! TF.CreationDate,2020-06-08T17:18:55+12:00*
G04 #@! TF.ProjectId,discipad-pcb,64697363-6970-4616-942d-7063622e6b69,rev?*
G04 #@! TF.SameCoordinates,Original*
G04 #@! TF.FileFunction,Legend,Top*
G04 #@! TF.FilePolarity,Positive*
%FSLAX46Y46*%
G04 Gerber Fmt 4.6, Leading zero omitted, Abs format (unit mm)*
G04 Created by KiCad (PCBNEW (5.1.6)-1) date 2020-06-08 17:18:55*
%MOMM*%
%LPD*%
G01*
G04 APERTURE LIST*
%ADD10C,0.150000*%
%ADD11C,0.120000*%
%ADD12C,0.200000*%
G04 APERTURE END LIST*
D10*
X3212493Y-56790493D02*
X3212493Y-55790493D01*
X3212493Y-69790493D02*
X4212493Y-69790493D01*
X4212493Y-55790493D02*
X3212493Y-55790493D01*
X3212493Y-69790493D02*
X3212493Y-68790493D01*
X17212493Y-68790493D02*
X17212493Y-69790493D01*
X17212493Y-55790493D02*
X16212493Y-55790493D01*
X16212493Y-69790493D02*
X17212493Y-69790493D01*
X17212493Y-55790493D02*
X17212493Y-56790493D01*
X69252493Y-78380493D02*
X69252493Y-77380493D01*
X69252493Y-91380493D02*
X70252493Y-91380493D01*
X70252493Y-77380493D02*
X69252493Y-77380493D01*
X69252493Y-91380493D02*
X69252493Y-90380493D01*
X83252493Y-90380493D02*
X83252493Y-91380493D01*
X83252493Y-77380493D02*
X82252493Y-77380493D01*
X82252493Y-91380493D02*
X83252493Y-91380493D01*
X83252493Y-77380493D02*
X83252493Y-78380493D01*
X82288493Y-109939493D02*
X83288493Y-109939493D01*
X69288493Y-109939493D02*
X69288493Y-110939493D01*
X83288493Y-110939493D02*
X83288493Y-109939493D01*
X69288493Y-109939493D02*
X70288493Y-109939493D01*
X70288493Y-123939493D02*
X69288493Y-123939493D01*
X83288493Y-123939493D02*
X83288493Y-122939493D01*
X69288493Y-122939493D02*
X69288493Y-123939493D01*
X83288493Y-123939493D02*
X82288493Y-123939493D01*
X82252493Y-153072493D02*
X83252493Y-153072493D01*
X69252493Y-153072493D02*
X69252493Y-154072493D01*
X83252493Y-154072493D02*
X83252493Y-153072493D01*
X69252493Y-153072493D02*
X70252493Y-153072493D01*
X70252493Y-167072493D02*
X69252493Y-167072493D01*
X83252493Y-167072493D02*
X83252493Y-166072493D01*
X69252493Y-166072493D02*
X69252493Y-167072493D01*
X83252493Y-167072493D02*
X82252493Y-167072493D01*
X46646493Y-163724493D02*
X46646493Y-162724493D01*
X46646493Y-176724493D02*
X47646493Y-176724493D01*
X47646493Y-162724493D02*
X46646493Y-162724493D01*
X46646493Y-176724493D02*
X46646493Y-175724493D01*
X60646493Y-175724493D02*
X60646493Y-176724493D01*
X60646493Y-162724493D02*
X59646493Y-162724493D01*
X59646493Y-176724493D02*
X60646493Y-176724493D01*
X60646493Y-162724493D02*
X60646493Y-163724493D01*
X46646493Y-121052493D02*
X46646493Y-120052493D01*
X46646493Y-134052493D02*
X47646493Y-134052493D01*
X47646493Y-120052493D02*
X46646493Y-120052493D01*
X46646493Y-134052493D02*
X46646493Y-133052493D01*
X60646493Y-133052493D02*
X60646493Y-134052493D01*
X60646493Y-120052493D02*
X59646493Y-120052493D01*
X59646493Y-134052493D02*
X60646493Y-134052493D01*
X60646493Y-120052493D02*
X60646493Y-121052493D01*
X46646493Y-99716493D02*
X46646493Y-98716493D01*
X46646493Y-112716493D02*
X47646493Y-112716493D01*
X47646493Y-98716493D02*
X46646493Y-98716493D01*
X46646493Y-112716493D02*
X46646493Y-111716493D01*
X60646493Y-111716493D02*
X60646493Y-112716493D01*
X60646493Y-98716493D02*
X59646493Y-98716493D01*
X59646493Y-112716493D02*
X60646493Y-112716493D01*
X60646493Y-98716493D02*
X60646493Y-99716493D01*
X46646493Y-78126493D02*
X46646493Y-77126493D01*
X46646493Y-91126493D02*
X47646493Y-91126493D01*
X47646493Y-77126493D02*
X46646493Y-77126493D01*
X46646493Y-91126493D02*
X46646493Y-90126493D01*
X60646493Y-90126493D02*
X60646493Y-91126493D01*
X60646493Y-77126493D02*
X59646493Y-77126493D01*
X59646493Y-91126493D02*
X60646493Y-91126493D01*
X60646493Y-77126493D02*
X60646493Y-78126493D01*
X46646493Y-56536493D02*
X46646493Y-55536493D01*
X46646493Y-69536493D02*
X47646493Y-69536493D01*
X47646493Y-55536493D02*
X46646493Y-55536493D01*
X46646493Y-69536493D02*
X46646493Y-68536493D01*
X60646493Y-68536493D02*
X60646493Y-69536493D01*
X60646493Y-55536493D02*
X59646493Y-55536493D01*
X59646493Y-69536493D02*
X60646493Y-69536493D01*
X60646493Y-55536493D02*
X60646493Y-56536493D01*
X25056493Y-142388493D02*
X25056493Y-141388493D01*
X25056493Y-155388493D02*
X26056493Y-155388493D01*
X26056493Y-141388493D02*
X25056493Y-141388493D01*
X25056493Y-155388493D02*
X25056493Y-154388493D01*
X39056493Y-154388493D02*
X39056493Y-155388493D01*
X39056493Y-141388493D02*
X38056493Y-141388493D01*
X38056493Y-155388493D02*
X39056493Y-155388493D01*
X39056493Y-141388493D02*
X39056493Y-142388493D01*
X24802493Y-120798493D02*
X24802493Y-119798493D01*
X24802493Y-133798493D02*
X25802493Y-133798493D01*
X25802493Y-119798493D02*
X24802493Y-119798493D01*
X24802493Y-133798493D02*
X24802493Y-132798493D01*
X38802493Y-132798493D02*
X38802493Y-133798493D01*
X38802493Y-119798493D02*
X37802493Y-119798493D01*
X37802493Y-133798493D02*
X38802493Y-133798493D01*
X38802493Y-119798493D02*
X38802493Y-120798493D01*
X24802493Y-99716493D02*
X24802493Y-98716493D01*
X24802493Y-112716493D02*
X25802493Y-112716493D01*
X25802493Y-98716493D02*
X24802493Y-98716493D01*
X24802493Y-112716493D02*
X24802493Y-111716493D01*
X38802493Y-111716493D02*
X38802493Y-112716493D01*
X38802493Y-98716493D02*
X37802493Y-98716493D01*
X37802493Y-112716493D02*
X38802493Y-112716493D01*
X38802493Y-98716493D02*
X38802493Y-99716493D01*
X24802493Y-78126493D02*
X24802493Y-77126493D01*
X24802493Y-91126493D02*
X25802493Y-91126493D01*
X25802493Y-77126493D02*
X24802493Y-77126493D01*
X24802493Y-91126493D02*
X24802493Y-90126493D01*
X38802493Y-90126493D02*
X38802493Y-91126493D01*
X38802493Y-77126493D02*
X37802493Y-77126493D01*
X37802493Y-91126493D02*
X38802493Y-91126493D01*
X38802493Y-77126493D02*
X38802493Y-78126493D01*
X3212493Y-142134493D02*
X3212493Y-141134493D01*
X3212493Y-155134493D02*
X4212493Y-155134493D01*
X4212493Y-141134493D02*
X3212493Y-141134493D01*
X3212493Y-155134493D02*
X3212493Y-154134493D01*
X17212493Y-154134493D02*
X17212493Y-155134493D01*
X17212493Y-141134493D02*
X16212493Y-141134493D01*
X16212493Y-155134493D02*
X17212493Y-155134493D01*
X17212493Y-141134493D02*
X17212493Y-142134493D01*
X12864493Y-163470493D02*
X12864493Y-162470493D01*
X12864493Y-176470493D02*
X13864493Y-176470493D01*
X13864493Y-162470493D02*
X12864493Y-162470493D01*
X12864493Y-176470493D02*
X12864493Y-175470493D01*
X26864493Y-175470493D02*
X26864493Y-176470493D01*
X26864493Y-162470493D02*
X25864493Y-162470493D01*
X25864493Y-176470493D02*
X26864493Y-176470493D01*
X26864493Y-162470493D02*
X26864493Y-163470493D01*
X46646493Y-142134493D02*
X46646493Y-141134493D01*
X46646493Y-155134493D02*
X47646493Y-155134493D01*
X47646493Y-141134493D02*
X46646493Y-141134493D01*
X46646493Y-155134493D02*
X46646493Y-154134493D01*
X60646493Y-154134493D02*
X60646493Y-155134493D01*
X60646493Y-141134493D02*
X59646493Y-141134493D01*
X59646493Y-155134493D02*
X60646493Y-155134493D01*
X60646493Y-141134493D02*
X60646493Y-142134493D01*
X3212493Y-120798493D02*
X3212493Y-119798493D01*
X3212493Y-133798493D02*
X4212493Y-133798493D01*
X4212493Y-119798493D02*
X3212493Y-119798493D01*
X3212493Y-133798493D02*
X3212493Y-132798493D01*
X17212493Y-132798493D02*
X17212493Y-133798493D01*
X17212493Y-119798493D02*
X16212493Y-119798493D01*
X16212493Y-133798493D02*
X17212493Y-133798493D01*
X17212493Y-119798493D02*
X17212493Y-120798493D01*
X3212493Y-99462493D02*
X3212493Y-98462493D01*
X3212493Y-112462493D02*
X4212493Y-112462493D01*
X4212493Y-98462493D02*
X3212493Y-98462493D01*
X3212493Y-112462493D02*
X3212493Y-111462493D01*
X17212493Y-111462493D02*
X17212493Y-112462493D01*
X17212493Y-98462493D02*
X16212493Y-98462493D01*
X16212493Y-112462493D02*
X17212493Y-112462493D01*
X17212493Y-98462493D02*
X17212493Y-99462493D01*
X3212493Y-78126493D02*
X3212493Y-77126493D01*
X3212493Y-91126493D02*
X4212493Y-91126493D01*
X4212493Y-77126493D02*
X3212493Y-77126493D01*
X3212493Y-91126493D02*
X3212493Y-90126493D01*
X17212493Y-90126493D02*
X17212493Y-91126493D01*
X17212493Y-77126493D02*
X16212493Y-77126493D01*
X16212493Y-91126493D02*
X17212493Y-91126493D01*
X17212493Y-77126493D02*
X17212493Y-78126493D01*
X24802493Y-56536493D02*
X24802493Y-55536493D01*
X24802493Y-69536493D02*
X25802493Y-69536493D01*
X25802493Y-55536493D02*
X24802493Y-55536493D01*
X24802493Y-69536493D02*
X24802493Y-68536493D01*
X38802493Y-68536493D02*
X38802493Y-69536493D01*
X38802493Y-55536493D02*
X37802493Y-55536493D01*
X37802493Y-69536493D02*
X38802493Y-69536493D01*
X38802493Y-55536493D02*
X38802493Y-56536493D01*
X69252493Y-56790493D02*
X69252493Y-55790493D01*
X69252493Y-69790493D02*
X70252493Y-69790493D01*
X70252493Y-55790493D02*
X69252493Y-55790493D01*
X69252493Y-69790493D02*
X69252493Y-68790493D01*
X83252493Y-68790493D02*
X83252493Y-69790493D01*
X83252493Y-55790493D02*
X82252493Y-55790493D01*
X82252493Y-69790493D02*
X83252493Y-69790493D01*
X83252493Y-55790493D02*
X83252493Y-56790493D01*
D11*
X72072493Y-4820493D02*
X73272493Y-4820493D01*
X73272493Y-4820493D02*
X73272493Y-620493D01*
X73272493Y-620493D02*
X72072493Y-620493D01*
X65272493Y-4820493D02*
X64072493Y-4820493D01*
X64072493Y-4820493D02*
X64072493Y-620493D01*
X64072493Y-620493D02*
X65272493Y-620493D01*
X72372493Y-5120493D02*
X73572493Y-5120493D01*
X73572493Y-5120493D02*
X73572493Y-3920493D01*
X82542493Y-11482493D02*
X85202493Y-11482493D01*
X82542493Y-11482493D02*
X82542493Y-44562493D01*
X82542493Y-44562493D02*
X85202493Y-44562493D01*
X85202493Y-11482493D02*
X85202493Y-44562493D01*
X85202493Y-8882493D02*
X85202493Y-10212493D01*
X83872493Y-8882493D02*
X85202493Y-8882493D01*
X9898493Y-30786493D02*
X9898493Y-29456493D01*
X9898493Y-29456493D02*
X11228493Y-29456493D01*
X12498493Y-29456493D02*
X48118493Y-29456493D01*
X48118493Y-32116493D02*
X48118493Y-29456493D01*
X12498493Y-32116493D02*
X48118493Y-32116493D01*
X12498493Y-32116493D02*
X12498493Y-29456493D01*
X10152493Y-2846493D02*
X10152493Y-1516493D01*
X10152493Y-1516493D02*
X11482493Y-1516493D01*
X12752493Y-1516493D02*
X48372493Y-1516493D01*
X48372493Y-4176493D02*
X48372493Y-1516493D01*
X12752493Y-4176493D02*
X48372493Y-4176493D01*
X12752493Y-4176493D02*
X12752493Y-1516493D01*
X67170493Y-8578493D02*
X68570493Y-8578493D01*
X68570493Y-6258493D02*
X66670493Y-6258493D01*
X57064493Y-3948493D02*
X59514493Y-3948493D01*
X58864493Y-728493D02*
X57064493Y-728493D01*
X55836493Y-8068493D02*
X55836493Y-4228493D01*
X53996493Y-8068493D02*
X53996493Y-4228493D01*
X65534493Y-14252493D02*
X65534493Y-8712493D01*
X63094493Y-14252493D02*
X65534493Y-14252493D01*
X63094493Y-8712493D02*
X63094493Y-14252493D01*
X65534493Y-8712493D02*
X63094493Y-8712493D01*
X78746493Y15507D02*
X79046493Y-584493D01*
X79346493Y15507D02*
X78746493Y15507D01*
X79046493Y-584493D02*
X79346493Y15507D01*
X76226493Y-3674493D02*
X76546493Y-3674493D01*
X76226493Y-7094493D02*
X76226493Y-3674493D01*
X76546493Y-7174493D02*
X76226493Y-7094493D01*
X76866493Y-7094493D02*
X76546493Y-7174493D01*
X76866493Y-3674493D02*
X76866493Y-7094493D01*
X76546493Y-3674493D02*
X76866493Y-3674493D01*
X77876493Y-2674493D02*
X77716493Y-2674493D01*
X78726493Y-3674493D02*
X79046493Y-3674493D01*
X78726493Y-7094493D02*
X78726493Y-3674493D01*
X79046493Y-7174493D02*
X78726493Y-7094493D01*
X79366493Y-7094493D02*
X79046493Y-7174493D01*
X79366493Y-3674493D02*
X79366493Y-7094493D01*
X79046493Y-3674493D02*
X79366493Y-3674493D01*
X80436493Y-3674493D02*
X75156493Y-3674493D01*
X75156493Y-2674493D02*
X73936493Y-2674493D01*
X75156493Y-7674493D02*
X75156493Y-2674493D01*
X73936493Y-7674493D02*
X75156493Y-7674493D01*
X80436493Y-2674493D02*
X81656493Y-2674493D01*
X80436493Y-7674493D02*
X80436493Y-2674493D01*
X81656493Y-7674493D02*
X80436493Y-7674493D01*
X75156493Y-474493D02*
X75156493Y-2674493D01*
X73936493Y-474493D02*
X75156493Y-474493D01*
X73936493Y-8894493D02*
X73936493Y-474493D01*
X81656493Y-8894493D02*
X73936493Y-8894493D01*
X81656493Y-474493D02*
X81656493Y-8894493D01*
X80436493Y-474493D02*
X81656493Y-474493D01*
X80436493Y-2674493D02*
X80436493Y-474493D01*
D12*
X63038493Y-16378493D02*
X68838493Y-16378493D01*
X63038493Y-18778493D02*
X63038493Y-16378493D01*
X68838493Y-18778493D02*
X63038493Y-18778493D01*
X68763493Y-18778493D02*
X68763493Y-16378493D01*
X68638493Y-18778493D02*
X68638493Y-16378493D01*
X68863493Y-16378493D02*
X68863493Y-18778493D01*
X68463493Y-18778493D02*
X68463493Y-16378493D01*
X68288493Y-18778493D02*
X68288493Y-16378493D01*
X68113493Y-18778493D02*
X68113493Y-16378493D01*
X73134493Y-7412493D02*
X73134493Y-13212493D01*
X70734493Y-7412493D02*
X73134493Y-7412493D01*
X70734493Y-13212493D02*
X70734493Y-7412493D01*
X70734493Y-13137493D02*
X73134493Y-13137493D01*
X70734493Y-13012493D02*
X73134493Y-13012493D01*
X73134493Y-13237493D02*
X70734493Y-13237493D01*
X70734493Y-12837493D02*
X73134493Y-12837493D01*
X70734493Y-12662493D02*
X73134493Y-12662493D01*
X70734493Y-12487493D02*
X73134493Y-12487493D01*
D11*
X83071493Y-6346493D02*
X83056493Y-6346493D01*
X85196493Y-6346493D02*
X85181493Y-6346493D01*
X83071493Y-1806493D02*
X83056493Y-1806493D01*
X85196493Y-1806493D02*
X85181493Y-1806493D01*
X83056493Y-1806493D02*
X83056493Y-6346493D01*
X85196493Y-1806493D02*
X85196493Y-6346493D01*
X74435493Y-15236493D02*
X74420493Y-15236493D01*
X76560493Y-15236493D02*
X76545493Y-15236493D01*
X74435493Y-10696493D02*
X74420493Y-10696493D01*
X76560493Y-10696493D02*
X76545493Y-10696493D01*
X74420493Y-10696493D02*
X74420493Y-15236493D01*
X76560493Y-10696493D02*
X76560493Y-15236493D01*
X62575493Y-4426493D02*
X62590493Y-4426493D01*
X60450493Y-4426493D02*
X60465493Y-4426493D01*
X62575493Y-8966493D02*
X62590493Y-8966493D01*
X60450493Y-8966493D02*
X60465493Y-8966493D01*
X62590493Y-8966493D02*
X62590493Y-4426493D01*
X60450493Y-8966493D02*
X60450493Y-4426493D01*
X79902493Y-141232493D02*
X72602493Y-141232493D01*
X79902493Y-135732493D02*
X72602493Y-135732493D01*
X72602493Y-135732493D02*
X72602493Y-136882493D01*
X79648493Y-98560493D02*
X72348493Y-98560493D01*
X79648493Y-93060493D02*
X72348493Y-93060493D01*
X72348493Y-93060493D02*
X72348493Y-94210493D01*
X72602493Y-70708493D02*
X79902493Y-70708493D01*
X72602493Y-76208493D02*
X79902493Y-76208493D01*
X79902493Y-76208493D02*
X79902493Y-75058493D01*
X79648493Y-54618493D02*
X72348493Y-54618493D01*
X79648493Y-49118493D02*
X72348493Y-49118493D01*
X72348493Y-49118493D02*
X72348493Y-50268493D01*
X62072493Y-66186493D02*
X62072493Y-58886493D01*
X67572493Y-66186493D02*
X67572493Y-58886493D01*
X67572493Y-58886493D02*
X66422493Y-58886493D01*
X67572493Y-80476493D02*
X67572493Y-87776493D01*
X62072493Y-80476493D02*
X62072493Y-87776493D01*
X62072493Y-87776493D02*
X63222493Y-87776493D01*
X62072493Y-103016493D02*
X62072493Y-95716493D01*
X67572493Y-103016493D02*
X67572493Y-95716493D01*
X67572493Y-95716493D02*
X66422493Y-95716493D01*
X67572493Y-119338493D02*
X67572493Y-126638493D01*
X62072493Y-119338493D02*
X62072493Y-126638493D01*
X62072493Y-126638493D02*
X63222493Y-126638493D01*
X62072493Y-145688493D02*
X62072493Y-138388493D01*
X67572493Y-145688493D02*
X67572493Y-138388493D01*
X67572493Y-138388493D02*
X66422493Y-138388493D01*
X67572493Y-161502493D02*
X67572493Y-168802493D01*
X62072493Y-161502493D02*
X62072493Y-168802493D01*
X62072493Y-168802493D02*
X63222493Y-168802493D01*
X49996493Y-156052493D02*
X57296493Y-156052493D01*
X49996493Y-161552493D02*
X57296493Y-161552493D01*
X57296493Y-161552493D02*
X57296493Y-160402493D01*
X57296493Y-140216493D02*
X49996493Y-140216493D01*
X57296493Y-134716493D02*
X49996493Y-134716493D01*
X49996493Y-134716493D02*
X49996493Y-135866493D01*
X50250493Y-113380493D02*
X57550493Y-113380493D01*
X50250493Y-118880493D02*
X57550493Y-118880493D01*
X57550493Y-118880493D02*
X57550493Y-117730493D01*
X57296493Y-97544493D02*
X49996493Y-97544493D01*
X57296493Y-92044493D02*
X49996493Y-92044493D01*
X49996493Y-92044493D02*
X49996493Y-93194493D01*
X49996493Y-70708493D02*
X57296493Y-70708493D01*
X49996493Y-76208493D02*
X57296493Y-76208493D01*
X57296493Y-76208493D02*
X57296493Y-75058493D01*
X57296493Y-54618493D02*
X49996493Y-54618493D01*
X57296493Y-49118493D02*
X49996493Y-49118493D01*
X49996493Y-49118493D02*
X49996493Y-50268493D01*
X39974493Y-66440493D02*
X39974493Y-59140493D01*
X45474493Y-66440493D02*
X45474493Y-59140493D01*
X45474493Y-59140493D02*
X44324493Y-59140493D01*
X45474493Y-79714493D02*
X45474493Y-87014493D01*
X39974493Y-79714493D02*
X39974493Y-87014493D01*
X39974493Y-87014493D02*
X41124493Y-87014493D01*
X39974493Y-108604493D02*
X39974493Y-101304493D01*
X45474493Y-108604493D02*
X45474493Y-101304493D01*
X45474493Y-101304493D02*
X44324493Y-101304493D01*
X45474493Y-122640493D02*
X45474493Y-129940493D01*
X39974493Y-122640493D02*
X39974493Y-129940493D01*
X39974493Y-129940493D02*
X41124493Y-129940493D01*
X39974493Y-151784493D02*
X39974493Y-144484493D01*
X45474493Y-151784493D02*
X45474493Y-144484493D01*
X45474493Y-144484493D02*
X44324493Y-144484493D01*
X44204493Y-166074493D02*
X44204493Y-173374493D01*
X38704493Y-166074493D02*
X38704493Y-173374493D01*
X38704493Y-173374493D02*
X39854493Y-173374493D01*
X32978493Y-156052493D02*
X40278493Y-156052493D01*
X32978493Y-161552493D02*
X40278493Y-161552493D01*
X40278493Y-161552493D02*
X40278493Y-160402493D01*
X35452493Y-140216493D02*
X28152493Y-140216493D01*
X35452493Y-134716493D02*
X28152493Y-134716493D01*
X28152493Y-134716493D02*
X28152493Y-135866493D01*
X28152493Y-113380493D02*
X35452493Y-113380493D01*
X28152493Y-118880493D02*
X35452493Y-118880493D01*
X35452493Y-118880493D02*
X35452493Y-117730493D01*
X70256493Y-14022493D02*
G75*
G03*
X70256493Y-14022493I-2120000J0D01*
G01*
X68136493Y-13182493D02*
X68136493Y-11942493D01*
X68136493Y-16102493D02*
X68136493Y-14862493D01*
X68096493Y-13182493D02*
X68096493Y-11942493D01*
X68096493Y-16102493D02*
X68096493Y-14862493D01*
X68056493Y-13182493D02*
X68056493Y-11943493D01*
X68056493Y-16101493D02*
X68056493Y-14862493D01*
X68016493Y-16099493D02*
X68016493Y-14862493D01*
X68016493Y-13182493D02*
X68016493Y-11945493D01*
X67976493Y-16096493D02*
X67976493Y-14862493D01*
X67976493Y-13182493D02*
X67976493Y-11948493D01*
X67936493Y-16093493D02*
X67936493Y-14862493D01*
X67936493Y-13182493D02*
X67936493Y-11951493D01*
X67896493Y-16089493D02*
X67896493Y-14862493D01*
X67896493Y-13182493D02*
X67896493Y-11955493D01*
X67856493Y-16084493D02*
X67856493Y-14862493D01*
X67856493Y-13182493D02*
X67856493Y-11960493D01*
X67816493Y-16078493D02*
X67816493Y-14862493D01*
X67816493Y-13182493D02*
X67816493Y-11966493D01*
X67776493Y-16072493D02*
X67776493Y-14862493D01*
X67776493Y-13182493D02*
X67776493Y-11972493D01*
X67736493Y-16064493D02*
X67736493Y-14862493D01*
X67736493Y-13182493D02*
X67736493Y-11980493D01*
X67696493Y-16056493D02*
X67696493Y-14862493D01*
X67696493Y-13182493D02*
X67696493Y-11988493D01*
X67656493Y-16047493D02*
X67656493Y-14862493D01*
X67656493Y-13182493D02*
X67656493Y-11997493D01*
X67616493Y-16038493D02*
X67616493Y-14862493D01*
X67616493Y-13182493D02*
X67616493Y-12006493D01*
X67576493Y-16027493D02*
X67576493Y-14862493D01*
X67576493Y-13182493D02*
X67576493Y-12017493D01*
X67536493Y-16016493D02*
X67536493Y-14862493D01*
X67536493Y-13182493D02*
X67536493Y-12028493D01*
X67496493Y-16004493D02*
X67496493Y-14862493D01*
X67496493Y-13182493D02*
X67496493Y-12040493D01*
X67456493Y-15990493D02*
X67456493Y-14862493D01*
X67456493Y-13182493D02*
X67456493Y-12054493D01*
X67415493Y-15976493D02*
X67415493Y-14862493D01*
X67415493Y-13182493D02*
X67415493Y-12068493D01*
X67375493Y-15962493D02*
X67375493Y-14862493D01*
X67375493Y-13182493D02*
X67375493Y-12082493D01*
X67335493Y-15946493D02*
X67335493Y-14862493D01*
X67335493Y-13182493D02*
X67335493Y-12098493D01*
X67295493Y-15929493D02*
X67295493Y-14862493D01*
X67295493Y-13182493D02*
X67295493Y-12115493D01*
X67255493Y-15911493D02*
X67255493Y-14862493D01*
X67255493Y-13182493D02*
X67255493Y-12133493D01*
X67215493Y-15892493D02*
X67215493Y-14862493D01*
X67215493Y-13182493D02*
X67215493Y-12152493D01*
X67175493Y-15873493D02*
X67175493Y-14862493D01*
X67175493Y-13182493D02*
X67175493Y-12171493D01*
X67135493Y-15852493D02*
X67135493Y-14862493D01*
X67135493Y-13182493D02*
X67135493Y-12192493D01*
X67095493Y-15830493D02*
X67095493Y-14862493D01*
X67095493Y-13182493D02*
X67095493Y-12214493D01*
X67055493Y-15807493D02*
X67055493Y-14862493D01*
X67055493Y-13182493D02*
X67055493Y-12237493D01*
X67015493Y-15782493D02*
X67015493Y-14862493D01*
X67015493Y-13182493D02*
X67015493Y-12262493D01*
X66975493Y-15757493D02*
X66975493Y-14862493D01*
X66975493Y-13182493D02*
X66975493Y-12287493D01*
X66935493Y-15730493D02*
X66935493Y-14862493D01*
X66935493Y-13182493D02*
X66935493Y-12314493D01*
X66895493Y-15702493D02*
X66895493Y-14862493D01*
X66895493Y-13182493D02*
X66895493Y-12342493D01*
X66855493Y-15672493D02*
X66855493Y-14862493D01*
X66855493Y-13182493D02*
X66855493Y-12372493D01*
X66815493Y-15641493D02*
X66815493Y-14862493D01*
X66815493Y-13182493D02*
X66815493Y-12403493D01*
X66775493Y-15609493D02*
X66775493Y-14862493D01*
X66775493Y-13182493D02*
X66775493Y-12435493D01*
X66735493Y-15574493D02*
X66735493Y-14862493D01*
X66735493Y-13182493D02*
X66735493Y-12470493D01*
X66695493Y-15538493D02*
X66695493Y-14862493D01*
X66695493Y-13182493D02*
X66695493Y-12506493D01*
X66655493Y-15500493D02*
X66655493Y-14862493D01*
X66655493Y-13182493D02*
X66655493Y-12544493D01*
X66615493Y-15460493D02*
X66615493Y-14862493D01*
X66615493Y-13182493D02*
X66615493Y-12584493D01*
X66575493Y-15418493D02*
X66575493Y-14862493D01*
X66575493Y-13182493D02*
X66575493Y-12626493D01*
X66535493Y-15373493D02*
X66535493Y-12671493D01*
X66495493Y-15326493D02*
X66495493Y-12718493D01*
X66455493Y-15276493D02*
X66455493Y-12768493D01*
X66415493Y-15222493D02*
X66415493Y-12822493D01*
X66375493Y-15164493D02*
X66375493Y-12880493D01*
X66335493Y-15102493D02*
X66335493Y-12942493D01*
X66295493Y-15035493D02*
X66295493Y-13009493D01*
X66255493Y-14962493D02*
X66255493Y-13082493D01*
X66215493Y-14881493D02*
X66215493Y-13163493D01*
X66175493Y-14790493D02*
X66175493Y-13254493D01*
X66135493Y-14686493D02*
X66135493Y-13358493D01*
X66095493Y-14559493D02*
X66095493Y-13485493D01*
X66055493Y-14392493D02*
X66055493Y-13652493D01*
X70406294Y-15217493D02*
X70006294Y-15217493D01*
X70206294Y-15417493D02*
X70206294Y-15017493D01*
X13608493Y-54618493D02*
X13608493Y-53468493D01*
X6308493Y-54618493D02*
X13608493Y-54618493D01*
X6308493Y-49118493D02*
X13608493Y-49118493D01*
X13862493Y-75954493D02*
X6562493Y-75954493D01*
X13862493Y-70454493D02*
X6562493Y-70454493D01*
X6562493Y-70454493D02*
X6562493Y-71604493D01*
X14116493Y-97544493D02*
X14116493Y-96394493D01*
X6816493Y-97544493D02*
X14116493Y-97544493D01*
X6816493Y-92044493D02*
X14116493Y-92044493D01*
X13862493Y-118880493D02*
X6562493Y-118880493D01*
X13862493Y-113380493D02*
X6562493Y-113380493D01*
X6562493Y-113380493D02*
X6562493Y-114530493D01*
X13862493Y-140216493D02*
X13862493Y-139066493D01*
X6562493Y-140216493D02*
X13862493Y-140216493D01*
X6562493Y-134716493D02*
X13862493Y-134716493D01*
X17926493Y-161552493D02*
X10626493Y-161552493D01*
X17926493Y-156052493D02*
X10626493Y-156052493D01*
X10626493Y-156052493D02*
X10626493Y-157202493D01*
X23884493Y-144484493D02*
X23884493Y-151784493D01*
X18384493Y-144484493D02*
X18384493Y-151784493D01*
X18384493Y-151784493D02*
X19534493Y-151784493D01*
X18384493Y-130448493D02*
X19534493Y-130448493D01*
X18384493Y-123148493D02*
X18384493Y-130448493D01*
X23884493Y-123148493D02*
X23884493Y-130448493D01*
X23884493Y-102066493D02*
X23884493Y-109366493D01*
X18384493Y-102066493D02*
X18384493Y-109366493D01*
X18384493Y-109366493D02*
X19534493Y-109366493D01*
X18384493Y-87776493D02*
X19534493Y-87776493D01*
X18384493Y-80476493D02*
X18384493Y-87776493D01*
X23884493Y-80476493D02*
X23884493Y-87776493D01*
X23884493Y-59140493D02*
X23884493Y-66440493D01*
X18384493Y-59140493D02*
X18384493Y-66440493D01*
X18384493Y-66440493D02*
X19534493Y-66440493D01*
X28152493Y-49118493D02*
X28152493Y-50268493D01*
X35452493Y-49118493D02*
X28152493Y-49118493D01*
X35452493Y-54618493D02*
X28152493Y-54618493D01*
X28152493Y-70708493D02*
X35452493Y-70708493D01*
X28152493Y-76208493D02*
X35452493Y-76208493D01*
X35452493Y-76208493D02*
X35452493Y-75058493D01*
X28152493Y-92044493D02*
X28152493Y-93194493D01*
X35452493Y-92044493D02*
X28152493Y-92044493D01*
X35452493Y-97544493D02*
X28152493Y-97544493D01*
D10*
X69362969Y-7885254D02*
X69505826Y-7932873D01*
X69743921Y-7932873D01*
X69839159Y-7885254D01*
X69886778Y-7837635D01*
X69934397Y-7742397D01*
X69934397Y-7647159D01*
X69886778Y-7551921D01*
X69839159Y-7504302D01*
X69743921Y-7456683D01*
X69553445Y-7409064D01*
X69458207Y-7361445D01*
X69410588Y-7313826D01*
X69362969Y-7218588D01*
X69362969Y-7123350D01*
X69410588Y-7028112D01*
X69458207Y-6980493D01*
X69553445Y-6932873D01*
X69791540Y-6932873D01*
X69934397Y-6980493D01*
X70267731Y-6932873D02*
X70505826Y-7932873D01*
X70696302Y-7218588D01*
X70886778Y-7932873D01*
X71124873Y-6932873D01*
X71458207Y-7028112D02*
X71505826Y-6980493D01*
X71601064Y-6932873D01*
X71839159Y-6932873D01*
X71934397Y-6980493D01*
X71982016Y-7028112D01*
X72029635Y-7123350D01*
X72029635Y-7218588D01*
X71982016Y-7361445D01*
X71410588Y-7932873D01*
X72029635Y-7932873D01*
X72982016Y-7932873D02*
X72410588Y-7932873D01*
X72696302Y-7932873D02*
X72696302Y-6932873D01*
X72601064Y-7075731D01*
X72505826Y-7170969D01*
X72410588Y-7218588D01*
X83539159Y-6894873D02*
X83539159Y-7609159D01*
X83491540Y-7752016D01*
X83396302Y-7847254D01*
X83253445Y-7894873D01*
X83158207Y-7894873D01*
X83920112Y-6894873D02*
X84539159Y-6894873D01*
X84205826Y-7275826D01*
X84348683Y-7275826D01*
X84443921Y-7323445D01*
X84491540Y-7371064D01*
X84539159Y-7466302D01*
X84539159Y-7704397D01*
X84491540Y-7799635D01*
X84443921Y-7847254D01*
X84348683Y-7894873D01*
X84062969Y-7894873D01*
X83967731Y-7847254D01*
X83920112Y-7799635D01*
X7910873Y-31119826D02*
X8625159Y-31119826D01*
X8768016Y-31167445D01*
X8863254Y-31262683D01*
X8910873Y-31405540D01*
X8910873Y-31500778D01*
X8006112Y-30691254D02*
X7958493Y-30643635D01*
X7910873Y-30548397D01*
X7910873Y-30310302D01*
X7958493Y-30215064D01*
X8006112Y-30167445D01*
X8101350Y-30119826D01*
X8196588Y-30119826D01*
X8339445Y-30167445D01*
X8910873Y-30738873D01*
X8910873Y-30119826D01*
X8164873Y-3179826D02*
X8879159Y-3179826D01*
X9022016Y-3227445D01*
X9117254Y-3322683D01*
X9164873Y-3465540D01*
X9164873Y-3560778D01*
X9164873Y-2179826D02*
X9164873Y-2751254D01*
X9164873Y-2465540D02*
X8164873Y-2465540D01*
X8307731Y-2560778D01*
X8402969Y-2656016D01*
X8450588Y-2751254D01*
X67108588Y-4870873D02*
X67108588Y-5680397D01*
X67156207Y-5775635D01*
X67203826Y-5823254D01*
X67299064Y-5870873D01*
X67489540Y-5870873D01*
X67584778Y-5823254D01*
X67632397Y-5775635D01*
X67680016Y-5680397D01*
X67680016Y-4870873D01*
X68060969Y-4870873D02*
X68680016Y-4870873D01*
X68346683Y-5251826D01*
X68489540Y-5251826D01*
X68584778Y-5299445D01*
X68632397Y-5347064D01*
X68680016Y-5442302D01*
X68680016Y-5680397D01*
X68632397Y-5775635D01*
X68584778Y-5823254D01*
X68489540Y-5870873D01*
X68203826Y-5870873D01*
X68108588Y-5823254D01*
X68060969Y-5775635D01*
X57202588Y-4690873D02*
X57202588Y-5500397D01*
X57250207Y-5595635D01*
X57297826Y-5643254D01*
X57393064Y-5690873D01*
X57583540Y-5690873D01*
X57678778Y-5643254D01*
X57726397Y-5595635D01*
X57774016Y-5500397D01*
X57774016Y-4690873D01*
X58202588Y-4786112D02*
X58250207Y-4738493D01*
X58345445Y-4690873D01*
X58583540Y-4690873D01*
X58678778Y-4738493D01*
X58726397Y-4786112D01*
X58774016Y-4881350D01*
X58774016Y-4976588D01*
X58726397Y-5119445D01*
X58154969Y-5690873D01*
X58774016Y-5690873D01*
X53448873Y-6315159D02*
X52972683Y-6648493D01*
X53448873Y-6886588D02*
X52448873Y-6886588D01*
X52448873Y-6505635D01*
X52496493Y-6410397D01*
X52544112Y-6362778D01*
X52639350Y-6315159D01*
X52782207Y-6315159D01*
X52877445Y-6362778D01*
X52925064Y-6410397D01*
X52972683Y-6505635D01*
X52972683Y-6886588D01*
X53448873Y-5362778D02*
X53448873Y-5934207D01*
X53448873Y-5648493D02*
X52448873Y-5648493D01*
X52591731Y-5743731D01*
X52686969Y-5838969D01*
X52734588Y-5934207D01*
X66986873Y-11649159D02*
X66986873Y-12125350D01*
X65986873Y-12125350D01*
X66986873Y-10792016D02*
X66986873Y-11363445D01*
X66986873Y-11077731D02*
X65986873Y-11077731D01*
X66129731Y-11172969D01*
X66224969Y-11268207D01*
X66272588Y-11363445D01*
X77463159Y-9436873D02*
X77463159Y-10151159D01*
X77415540Y-10294016D01*
X77320302Y-10389254D01*
X77177445Y-10436873D01*
X77082207Y-10436873D01*
X78367921Y-9770207D02*
X78367921Y-10436873D01*
X78129826Y-9389254D02*
X77891731Y-10103540D01*
X78510778Y-10103540D01*
X64867064Y-16015397D02*
X64867064Y-15215397D01*
X65057540Y-15215397D01*
X65171826Y-15253493D01*
X65248016Y-15329683D01*
X65286112Y-15405873D01*
X65324207Y-15558254D01*
X65324207Y-15672540D01*
X65286112Y-15824921D01*
X65248016Y-15901112D01*
X65171826Y-15977302D01*
X65057540Y-16015397D01*
X64867064Y-16015397D01*
X66009921Y-15215397D02*
X65857540Y-15215397D01*
X65781350Y-15253493D01*
X65743254Y-15291588D01*
X65667064Y-15405873D01*
X65628969Y-15558254D01*
X65628969Y-15863016D01*
X65667064Y-15939207D01*
X65705159Y-15977302D01*
X65781350Y-16015397D01*
X65933731Y-16015397D01*
X66009921Y-15977302D01*
X66048016Y-15939207D01*
X66086112Y-15863016D01*
X66086112Y-15672540D01*
X66048016Y-15596350D01*
X66009921Y-15558254D01*
X65933731Y-15520159D01*
X65781350Y-15520159D01*
X65705159Y-15558254D01*
X65667064Y-15596350D01*
X65628969Y-15672540D01*
X66848016Y-16015397D02*
X66390873Y-16015397D01*
X66619445Y-16015397D02*
X66619445Y-15215397D01*
X66543254Y-15329683D01*
X66467064Y-15405873D01*
X66390873Y-15443969D01*
X74221397Y-11183921D02*
X73421397Y-11183921D01*
X73421397Y-10993445D01*
X73459493Y-10879159D01*
X73535683Y-10802969D01*
X73611873Y-10764873D01*
X73764254Y-10726778D01*
X73878540Y-10726778D01*
X74030921Y-10764873D01*
X74107112Y-10802969D01*
X74183302Y-10879159D01*
X74221397Y-10993445D01*
X74221397Y-11183921D01*
X73421397Y-10041064D02*
X73421397Y-10193445D01*
X73459493Y-10269635D01*
X73497588Y-10307731D01*
X73611873Y-10383921D01*
X73764254Y-10422016D01*
X74069016Y-10422016D01*
X74145207Y-10383921D01*
X74183302Y-10345826D01*
X74221397Y-10269635D01*
X74221397Y-10117254D01*
X74183302Y-10041064D01*
X74145207Y-10002969D01*
X74069016Y-9964873D01*
X73878540Y-9964873D01*
X73802350Y-10002969D01*
X73764254Y-10041064D01*
X73726159Y-10117254D01*
X73726159Y-10269635D01*
X73764254Y-10345826D01*
X73802350Y-10383921D01*
X73878540Y-10422016D01*
X73421397Y-9469635D02*
X73421397Y-9393445D01*
X73459493Y-9317254D01*
X73497588Y-9279159D01*
X73573778Y-9241064D01*
X73726159Y-9202969D01*
X73916635Y-9202969D01*
X74069016Y-9241064D01*
X74145207Y-9279159D01*
X74183302Y-9317254D01*
X74221397Y-9393445D01*
X74221397Y-9469635D01*
X74183302Y-9545826D01*
X74145207Y-9583921D01*
X74069016Y-9622016D01*
X73916635Y-9660112D01*
X73726159Y-9660112D01*
X73573778Y-9622016D01*
X73497588Y-9583921D01*
X73459493Y-9545826D01*
X73421397Y-9469635D01*
X86683635Y-4243159D02*
X86731254Y-4290778D01*
X86778873Y-4433635D01*
X86778873Y-4528873D01*
X86731254Y-4671731D01*
X86636016Y-4766969D01*
X86540778Y-4814588D01*
X86350302Y-4862207D01*
X86207445Y-4862207D01*
X86016969Y-4814588D01*
X85921731Y-4766969D01*
X85826493Y-4671731D01*
X85778873Y-4528873D01*
X85778873Y-4433635D01*
X85826493Y-4290778D01*
X85874112Y-4243159D01*
X86207445Y-3671731D02*
X86159826Y-3766969D01*
X86112207Y-3814588D01*
X86016969Y-3862207D01*
X85969350Y-3862207D01*
X85874112Y-3814588D01*
X85826493Y-3766969D01*
X85778873Y-3671731D01*
X85778873Y-3481254D01*
X85826493Y-3386016D01*
X85874112Y-3338397D01*
X85969350Y-3290778D01*
X86016969Y-3290778D01*
X86112207Y-3338397D01*
X86159826Y-3386016D01*
X86207445Y-3481254D01*
X86207445Y-3671731D01*
X86255064Y-3766969D01*
X86302683Y-3814588D01*
X86397921Y-3862207D01*
X86588397Y-3862207D01*
X86683635Y-3814588D01*
X86731254Y-3766969D01*
X86778873Y-3671731D01*
X86778873Y-3481254D01*
X86731254Y-3386016D01*
X86683635Y-3338397D01*
X86588397Y-3290778D01*
X86397921Y-3290778D01*
X86302683Y-3338397D01*
X86255064Y-3386016D01*
X86207445Y-3481254D01*
X78047635Y-13133159D02*
X78095254Y-13180778D01*
X78142873Y-13323635D01*
X78142873Y-13418873D01*
X78095254Y-13561731D01*
X78000016Y-13656969D01*
X77904778Y-13704588D01*
X77714302Y-13752207D01*
X77571445Y-13752207D01*
X77380969Y-13704588D01*
X77285731Y-13656969D01*
X77190493Y-13561731D01*
X77142873Y-13418873D01*
X77142873Y-13323635D01*
X77190493Y-13180778D01*
X77238112Y-13133159D01*
X77142873Y-12799826D02*
X77142873Y-12133159D01*
X78142873Y-12561731D01*
X59677635Y-6863159D02*
X59725254Y-6910778D01*
X59772873Y-7053635D01*
X59772873Y-7148873D01*
X59725254Y-7291731D01*
X59630016Y-7386969D01*
X59534778Y-7434588D01*
X59344302Y-7482207D01*
X59201445Y-7482207D01*
X59010969Y-7434588D01*
X58915731Y-7386969D01*
X58820493Y-7291731D01*
X58772873Y-7148873D01*
X58772873Y-7053635D01*
X58820493Y-6910778D01*
X58868112Y-6863159D01*
X58772873Y-6006016D02*
X58772873Y-6196493D01*
X58820493Y-6291731D01*
X58868112Y-6339350D01*
X59010969Y-6434588D01*
X59201445Y-6482207D01*
X59582397Y-6482207D01*
X59677635Y-6434588D01*
X59725254Y-6386969D01*
X59772873Y-6291731D01*
X59772873Y-6101254D01*
X59725254Y-6006016D01*
X59677635Y-5958397D01*
X59582397Y-5910778D01*
X59344302Y-5910778D01*
X59249064Y-5958397D01*
X59201445Y-6006016D01*
X59153826Y-6101254D01*
X59153826Y-6291731D01*
X59201445Y-6386969D01*
X59249064Y-6434588D01*
X59344302Y-6482207D01*
X75038207Y-142434873D02*
X75038207Y-141434873D01*
X75276302Y-141434873D01*
X75419159Y-141482493D01*
X75514397Y-141577731D01*
X75562016Y-141672969D01*
X75609635Y-141863445D01*
X75609635Y-142006302D01*
X75562016Y-142196778D01*
X75514397Y-142292016D01*
X75419159Y-142387254D01*
X75276302Y-142434873D01*
X75038207Y-142434873D01*
X76514397Y-141434873D02*
X76038207Y-141434873D01*
X75990588Y-141911064D01*
X76038207Y-141863445D01*
X76133445Y-141815826D01*
X76371540Y-141815826D01*
X76466778Y-141863445D01*
X76514397Y-141911064D01*
X76562016Y-142006302D01*
X76562016Y-142244397D01*
X76514397Y-142339635D01*
X76466778Y-142387254D01*
X76371540Y-142434873D01*
X76133445Y-142434873D01*
X76038207Y-142387254D01*
X75990588Y-142339635D01*
X77133445Y-141863445D02*
X77038207Y-141815826D01*
X76990588Y-141768207D01*
X76942969Y-141672969D01*
X76942969Y-141625350D01*
X76990588Y-141530112D01*
X77038207Y-141482493D01*
X77133445Y-141434873D01*
X77323921Y-141434873D01*
X77419159Y-141482493D01*
X77466778Y-141530112D01*
X77514397Y-141625350D01*
X77514397Y-141672969D01*
X77466778Y-141768207D01*
X77419159Y-141815826D01*
X77323921Y-141863445D01*
X77133445Y-141863445D01*
X77038207Y-141911064D01*
X76990588Y-141958683D01*
X76942969Y-142053921D01*
X76942969Y-142244397D01*
X76990588Y-142339635D01*
X77038207Y-142387254D01*
X77133445Y-142434873D01*
X77323921Y-142434873D01*
X77419159Y-142387254D01*
X77466778Y-142339635D01*
X77514397Y-142244397D01*
X77514397Y-142053921D01*
X77466778Y-141958683D01*
X77419159Y-141911064D01*
X77323921Y-141863445D01*
X80688207Y-140534873D02*
X80116778Y-140534873D01*
X80402493Y-140534873D02*
X80402493Y-139534873D01*
X80307254Y-139677731D01*
X80212016Y-139772969D01*
X80116778Y-139820588D01*
X74784207Y-99762873D02*
X74784207Y-98762873D01*
X75022302Y-98762873D01*
X75165159Y-98810493D01*
X75260397Y-98905731D01*
X75308016Y-99000969D01*
X75355635Y-99191445D01*
X75355635Y-99334302D01*
X75308016Y-99524778D01*
X75260397Y-99620016D01*
X75165159Y-99715254D01*
X75022302Y-99762873D01*
X74784207Y-99762873D01*
X76260397Y-98762873D02*
X75784207Y-98762873D01*
X75736588Y-99239064D01*
X75784207Y-99191445D01*
X75879445Y-99143826D01*
X76117540Y-99143826D01*
X76212778Y-99191445D01*
X76260397Y-99239064D01*
X76308016Y-99334302D01*
X76308016Y-99572397D01*
X76260397Y-99667635D01*
X76212778Y-99715254D01*
X76117540Y-99762873D01*
X75879445Y-99762873D01*
X75784207Y-99715254D01*
X75736588Y-99667635D01*
X76641350Y-98762873D02*
X77308016Y-98762873D01*
X76879445Y-99762873D01*
X80434207Y-97862873D02*
X79862778Y-97862873D01*
X80148493Y-97862873D02*
X80148493Y-96862873D01*
X80053254Y-97005731D01*
X79958016Y-97100969D01*
X79862778Y-97148588D01*
X75038207Y-70410873D02*
X75038207Y-69410873D01*
X75276302Y-69410873D01*
X75419159Y-69458493D01*
X75514397Y-69553731D01*
X75562016Y-69648969D01*
X75609635Y-69839445D01*
X75609635Y-69982302D01*
X75562016Y-70172778D01*
X75514397Y-70268016D01*
X75419159Y-70363254D01*
X75276302Y-70410873D01*
X75038207Y-70410873D01*
X76514397Y-69410873D02*
X76038207Y-69410873D01*
X75990588Y-69887064D01*
X76038207Y-69839445D01*
X76133445Y-69791826D01*
X76371540Y-69791826D01*
X76466778Y-69839445D01*
X76514397Y-69887064D01*
X76562016Y-69982302D01*
X76562016Y-70220397D01*
X76514397Y-70315635D01*
X76466778Y-70363254D01*
X76371540Y-70410873D01*
X76133445Y-70410873D01*
X76038207Y-70363254D01*
X75990588Y-70315635D01*
X77419159Y-69410873D02*
X77228683Y-69410873D01*
X77133445Y-69458493D01*
X77085826Y-69506112D01*
X76990588Y-69648969D01*
X76942969Y-69839445D01*
X76942969Y-70220397D01*
X76990588Y-70315635D01*
X77038207Y-70363254D01*
X77133445Y-70410873D01*
X77323921Y-70410873D01*
X77419159Y-70363254D01*
X77466778Y-70315635D01*
X77514397Y-70220397D01*
X77514397Y-69982302D01*
X77466778Y-69887064D01*
X77419159Y-69839445D01*
X77323921Y-69791826D01*
X77133445Y-69791826D01*
X77038207Y-69839445D01*
X76990588Y-69887064D01*
X76942969Y-69982302D01*
X72388207Y-72310873D02*
X71816778Y-72310873D01*
X72102493Y-72310873D02*
X72102493Y-71310873D01*
X72007254Y-71453731D01*
X71912016Y-71548969D01*
X71816778Y-71596588D01*
X74784207Y-55820873D02*
X74784207Y-54820873D01*
X75022302Y-54820873D01*
X75165159Y-54868493D01*
X75260397Y-54963731D01*
X75308016Y-55058969D01*
X75355635Y-55249445D01*
X75355635Y-55392302D01*
X75308016Y-55582778D01*
X75260397Y-55678016D01*
X75165159Y-55773254D01*
X75022302Y-55820873D01*
X74784207Y-55820873D01*
X76260397Y-54820873D02*
X75784207Y-54820873D01*
X75736588Y-55297064D01*
X75784207Y-55249445D01*
X75879445Y-55201826D01*
X76117540Y-55201826D01*
X76212778Y-55249445D01*
X76260397Y-55297064D01*
X76308016Y-55392302D01*
X76308016Y-55630397D01*
X76260397Y-55725635D01*
X76212778Y-55773254D01*
X76117540Y-55820873D01*
X75879445Y-55820873D01*
X75784207Y-55773254D01*
X75736588Y-55725635D01*
X77212778Y-54820873D02*
X76736588Y-54820873D01*
X76688969Y-55297064D01*
X76736588Y-55249445D01*
X76831826Y-55201826D01*
X77069921Y-55201826D01*
X77165159Y-55249445D01*
X77212778Y-55297064D01*
X77260397Y-55392302D01*
X77260397Y-55630397D01*
X77212778Y-55725635D01*
X77165159Y-55773254D01*
X77069921Y-55820873D01*
X76831826Y-55820873D01*
X76736588Y-55773254D01*
X76688969Y-55725635D01*
X80434207Y-53920873D02*
X79862778Y-53920873D01*
X80148493Y-53920873D02*
X80148493Y-52920873D01*
X80053254Y-53063731D01*
X79958016Y-53158969D01*
X79862778Y-53206588D01*
X61774873Y-63750778D02*
X60774873Y-63750778D01*
X60774873Y-63512683D01*
X60822493Y-63369826D01*
X60917731Y-63274588D01*
X61012969Y-63226969D01*
X61203445Y-63179350D01*
X61346302Y-63179350D01*
X61536778Y-63226969D01*
X61632016Y-63274588D01*
X61727254Y-63369826D01*
X61774873Y-63512683D01*
X61774873Y-63750778D01*
X60774873Y-62274588D02*
X60774873Y-62750778D01*
X61251064Y-62798397D01*
X61203445Y-62750778D01*
X61155826Y-62655540D01*
X61155826Y-62417445D01*
X61203445Y-62322207D01*
X61251064Y-62274588D01*
X61346302Y-62226969D01*
X61584397Y-62226969D01*
X61679635Y-62274588D01*
X61727254Y-62322207D01*
X61774873Y-62417445D01*
X61774873Y-62655540D01*
X61727254Y-62750778D01*
X61679635Y-62798397D01*
X61108207Y-61369826D02*
X61774873Y-61369826D01*
X60727254Y-61607921D02*
X61441540Y-61846016D01*
X61441540Y-61226969D01*
X63674873Y-66400778D02*
X63674873Y-66972207D01*
X63674873Y-66686493D02*
X62674873Y-66686493D01*
X62817731Y-66781731D01*
X62912969Y-66876969D01*
X62960588Y-66972207D01*
X68774873Y-85340778D02*
X67774873Y-85340778D01*
X67774873Y-85102683D01*
X67822493Y-84959826D01*
X67917731Y-84864588D01*
X68012969Y-84816969D01*
X68203445Y-84769350D01*
X68346302Y-84769350D01*
X68536778Y-84816969D01*
X68632016Y-84864588D01*
X68727254Y-84959826D01*
X68774873Y-85102683D01*
X68774873Y-85340778D01*
X67774873Y-83864588D02*
X67774873Y-84340778D01*
X68251064Y-84388397D01*
X68203445Y-84340778D01*
X68155826Y-84245540D01*
X68155826Y-84007445D01*
X68203445Y-83912207D01*
X68251064Y-83864588D01*
X68346302Y-83816969D01*
X68584397Y-83816969D01*
X68679635Y-83864588D01*
X68727254Y-83912207D01*
X68774873Y-84007445D01*
X68774873Y-84245540D01*
X68727254Y-84340778D01*
X68679635Y-84388397D01*
X67774873Y-83483635D02*
X67774873Y-82864588D01*
X68155826Y-83197921D01*
X68155826Y-83055064D01*
X68203445Y-82959826D01*
X68251064Y-82912207D01*
X68346302Y-82864588D01*
X68584397Y-82864588D01*
X68679635Y-82912207D01*
X68727254Y-82959826D01*
X68774873Y-83055064D01*
X68774873Y-83340778D01*
X68727254Y-83436016D01*
X68679635Y-83483635D01*
X66874873Y-79690778D02*
X66874873Y-80262207D01*
X66874873Y-79976493D02*
X65874873Y-79976493D01*
X66017731Y-80071731D01*
X66112969Y-80166969D01*
X66160588Y-80262207D01*
X61774873Y-100580778D02*
X60774873Y-100580778D01*
X60774873Y-100342683D01*
X60822493Y-100199826D01*
X60917731Y-100104588D01*
X61012969Y-100056969D01*
X61203445Y-100009350D01*
X61346302Y-100009350D01*
X61536778Y-100056969D01*
X61632016Y-100104588D01*
X61727254Y-100199826D01*
X61774873Y-100342683D01*
X61774873Y-100580778D01*
X60774873Y-99104588D02*
X60774873Y-99580778D01*
X61251064Y-99628397D01*
X61203445Y-99580778D01*
X61155826Y-99485540D01*
X61155826Y-99247445D01*
X61203445Y-99152207D01*
X61251064Y-99104588D01*
X61346302Y-99056969D01*
X61584397Y-99056969D01*
X61679635Y-99104588D01*
X61727254Y-99152207D01*
X61774873Y-99247445D01*
X61774873Y-99485540D01*
X61727254Y-99580778D01*
X61679635Y-99628397D01*
X60870112Y-98676016D02*
X60822493Y-98628397D01*
X60774873Y-98533159D01*
X60774873Y-98295064D01*
X60822493Y-98199826D01*
X60870112Y-98152207D01*
X60965350Y-98104588D01*
X61060588Y-98104588D01*
X61203445Y-98152207D01*
X61774873Y-98723635D01*
X61774873Y-98104588D01*
X63674873Y-103230778D02*
X63674873Y-103802207D01*
X63674873Y-103516493D02*
X62674873Y-103516493D01*
X62817731Y-103611731D01*
X62912969Y-103706969D01*
X62960588Y-103802207D01*
X68774873Y-124202778D02*
X67774873Y-124202778D01*
X67774873Y-123964683D01*
X67822493Y-123821826D01*
X67917731Y-123726588D01*
X68012969Y-123678969D01*
X68203445Y-123631350D01*
X68346302Y-123631350D01*
X68536778Y-123678969D01*
X68632016Y-123726588D01*
X68727254Y-123821826D01*
X68774873Y-123964683D01*
X68774873Y-124202778D01*
X67774873Y-122726588D02*
X67774873Y-123202778D01*
X68251064Y-123250397D01*
X68203445Y-123202778D01*
X68155826Y-123107540D01*
X68155826Y-122869445D01*
X68203445Y-122774207D01*
X68251064Y-122726588D01*
X68346302Y-122678969D01*
X68584397Y-122678969D01*
X68679635Y-122726588D01*
X68727254Y-122774207D01*
X68774873Y-122869445D01*
X68774873Y-123107540D01*
X68727254Y-123202778D01*
X68679635Y-123250397D01*
X68774873Y-121726588D02*
X68774873Y-122298016D01*
X68774873Y-122012302D02*
X67774873Y-122012302D01*
X67917731Y-122107540D01*
X68012969Y-122202778D01*
X68060588Y-122298016D01*
X66874873Y-118552778D02*
X66874873Y-119124207D01*
X66874873Y-118838493D02*
X65874873Y-118838493D01*
X66017731Y-118933731D01*
X66112969Y-119028969D01*
X66160588Y-119124207D01*
X61774873Y-143252778D02*
X60774873Y-143252778D01*
X60774873Y-143014683D01*
X60822493Y-142871826D01*
X60917731Y-142776588D01*
X61012969Y-142728969D01*
X61203445Y-142681350D01*
X61346302Y-142681350D01*
X61536778Y-142728969D01*
X61632016Y-142776588D01*
X61727254Y-142871826D01*
X61774873Y-143014683D01*
X61774873Y-143252778D01*
X60774873Y-141776588D02*
X60774873Y-142252778D01*
X61251064Y-142300397D01*
X61203445Y-142252778D01*
X61155826Y-142157540D01*
X61155826Y-141919445D01*
X61203445Y-141824207D01*
X61251064Y-141776588D01*
X61346302Y-141728969D01*
X61584397Y-141728969D01*
X61679635Y-141776588D01*
X61727254Y-141824207D01*
X61774873Y-141919445D01*
X61774873Y-142157540D01*
X61727254Y-142252778D01*
X61679635Y-142300397D01*
X60774873Y-141109921D02*
X60774873Y-141014683D01*
X60822493Y-140919445D01*
X60870112Y-140871826D01*
X60965350Y-140824207D01*
X61155826Y-140776588D01*
X61393921Y-140776588D01*
X61584397Y-140824207D01*
X61679635Y-140871826D01*
X61727254Y-140919445D01*
X61774873Y-141014683D01*
X61774873Y-141109921D01*
X61727254Y-141205159D01*
X61679635Y-141252778D01*
X61584397Y-141300397D01*
X61393921Y-141348016D01*
X61155826Y-141348016D01*
X60965350Y-141300397D01*
X60870112Y-141252778D01*
X60822493Y-141205159D01*
X60774873Y-141109921D01*
X63674873Y-145902778D02*
X63674873Y-146474207D01*
X63674873Y-146188493D02*
X62674873Y-146188493D01*
X62817731Y-146283731D01*
X62912969Y-146378969D01*
X62960588Y-146474207D01*
X68774873Y-166366778D02*
X67774873Y-166366778D01*
X67774873Y-166128683D01*
X67822493Y-165985826D01*
X67917731Y-165890588D01*
X68012969Y-165842969D01*
X68203445Y-165795350D01*
X68346302Y-165795350D01*
X68536778Y-165842969D01*
X68632016Y-165890588D01*
X68727254Y-165985826D01*
X68774873Y-166128683D01*
X68774873Y-166366778D01*
X68108207Y-164938207D02*
X68774873Y-164938207D01*
X67727254Y-165176302D02*
X68441540Y-165414397D01*
X68441540Y-164795350D01*
X68774873Y-164366778D02*
X68774873Y-164176302D01*
X68727254Y-164081064D01*
X68679635Y-164033445D01*
X68536778Y-163938207D01*
X68346302Y-163890588D01*
X67965350Y-163890588D01*
X67870112Y-163938207D01*
X67822493Y-163985826D01*
X67774873Y-164081064D01*
X67774873Y-164271540D01*
X67822493Y-164366778D01*
X67870112Y-164414397D01*
X67965350Y-164462016D01*
X68203445Y-164462016D01*
X68298683Y-164414397D01*
X68346302Y-164366778D01*
X68393921Y-164271540D01*
X68393921Y-164081064D01*
X68346302Y-163985826D01*
X68298683Y-163938207D01*
X68203445Y-163890588D01*
X66874873Y-160716778D02*
X66874873Y-161288207D01*
X66874873Y-161002493D02*
X65874873Y-161002493D01*
X66017731Y-161097731D01*
X66112969Y-161192969D01*
X66160588Y-161288207D01*
X52432207Y-155754873D02*
X52432207Y-154754873D01*
X52670302Y-154754873D01*
X52813159Y-154802493D01*
X52908397Y-154897731D01*
X52956016Y-154992969D01*
X53003635Y-155183445D01*
X53003635Y-155326302D01*
X52956016Y-155516778D01*
X52908397Y-155612016D01*
X52813159Y-155707254D01*
X52670302Y-155754873D01*
X52432207Y-155754873D01*
X53860778Y-155088207D02*
X53860778Y-155754873D01*
X53622683Y-154707254D02*
X53384588Y-155421540D01*
X54003635Y-155421540D01*
X54527445Y-155183445D02*
X54432207Y-155135826D01*
X54384588Y-155088207D01*
X54336969Y-154992969D01*
X54336969Y-154945350D01*
X54384588Y-154850112D01*
X54432207Y-154802493D01*
X54527445Y-154754873D01*
X54717921Y-154754873D01*
X54813159Y-154802493D01*
X54860778Y-154850112D01*
X54908397Y-154945350D01*
X54908397Y-154992969D01*
X54860778Y-155088207D01*
X54813159Y-155135826D01*
X54717921Y-155183445D01*
X54527445Y-155183445D01*
X54432207Y-155231064D01*
X54384588Y-155278683D01*
X54336969Y-155373921D01*
X54336969Y-155564397D01*
X54384588Y-155659635D01*
X54432207Y-155707254D01*
X54527445Y-155754873D01*
X54717921Y-155754873D01*
X54813159Y-155707254D01*
X54860778Y-155659635D01*
X54908397Y-155564397D01*
X54908397Y-155373921D01*
X54860778Y-155278683D01*
X54813159Y-155231064D01*
X54717921Y-155183445D01*
X49782207Y-157654873D02*
X49210778Y-157654873D01*
X49496493Y-157654873D02*
X49496493Y-156654873D01*
X49401254Y-156797731D01*
X49306016Y-156892969D01*
X49210778Y-156940588D01*
X52432207Y-141418873D02*
X52432207Y-140418873D01*
X52670302Y-140418873D01*
X52813159Y-140466493D01*
X52908397Y-140561731D01*
X52956016Y-140656969D01*
X53003635Y-140847445D01*
X53003635Y-140990302D01*
X52956016Y-141180778D01*
X52908397Y-141276016D01*
X52813159Y-141371254D01*
X52670302Y-141418873D01*
X52432207Y-141418873D01*
X53860778Y-140752207D02*
X53860778Y-141418873D01*
X53622683Y-140371254D02*
X53384588Y-141085540D01*
X54003635Y-141085540D01*
X54289350Y-140418873D02*
X54956016Y-140418873D01*
X54527445Y-141418873D01*
X58082207Y-139518873D02*
X57510778Y-139518873D01*
X57796493Y-139518873D02*
X57796493Y-138518873D01*
X57701254Y-138661731D01*
X57606016Y-138756969D01*
X57510778Y-138804588D01*
X52686207Y-113082873D02*
X52686207Y-112082873D01*
X52924302Y-112082873D01*
X53067159Y-112130493D01*
X53162397Y-112225731D01*
X53210016Y-112320969D01*
X53257635Y-112511445D01*
X53257635Y-112654302D01*
X53210016Y-112844778D01*
X53162397Y-112940016D01*
X53067159Y-113035254D01*
X52924302Y-113082873D01*
X52686207Y-113082873D01*
X54114778Y-112416207D02*
X54114778Y-113082873D01*
X53876683Y-112035254D02*
X53638588Y-112749540D01*
X54257635Y-112749540D01*
X55067159Y-112082873D02*
X54876683Y-112082873D01*
X54781445Y-112130493D01*
X54733826Y-112178112D01*
X54638588Y-112320969D01*
X54590969Y-112511445D01*
X54590969Y-112892397D01*
X54638588Y-112987635D01*
X54686207Y-113035254D01*
X54781445Y-113082873D01*
X54971921Y-113082873D01*
X55067159Y-113035254D01*
X55114778Y-112987635D01*
X55162397Y-112892397D01*
X55162397Y-112654302D01*
X55114778Y-112559064D01*
X55067159Y-112511445D01*
X54971921Y-112463826D01*
X54781445Y-112463826D01*
X54686207Y-112511445D01*
X54638588Y-112559064D01*
X54590969Y-112654302D01*
X50036207Y-114982873D02*
X49464778Y-114982873D01*
X49750493Y-114982873D02*
X49750493Y-113982873D01*
X49655254Y-114125731D01*
X49560016Y-114220969D01*
X49464778Y-114268588D01*
X52432207Y-98746873D02*
X52432207Y-97746873D01*
X52670302Y-97746873D01*
X52813159Y-97794493D01*
X52908397Y-97889731D01*
X52956016Y-97984969D01*
X53003635Y-98175445D01*
X53003635Y-98318302D01*
X52956016Y-98508778D01*
X52908397Y-98604016D01*
X52813159Y-98699254D01*
X52670302Y-98746873D01*
X52432207Y-98746873D01*
X53860778Y-98080207D02*
X53860778Y-98746873D01*
X53622683Y-97699254D02*
X53384588Y-98413540D01*
X54003635Y-98413540D01*
X54860778Y-97746873D02*
X54384588Y-97746873D01*
X54336969Y-98223064D01*
X54384588Y-98175445D01*
X54479826Y-98127826D01*
X54717921Y-98127826D01*
X54813159Y-98175445D01*
X54860778Y-98223064D01*
X54908397Y-98318302D01*
X54908397Y-98556397D01*
X54860778Y-98651635D01*
X54813159Y-98699254D01*
X54717921Y-98746873D01*
X54479826Y-98746873D01*
X54384588Y-98699254D01*
X54336969Y-98651635D01*
X58082207Y-96846873D02*
X57510778Y-96846873D01*
X57796493Y-96846873D02*
X57796493Y-95846873D01*
X57701254Y-95989731D01*
X57606016Y-96084969D01*
X57510778Y-96132588D01*
X52432207Y-70410873D02*
X52432207Y-69410873D01*
X52670302Y-69410873D01*
X52813159Y-69458493D01*
X52908397Y-69553731D01*
X52956016Y-69648969D01*
X53003635Y-69839445D01*
X53003635Y-69982302D01*
X52956016Y-70172778D01*
X52908397Y-70268016D01*
X52813159Y-70363254D01*
X52670302Y-70410873D01*
X52432207Y-70410873D01*
X53860778Y-69744207D02*
X53860778Y-70410873D01*
X53622683Y-69363254D02*
X53384588Y-70077540D01*
X54003635Y-70077540D01*
X54813159Y-69744207D02*
X54813159Y-70410873D01*
X54575064Y-69363254D02*
X54336969Y-70077540D01*
X54956016Y-70077540D01*
X49782207Y-72310873D02*
X49210778Y-72310873D01*
X49496493Y-72310873D02*
X49496493Y-71310873D01*
X49401254Y-71453731D01*
X49306016Y-71548969D01*
X49210778Y-71596588D01*
X52432207Y-55820873D02*
X52432207Y-54820873D01*
X52670302Y-54820873D01*
X52813159Y-54868493D01*
X52908397Y-54963731D01*
X52956016Y-55058969D01*
X53003635Y-55249445D01*
X53003635Y-55392302D01*
X52956016Y-55582778D01*
X52908397Y-55678016D01*
X52813159Y-55773254D01*
X52670302Y-55820873D01*
X52432207Y-55820873D01*
X53860778Y-55154207D02*
X53860778Y-55820873D01*
X53622683Y-54773254D02*
X53384588Y-55487540D01*
X54003635Y-55487540D01*
X54289350Y-54820873D02*
X54908397Y-54820873D01*
X54575064Y-55201826D01*
X54717921Y-55201826D01*
X54813159Y-55249445D01*
X54860778Y-55297064D01*
X54908397Y-55392302D01*
X54908397Y-55630397D01*
X54860778Y-55725635D01*
X54813159Y-55773254D01*
X54717921Y-55820873D01*
X54432207Y-55820873D01*
X54336969Y-55773254D01*
X54289350Y-55725635D01*
X58082207Y-53920873D02*
X57510778Y-53920873D01*
X57796493Y-53920873D02*
X57796493Y-52920873D01*
X57701254Y-53063731D01*
X57606016Y-53158969D01*
X57510778Y-53206588D01*
X39676873Y-64004778D02*
X38676873Y-64004778D01*
X38676873Y-63766683D01*
X38724493Y-63623826D01*
X38819731Y-63528588D01*
X38914969Y-63480969D01*
X39105445Y-63433350D01*
X39248302Y-63433350D01*
X39438778Y-63480969D01*
X39534016Y-63528588D01*
X39629254Y-63623826D01*
X39676873Y-63766683D01*
X39676873Y-64004778D01*
X39010207Y-62576207D02*
X39676873Y-62576207D01*
X38629254Y-62814302D02*
X39343540Y-63052397D01*
X39343540Y-62433350D01*
X38772112Y-62100016D02*
X38724493Y-62052397D01*
X38676873Y-61957159D01*
X38676873Y-61719064D01*
X38724493Y-61623826D01*
X38772112Y-61576207D01*
X38867350Y-61528588D01*
X38962588Y-61528588D01*
X39105445Y-61576207D01*
X39676873Y-62147635D01*
X39676873Y-61528588D01*
X41576873Y-66654778D02*
X41576873Y-67226207D01*
X41576873Y-66940493D02*
X40576873Y-66940493D01*
X40719731Y-67035731D01*
X40814969Y-67130969D01*
X40862588Y-67226207D01*
X46676873Y-84578778D02*
X45676873Y-84578778D01*
X45676873Y-84340683D01*
X45724493Y-84197826D01*
X45819731Y-84102588D01*
X45914969Y-84054969D01*
X46105445Y-84007350D01*
X46248302Y-84007350D01*
X46438778Y-84054969D01*
X46534016Y-84102588D01*
X46629254Y-84197826D01*
X46676873Y-84340683D01*
X46676873Y-84578778D01*
X46010207Y-83150207D02*
X46676873Y-83150207D01*
X45629254Y-83388302D02*
X46343540Y-83626397D01*
X46343540Y-83007350D01*
X46676873Y-82102588D02*
X46676873Y-82674016D01*
X46676873Y-82388302D02*
X45676873Y-82388302D01*
X45819731Y-82483540D01*
X45914969Y-82578778D01*
X45962588Y-82674016D01*
X44776873Y-78928778D02*
X44776873Y-79500207D01*
X44776873Y-79214493D02*
X43776873Y-79214493D01*
X43919731Y-79309731D01*
X44014969Y-79404969D01*
X44062588Y-79500207D01*
X39676873Y-106168778D02*
X38676873Y-106168778D01*
X38676873Y-105930683D01*
X38724493Y-105787826D01*
X38819731Y-105692588D01*
X38914969Y-105644969D01*
X39105445Y-105597350D01*
X39248302Y-105597350D01*
X39438778Y-105644969D01*
X39534016Y-105692588D01*
X39629254Y-105787826D01*
X39676873Y-105930683D01*
X39676873Y-106168778D01*
X39010207Y-104740207D02*
X39676873Y-104740207D01*
X38629254Y-104978302D02*
X39343540Y-105216397D01*
X39343540Y-104597350D01*
X38676873Y-104025921D02*
X38676873Y-103930683D01*
X38724493Y-103835445D01*
X38772112Y-103787826D01*
X38867350Y-103740207D01*
X39057826Y-103692588D01*
X39295921Y-103692588D01*
X39486397Y-103740207D01*
X39581635Y-103787826D01*
X39629254Y-103835445D01*
X39676873Y-103930683D01*
X39676873Y-104025921D01*
X39629254Y-104121159D01*
X39581635Y-104168778D01*
X39486397Y-104216397D01*
X39295921Y-104264016D01*
X39057826Y-104264016D01*
X38867350Y-104216397D01*
X38772112Y-104168778D01*
X38724493Y-104121159D01*
X38676873Y-104025921D01*
X41576873Y-108818778D02*
X41576873Y-109390207D01*
X41576873Y-109104493D02*
X40576873Y-109104493D01*
X40719731Y-109199731D01*
X40814969Y-109294969D01*
X40862588Y-109390207D01*
X46676873Y-127504778D02*
X45676873Y-127504778D01*
X45676873Y-127266683D01*
X45724493Y-127123826D01*
X45819731Y-127028588D01*
X45914969Y-126980969D01*
X46105445Y-126933350D01*
X46248302Y-126933350D01*
X46438778Y-126980969D01*
X46534016Y-127028588D01*
X46629254Y-127123826D01*
X46676873Y-127266683D01*
X46676873Y-127504778D01*
X45676873Y-126600016D02*
X45676873Y-125980969D01*
X46057826Y-126314302D01*
X46057826Y-126171445D01*
X46105445Y-126076207D01*
X46153064Y-126028588D01*
X46248302Y-125980969D01*
X46486397Y-125980969D01*
X46581635Y-126028588D01*
X46629254Y-126076207D01*
X46676873Y-126171445D01*
X46676873Y-126457159D01*
X46629254Y-126552397D01*
X46581635Y-126600016D01*
X46676873Y-125504778D02*
X46676873Y-125314302D01*
X46629254Y-125219064D01*
X46581635Y-125171445D01*
X46438778Y-125076207D01*
X46248302Y-125028588D01*
X45867350Y-125028588D01*
X45772112Y-125076207D01*
X45724493Y-125123826D01*
X45676873Y-125219064D01*
X45676873Y-125409540D01*
X45724493Y-125504778D01*
X45772112Y-125552397D01*
X45867350Y-125600016D01*
X46105445Y-125600016D01*
X46200683Y-125552397D01*
X46248302Y-125504778D01*
X46295921Y-125409540D01*
X46295921Y-125219064D01*
X46248302Y-125123826D01*
X46200683Y-125076207D01*
X46105445Y-125028588D01*
X44776873Y-121854778D02*
X44776873Y-122426207D01*
X44776873Y-122140493D02*
X43776873Y-122140493D01*
X43919731Y-122235731D01*
X44014969Y-122330969D01*
X44062588Y-122426207D01*
X39676873Y-149348778D02*
X38676873Y-149348778D01*
X38676873Y-149110683D01*
X38724493Y-148967826D01*
X38819731Y-148872588D01*
X38914969Y-148824969D01*
X39105445Y-148777350D01*
X39248302Y-148777350D01*
X39438778Y-148824969D01*
X39534016Y-148872588D01*
X39629254Y-148967826D01*
X39676873Y-149110683D01*
X39676873Y-149348778D01*
X38676873Y-148444016D02*
X38676873Y-147824969D01*
X39057826Y-148158302D01*
X39057826Y-148015445D01*
X39105445Y-147920207D01*
X39153064Y-147872588D01*
X39248302Y-147824969D01*
X39486397Y-147824969D01*
X39581635Y-147872588D01*
X39629254Y-147920207D01*
X39676873Y-148015445D01*
X39676873Y-148301159D01*
X39629254Y-148396397D01*
X39581635Y-148444016D01*
X39105445Y-147253540D02*
X39057826Y-147348778D01*
X39010207Y-147396397D01*
X38914969Y-147444016D01*
X38867350Y-147444016D01*
X38772112Y-147396397D01*
X38724493Y-147348778D01*
X38676873Y-147253540D01*
X38676873Y-147063064D01*
X38724493Y-146967826D01*
X38772112Y-146920207D01*
X38867350Y-146872588D01*
X38914969Y-146872588D01*
X39010207Y-146920207D01*
X39057826Y-146967826D01*
X39105445Y-147063064D01*
X39105445Y-147253540D01*
X39153064Y-147348778D01*
X39200683Y-147396397D01*
X39295921Y-147444016D01*
X39486397Y-147444016D01*
X39581635Y-147396397D01*
X39629254Y-147348778D01*
X39676873Y-147253540D01*
X39676873Y-147063064D01*
X39629254Y-146967826D01*
X39581635Y-146920207D01*
X39486397Y-146872588D01*
X39295921Y-146872588D01*
X39200683Y-146920207D01*
X39153064Y-146967826D01*
X39105445Y-147063064D01*
X41576873Y-151998778D02*
X41576873Y-152570207D01*
X41576873Y-152284493D02*
X40576873Y-152284493D01*
X40719731Y-152379731D01*
X40814969Y-152474969D01*
X40862588Y-152570207D01*
X45406873Y-170938778D02*
X44406873Y-170938778D01*
X44406873Y-170700683D01*
X44454493Y-170557826D01*
X44549731Y-170462588D01*
X44644969Y-170414969D01*
X44835445Y-170367350D01*
X44978302Y-170367350D01*
X45168778Y-170414969D01*
X45264016Y-170462588D01*
X45359254Y-170557826D01*
X45406873Y-170700683D01*
X45406873Y-170938778D01*
X44406873Y-170034016D02*
X44406873Y-169414969D01*
X44787826Y-169748302D01*
X44787826Y-169605445D01*
X44835445Y-169510207D01*
X44883064Y-169462588D01*
X44978302Y-169414969D01*
X45216397Y-169414969D01*
X45311635Y-169462588D01*
X45359254Y-169510207D01*
X45406873Y-169605445D01*
X45406873Y-169891159D01*
X45359254Y-169986397D01*
X45311635Y-170034016D01*
X44406873Y-169081635D02*
X44406873Y-168414969D01*
X45406873Y-168843540D01*
X43506873Y-165288778D02*
X43506873Y-165860207D01*
X43506873Y-165574493D02*
X42506873Y-165574493D01*
X42649731Y-165669731D01*
X42744969Y-165764969D01*
X42792588Y-165860207D01*
X35414207Y-155754873D02*
X35414207Y-154754873D01*
X35652302Y-154754873D01*
X35795159Y-154802493D01*
X35890397Y-154897731D01*
X35938016Y-154992969D01*
X35985635Y-155183445D01*
X35985635Y-155326302D01*
X35938016Y-155516778D01*
X35890397Y-155612016D01*
X35795159Y-155707254D01*
X35652302Y-155754873D01*
X35414207Y-155754873D01*
X36318969Y-154754873D02*
X36938016Y-154754873D01*
X36604683Y-155135826D01*
X36747540Y-155135826D01*
X36842778Y-155183445D01*
X36890397Y-155231064D01*
X36938016Y-155326302D01*
X36938016Y-155564397D01*
X36890397Y-155659635D01*
X36842778Y-155707254D01*
X36747540Y-155754873D01*
X36461826Y-155754873D01*
X36366588Y-155707254D01*
X36318969Y-155659635D01*
X37795159Y-154754873D02*
X37604683Y-154754873D01*
X37509445Y-154802493D01*
X37461826Y-154850112D01*
X37366588Y-154992969D01*
X37318969Y-155183445D01*
X37318969Y-155564397D01*
X37366588Y-155659635D01*
X37414207Y-155707254D01*
X37509445Y-155754873D01*
X37699921Y-155754873D01*
X37795159Y-155707254D01*
X37842778Y-155659635D01*
X37890397Y-155564397D01*
X37890397Y-155326302D01*
X37842778Y-155231064D01*
X37795159Y-155183445D01*
X37699921Y-155135826D01*
X37509445Y-155135826D01*
X37414207Y-155183445D01*
X37366588Y-155231064D01*
X37318969Y-155326302D01*
X32764207Y-157654873D02*
X32192778Y-157654873D01*
X32478493Y-157654873D02*
X32478493Y-156654873D01*
X32383254Y-156797731D01*
X32288016Y-156892969D01*
X32192778Y-156940588D01*
X30588207Y-141418873D02*
X30588207Y-140418873D01*
X30826302Y-140418873D01*
X30969159Y-140466493D01*
X31064397Y-140561731D01*
X31112016Y-140656969D01*
X31159635Y-140847445D01*
X31159635Y-140990302D01*
X31112016Y-141180778D01*
X31064397Y-141276016D01*
X30969159Y-141371254D01*
X30826302Y-141418873D01*
X30588207Y-141418873D01*
X31492969Y-140418873D02*
X32112016Y-140418873D01*
X31778683Y-140799826D01*
X31921540Y-140799826D01*
X32016778Y-140847445D01*
X32064397Y-140895064D01*
X32112016Y-140990302D01*
X32112016Y-141228397D01*
X32064397Y-141323635D01*
X32016778Y-141371254D01*
X31921540Y-141418873D01*
X31635826Y-141418873D01*
X31540588Y-141371254D01*
X31492969Y-141323635D01*
X33016778Y-140418873D02*
X32540588Y-140418873D01*
X32492969Y-140895064D01*
X32540588Y-140847445D01*
X32635826Y-140799826D01*
X32873921Y-140799826D01*
X32969159Y-140847445D01*
X33016778Y-140895064D01*
X33064397Y-140990302D01*
X33064397Y-141228397D01*
X33016778Y-141323635D01*
X32969159Y-141371254D01*
X32873921Y-141418873D01*
X32635826Y-141418873D01*
X32540588Y-141371254D01*
X32492969Y-141323635D01*
X36238207Y-139518873D02*
X35666778Y-139518873D01*
X35952493Y-139518873D02*
X35952493Y-138518873D01*
X35857254Y-138661731D01*
X35762016Y-138756969D01*
X35666778Y-138804588D01*
X30588207Y-113082873D02*
X30588207Y-112082873D01*
X30826302Y-112082873D01*
X30969159Y-112130493D01*
X31064397Y-112225731D01*
X31112016Y-112320969D01*
X31159635Y-112511445D01*
X31159635Y-112654302D01*
X31112016Y-112844778D01*
X31064397Y-112940016D01*
X30969159Y-113035254D01*
X30826302Y-113082873D01*
X30588207Y-113082873D01*
X31492969Y-112082873D02*
X32112016Y-112082873D01*
X31778683Y-112463826D01*
X31921540Y-112463826D01*
X32016778Y-112511445D01*
X32064397Y-112559064D01*
X32112016Y-112654302D01*
X32112016Y-112892397D01*
X32064397Y-112987635D01*
X32016778Y-113035254D01*
X31921540Y-113082873D01*
X31635826Y-113082873D01*
X31540588Y-113035254D01*
X31492969Y-112987635D01*
X32969159Y-112416207D02*
X32969159Y-113082873D01*
X32731064Y-112035254D02*
X32492969Y-112749540D01*
X33112016Y-112749540D01*
X27938207Y-114982873D02*
X27366778Y-114982873D01*
X27652493Y-114982873D02*
X27652493Y-113982873D01*
X27557254Y-114125731D01*
X27462016Y-114220969D01*
X27366778Y-114268588D01*
X67969826Y-17629635D02*
X67922207Y-17677254D01*
X67779350Y-17724873D01*
X67684112Y-17724873D01*
X67541254Y-17677254D01*
X67446016Y-17582016D01*
X67398397Y-17486778D01*
X67350778Y-17296302D01*
X67350778Y-17153445D01*
X67398397Y-16962969D01*
X67446016Y-16867731D01*
X67541254Y-16772493D01*
X67684112Y-16724873D01*
X67779350Y-16724873D01*
X67922207Y-16772493D01*
X67969826Y-16820112D01*
X68303159Y-16724873D02*
X68922207Y-16724873D01*
X68588873Y-17105826D01*
X68731731Y-17105826D01*
X68826969Y-17153445D01*
X68874588Y-17201064D01*
X68922207Y-17296302D01*
X68922207Y-17534397D01*
X68874588Y-17629635D01*
X68826969Y-17677254D01*
X68731731Y-17724873D01*
X68446016Y-17724873D01*
X68350778Y-17677254D01*
X68303159Y-17629635D01*
X8744207Y-48820873D02*
X8744207Y-47820873D01*
X8982302Y-47820873D01*
X9125159Y-47868493D01*
X9220397Y-47963731D01*
X9268016Y-48058969D01*
X9315635Y-48249445D01*
X9315635Y-48392302D01*
X9268016Y-48582778D01*
X9220397Y-48678016D01*
X9125159Y-48773254D01*
X8982302Y-48820873D01*
X8744207Y-48820873D01*
X9696588Y-47916112D02*
X9744207Y-47868493D01*
X9839445Y-47820873D01*
X10077540Y-47820873D01*
X10172778Y-47868493D01*
X10220397Y-47916112D01*
X10268016Y-48011350D01*
X10268016Y-48106588D01*
X10220397Y-48249445D01*
X9648969Y-48820873D01*
X10268016Y-48820873D01*
X10887064Y-47820873D02*
X10982302Y-47820873D01*
X11077540Y-47868493D01*
X11125159Y-47916112D01*
X11172778Y-48011350D01*
X11220397Y-48201826D01*
X11220397Y-48439921D01*
X11172778Y-48630397D01*
X11125159Y-48725635D01*
X11077540Y-48773254D01*
X10982302Y-48820873D01*
X10887064Y-48820873D01*
X10791826Y-48773254D01*
X10744207Y-48725635D01*
X10696588Y-48630397D01*
X10648969Y-48439921D01*
X10648969Y-48201826D01*
X10696588Y-48011350D01*
X10744207Y-47916112D01*
X10791826Y-47868493D01*
X10887064Y-47820873D01*
X6094207Y-50720873D02*
X5522778Y-50720873D01*
X5808493Y-50720873D02*
X5808493Y-49720873D01*
X5713254Y-49863731D01*
X5618016Y-49958969D01*
X5522778Y-50006588D01*
X8998207Y-77156873D02*
X8998207Y-76156873D01*
X9236302Y-76156873D01*
X9379159Y-76204493D01*
X9474397Y-76299731D01*
X9522016Y-76394969D01*
X9569635Y-76585445D01*
X9569635Y-76728302D01*
X9522016Y-76918778D01*
X9474397Y-77014016D01*
X9379159Y-77109254D01*
X9236302Y-77156873D01*
X8998207Y-77156873D01*
X9950588Y-76252112D02*
X9998207Y-76204493D01*
X10093445Y-76156873D01*
X10331540Y-76156873D01*
X10426778Y-76204493D01*
X10474397Y-76252112D01*
X10522016Y-76347350D01*
X10522016Y-76442588D01*
X10474397Y-76585445D01*
X9902969Y-77156873D01*
X10522016Y-77156873D01*
X11474397Y-77156873D02*
X10902969Y-77156873D01*
X11188683Y-77156873D02*
X11188683Y-76156873D01*
X11093445Y-76299731D01*
X10998207Y-76394969D01*
X10902969Y-76442588D01*
X14648207Y-75256873D02*
X14076778Y-75256873D01*
X14362493Y-75256873D02*
X14362493Y-74256873D01*
X14267254Y-74399731D01*
X14172016Y-74494969D01*
X14076778Y-74542588D01*
X9252207Y-91746873D02*
X9252207Y-90746873D01*
X9490302Y-90746873D01*
X9633159Y-90794493D01*
X9728397Y-90889731D01*
X9776016Y-90984969D01*
X9823635Y-91175445D01*
X9823635Y-91318302D01*
X9776016Y-91508778D01*
X9728397Y-91604016D01*
X9633159Y-91699254D01*
X9490302Y-91746873D01*
X9252207Y-91746873D01*
X10204588Y-90842112D02*
X10252207Y-90794493D01*
X10347445Y-90746873D01*
X10585540Y-90746873D01*
X10680778Y-90794493D01*
X10728397Y-90842112D01*
X10776016Y-90937350D01*
X10776016Y-91032588D01*
X10728397Y-91175445D01*
X10156969Y-91746873D01*
X10776016Y-91746873D01*
X11156969Y-90842112D02*
X11204588Y-90794493D01*
X11299826Y-90746873D01*
X11537921Y-90746873D01*
X11633159Y-90794493D01*
X11680778Y-90842112D01*
X11728397Y-90937350D01*
X11728397Y-91032588D01*
X11680778Y-91175445D01*
X11109350Y-91746873D01*
X11728397Y-91746873D01*
X6602207Y-93646873D02*
X6030778Y-93646873D01*
X6316493Y-93646873D02*
X6316493Y-92646873D01*
X6221254Y-92789731D01*
X6126016Y-92884969D01*
X6030778Y-92932588D01*
X8998207Y-120082873D02*
X8998207Y-119082873D01*
X9236302Y-119082873D01*
X9379159Y-119130493D01*
X9474397Y-119225731D01*
X9522016Y-119320969D01*
X9569635Y-119511445D01*
X9569635Y-119654302D01*
X9522016Y-119844778D01*
X9474397Y-119940016D01*
X9379159Y-120035254D01*
X9236302Y-120082873D01*
X8998207Y-120082873D01*
X9950588Y-119178112D02*
X9998207Y-119130493D01*
X10093445Y-119082873D01*
X10331540Y-119082873D01*
X10426778Y-119130493D01*
X10474397Y-119178112D01*
X10522016Y-119273350D01*
X10522016Y-119368588D01*
X10474397Y-119511445D01*
X9902969Y-120082873D01*
X10522016Y-120082873D01*
X10855350Y-119082873D02*
X11474397Y-119082873D01*
X11141064Y-119463826D01*
X11283921Y-119463826D01*
X11379159Y-119511445D01*
X11426778Y-119559064D01*
X11474397Y-119654302D01*
X11474397Y-119892397D01*
X11426778Y-119987635D01*
X11379159Y-120035254D01*
X11283921Y-120082873D01*
X10998207Y-120082873D01*
X10902969Y-120035254D01*
X10855350Y-119987635D01*
X14648207Y-118182873D02*
X14076778Y-118182873D01*
X14362493Y-118182873D02*
X14362493Y-117182873D01*
X14267254Y-117325731D01*
X14172016Y-117420969D01*
X14076778Y-117468588D01*
X8998207Y-134418873D02*
X8998207Y-133418873D01*
X9236302Y-133418873D01*
X9379159Y-133466493D01*
X9474397Y-133561731D01*
X9522016Y-133656969D01*
X9569635Y-133847445D01*
X9569635Y-133990302D01*
X9522016Y-134180778D01*
X9474397Y-134276016D01*
X9379159Y-134371254D01*
X9236302Y-134418873D01*
X8998207Y-134418873D01*
X9950588Y-133514112D02*
X9998207Y-133466493D01*
X10093445Y-133418873D01*
X10331540Y-133418873D01*
X10426778Y-133466493D01*
X10474397Y-133514112D01*
X10522016Y-133609350D01*
X10522016Y-133704588D01*
X10474397Y-133847445D01*
X9902969Y-134418873D01*
X10522016Y-134418873D01*
X11379159Y-133752207D02*
X11379159Y-134418873D01*
X11141064Y-133371254D02*
X10902969Y-134085540D01*
X11522016Y-134085540D01*
X6348207Y-136318873D02*
X5776778Y-136318873D01*
X6062493Y-136318873D02*
X6062493Y-135318873D01*
X5967254Y-135461731D01*
X5872016Y-135556969D01*
X5776778Y-135604588D01*
X13062207Y-162754873D02*
X13062207Y-161754873D01*
X13300302Y-161754873D01*
X13443159Y-161802493D01*
X13538397Y-161897731D01*
X13586016Y-161992969D01*
X13633635Y-162183445D01*
X13633635Y-162326302D01*
X13586016Y-162516778D01*
X13538397Y-162612016D01*
X13443159Y-162707254D01*
X13300302Y-162754873D01*
X13062207Y-162754873D01*
X14014588Y-161850112D02*
X14062207Y-161802493D01*
X14157445Y-161754873D01*
X14395540Y-161754873D01*
X14490778Y-161802493D01*
X14538397Y-161850112D01*
X14586016Y-161945350D01*
X14586016Y-162040588D01*
X14538397Y-162183445D01*
X13966969Y-162754873D01*
X14586016Y-162754873D01*
X15490778Y-161754873D02*
X15014588Y-161754873D01*
X14966969Y-162231064D01*
X15014588Y-162183445D01*
X15109826Y-162135826D01*
X15347921Y-162135826D01*
X15443159Y-162183445D01*
X15490778Y-162231064D01*
X15538397Y-162326302D01*
X15538397Y-162564397D01*
X15490778Y-162659635D01*
X15443159Y-162707254D01*
X15347921Y-162754873D01*
X15109826Y-162754873D01*
X15014588Y-162707254D01*
X14966969Y-162659635D01*
X18712207Y-160854873D02*
X18140778Y-160854873D01*
X18426493Y-160854873D02*
X18426493Y-159854873D01*
X18331254Y-159997731D01*
X18236016Y-160092969D01*
X18140778Y-160140588D01*
X25086873Y-149348778D02*
X24086873Y-149348778D01*
X24086873Y-149110683D01*
X24134493Y-148967826D01*
X24229731Y-148872588D01*
X24324969Y-148824969D01*
X24515445Y-148777350D01*
X24658302Y-148777350D01*
X24848778Y-148824969D01*
X24944016Y-148872588D01*
X25039254Y-148967826D01*
X25086873Y-149110683D01*
X25086873Y-149348778D01*
X24182112Y-148396397D02*
X24134493Y-148348778D01*
X24086873Y-148253540D01*
X24086873Y-148015445D01*
X24134493Y-147920207D01*
X24182112Y-147872588D01*
X24277350Y-147824969D01*
X24372588Y-147824969D01*
X24515445Y-147872588D01*
X25086873Y-148444016D01*
X25086873Y-147824969D01*
X24086873Y-146967826D02*
X24086873Y-147158302D01*
X24134493Y-147253540D01*
X24182112Y-147301159D01*
X24324969Y-147396397D01*
X24515445Y-147444016D01*
X24896397Y-147444016D01*
X24991635Y-147396397D01*
X25039254Y-147348778D01*
X25086873Y-147253540D01*
X25086873Y-147063064D01*
X25039254Y-146967826D01*
X24991635Y-146920207D01*
X24896397Y-146872588D01*
X24658302Y-146872588D01*
X24563064Y-146920207D01*
X24515445Y-146967826D01*
X24467826Y-147063064D01*
X24467826Y-147253540D01*
X24515445Y-147348778D01*
X24563064Y-147396397D01*
X24658302Y-147444016D01*
X23186873Y-143698778D02*
X23186873Y-144270207D01*
X23186873Y-143984493D02*
X22186873Y-143984493D01*
X22329731Y-144079731D01*
X22424969Y-144174969D01*
X22472588Y-144270207D01*
X25086873Y-128012778D02*
X24086873Y-128012778D01*
X24086873Y-127774683D01*
X24134493Y-127631826D01*
X24229731Y-127536588D01*
X24324969Y-127488969D01*
X24515445Y-127441350D01*
X24658302Y-127441350D01*
X24848778Y-127488969D01*
X24944016Y-127536588D01*
X25039254Y-127631826D01*
X25086873Y-127774683D01*
X25086873Y-128012778D01*
X24182112Y-127060397D02*
X24134493Y-127012778D01*
X24086873Y-126917540D01*
X24086873Y-126679445D01*
X24134493Y-126584207D01*
X24182112Y-126536588D01*
X24277350Y-126488969D01*
X24372588Y-126488969D01*
X24515445Y-126536588D01*
X25086873Y-127108016D01*
X25086873Y-126488969D01*
X24086873Y-126155635D02*
X24086873Y-125488969D01*
X25086873Y-125917540D01*
X23186873Y-122362778D02*
X23186873Y-122934207D01*
X23186873Y-122648493D02*
X22186873Y-122648493D01*
X22329731Y-122743731D01*
X22424969Y-122838969D01*
X22472588Y-122934207D01*
X25086873Y-106930778D02*
X24086873Y-106930778D01*
X24086873Y-106692683D01*
X24134493Y-106549826D01*
X24229731Y-106454588D01*
X24324969Y-106406969D01*
X24515445Y-106359350D01*
X24658302Y-106359350D01*
X24848778Y-106406969D01*
X24944016Y-106454588D01*
X25039254Y-106549826D01*
X25086873Y-106692683D01*
X25086873Y-106930778D01*
X24182112Y-105978397D02*
X24134493Y-105930778D01*
X24086873Y-105835540D01*
X24086873Y-105597445D01*
X24134493Y-105502207D01*
X24182112Y-105454588D01*
X24277350Y-105406969D01*
X24372588Y-105406969D01*
X24515445Y-105454588D01*
X25086873Y-106026016D01*
X25086873Y-105406969D01*
X24515445Y-104835540D02*
X24467826Y-104930778D01*
X24420207Y-104978397D01*
X24324969Y-105026016D01*
X24277350Y-105026016D01*
X24182112Y-104978397D01*
X24134493Y-104930778D01*
X24086873Y-104835540D01*
X24086873Y-104645064D01*
X24134493Y-104549826D01*
X24182112Y-104502207D01*
X24277350Y-104454588D01*
X24324969Y-104454588D01*
X24420207Y-104502207D01*
X24467826Y-104549826D01*
X24515445Y-104645064D01*
X24515445Y-104835540D01*
X24563064Y-104930778D01*
X24610683Y-104978397D01*
X24705921Y-105026016D01*
X24896397Y-105026016D01*
X24991635Y-104978397D01*
X25039254Y-104930778D01*
X25086873Y-104835540D01*
X25086873Y-104645064D01*
X25039254Y-104549826D01*
X24991635Y-104502207D01*
X24896397Y-104454588D01*
X24705921Y-104454588D01*
X24610683Y-104502207D01*
X24563064Y-104549826D01*
X24515445Y-104645064D01*
X23186873Y-101280778D02*
X23186873Y-101852207D01*
X23186873Y-101566493D02*
X22186873Y-101566493D01*
X22329731Y-101661731D01*
X22424969Y-101756969D01*
X22472588Y-101852207D01*
X25086873Y-85340778D02*
X24086873Y-85340778D01*
X24086873Y-85102683D01*
X24134493Y-84959826D01*
X24229731Y-84864588D01*
X24324969Y-84816969D01*
X24515445Y-84769350D01*
X24658302Y-84769350D01*
X24848778Y-84816969D01*
X24944016Y-84864588D01*
X25039254Y-84959826D01*
X25086873Y-85102683D01*
X25086873Y-85340778D01*
X24182112Y-84388397D02*
X24134493Y-84340778D01*
X24086873Y-84245540D01*
X24086873Y-84007445D01*
X24134493Y-83912207D01*
X24182112Y-83864588D01*
X24277350Y-83816969D01*
X24372588Y-83816969D01*
X24515445Y-83864588D01*
X25086873Y-84436016D01*
X25086873Y-83816969D01*
X25086873Y-83340778D02*
X25086873Y-83150302D01*
X25039254Y-83055064D01*
X24991635Y-83007445D01*
X24848778Y-82912207D01*
X24658302Y-82864588D01*
X24277350Y-82864588D01*
X24182112Y-82912207D01*
X24134493Y-82959826D01*
X24086873Y-83055064D01*
X24086873Y-83245540D01*
X24134493Y-83340778D01*
X24182112Y-83388397D01*
X24277350Y-83436016D01*
X24515445Y-83436016D01*
X24610683Y-83388397D01*
X24658302Y-83340778D01*
X24705921Y-83245540D01*
X24705921Y-83055064D01*
X24658302Y-82959826D01*
X24610683Y-82912207D01*
X24515445Y-82864588D01*
X23186873Y-79690778D02*
X23186873Y-80262207D01*
X23186873Y-79976493D02*
X22186873Y-79976493D01*
X22329731Y-80071731D01*
X22424969Y-80166969D01*
X22472588Y-80262207D01*
X25086873Y-64004778D02*
X24086873Y-64004778D01*
X24086873Y-63766683D01*
X24134493Y-63623826D01*
X24229731Y-63528588D01*
X24324969Y-63480969D01*
X24515445Y-63433350D01*
X24658302Y-63433350D01*
X24848778Y-63480969D01*
X24944016Y-63528588D01*
X25039254Y-63623826D01*
X25086873Y-63766683D01*
X25086873Y-64004778D01*
X24086873Y-63100016D02*
X24086873Y-62480969D01*
X24467826Y-62814302D01*
X24467826Y-62671445D01*
X24515445Y-62576207D01*
X24563064Y-62528588D01*
X24658302Y-62480969D01*
X24896397Y-62480969D01*
X24991635Y-62528588D01*
X25039254Y-62576207D01*
X25086873Y-62671445D01*
X25086873Y-62957159D01*
X25039254Y-63052397D01*
X24991635Y-63100016D01*
X24086873Y-61861921D02*
X24086873Y-61766683D01*
X24134493Y-61671445D01*
X24182112Y-61623826D01*
X24277350Y-61576207D01*
X24467826Y-61528588D01*
X24705921Y-61528588D01*
X24896397Y-61576207D01*
X24991635Y-61623826D01*
X25039254Y-61671445D01*
X25086873Y-61766683D01*
X25086873Y-61861921D01*
X25039254Y-61957159D01*
X24991635Y-62004778D01*
X24896397Y-62052397D01*
X24705921Y-62100016D01*
X24467826Y-62100016D01*
X24277350Y-62052397D01*
X24182112Y-62004778D01*
X24134493Y-61957159D01*
X24086873Y-61861921D01*
X23186873Y-58354778D02*
X23186873Y-58926207D01*
X23186873Y-58640493D02*
X22186873Y-58640493D01*
X22329731Y-58735731D01*
X22424969Y-58830969D01*
X22472588Y-58926207D01*
X30588207Y-55820873D02*
X30588207Y-54820873D01*
X30826302Y-54820873D01*
X30969159Y-54868493D01*
X31064397Y-54963731D01*
X31112016Y-55058969D01*
X31159635Y-55249445D01*
X31159635Y-55392302D01*
X31112016Y-55582778D01*
X31064397Y-55678016D01*
X30969159Y-55773254D01*
X30826302Y-55820873D01*
X30588207Y-55820873D01*
X31492969Y-54820873D02*
X32112016Y-54820873D01*
X31778683Y-55201826D01*
X31921540Y-55201826D01*
X32016778Y-55249445D01*
X32064397Y-55297064D01*
X32112016Y-55392302D01*
X32112016Y-55630397D01*
X32064397Y-55725635D01*
X32016778Y-55773254D01*
X31921540Y-55820873D01*
X31635826Y-55820873D01*
X31540588Y-55773254D01*
X31492969Y-55725635D01*
X33064397Y-55820873D02*
X32492969Y-55820873D01*
X32778683Y-55820873D02*
X32778683Y-54820873D01*
X32683445Y-54963731D01*
X32588207Y-55058969D01*
X32492969Y-55106588D01*
X36238207Y-53920873D02*
X35666778Y-53920873D01*
X35952493Y-53920873D02*
X35952493Y-52920873D01*
X35857254Y-53063731D01*
X35762016Y-53158969D01*
X35666778Y-53206588D01*
X30588207Y-70410873D02*
X30588207Y-69410873D01*
X30826302Y-69410873D01*
X30969159Y-69458493D01*
X31064397Y-69553731D01*
X31112016Y-69648969D01*
X31159635Y-69839445D01*
X31159635Y-69982302D01*
X31112016Y-70172778D01*
X31064397Y-70268016D01*
X30969159Y-70363254D01*
X30826302Y-70410873D01*
X30588207Y-70410873D01*
X31492969Y-69410873D02*
X32112016Y-69410873D01*
X31778683Y-69791826D01*
X31921540Y-69791826D01*
X32016778Y-69839445D01*
X32064397Y-69887064D01*
X32112016Y-69982302D01*
X32112016Y-70220397D01*
X32064397Y-70315635D01*
X32016778Y-70363254D01*
X31921540Y-70410873D01*
X31635826Y-70410873D01*
X31540588Y-70363254D01*
X31492969Y-70315635D01*
X32492969Y-69506112D02*
X32540588Y-69458493D01*
X32635826Y-69410873D01*
X32873921Y-69410873D01*
X32969159Y-69458493D01*
X33016778Y-69506112D01*
X33064397Y-69601350D01*
X33064397Y-69696588D01*
X33016778Y-69839445D01*
X32445350Y-70410873D01*
X33064397Y-70410873D01*
X27938207Y-72310873D02*
X27366778Y-72310873D01*
X27652493Y-72310873D02*
X27652493Y-71310873D01*
X27557254Y-71453731D01*
X27462016Y-71548969D01*
X27366778Y-71596588D01*
X30588207Y-98746873D02*
X30588207Y-97746873D01*
X30826302Y-97746873D01*
X30969159Y-97794493D01*
X31064397Y-97889731D01*
X31112016Y-97984969D01*
X31159635Y-98175445D01*
X31159635Y-98318302D01*
X31112016Y-98508778D01*
X31064397Y-98604016D01*
X30969159Y-98699254D01*
X30826302Y-98746873D01*
X30588207Y-98746873D01*
X31492969Y-97746873D02*
X32112016Y-97746873D01*
X31778683Y-98127826D01*
X31921540Y-98127826D01*
X32016778Y-98175445D01*
X32064397Y-98223064D01*
X32112016Y-98318302D01*
X32112016Y-98556397D01*
X32064397Y-98651635D01*
X32016778Y-98699254D01*
X31921540Y-98746873D01*
X31635826Y-98746873D01*
X31540588Y-98699254D01*
X31492969Y-98651635D01*
X32445350Y-97746873D02*
X33064397Y-97746873D01*
X32731064Y-98127826D01*
X32873921Y-98127826D01*
X32969159Y-98175445D01*
X33016778Y-98223064D01*
X33064397Y-98318302D01*
X33064397Y-98556397D01*
X33016778Y-98651635D01*
X32969159Y-98699254D01*
X32873921Y-98746873D01*
X32588207Y-98746873D01*
X32492969Y-98699254D01*
X32445350Y-98651635D01*
X36238207Y-96846873D02*
X35666778Y-96846873D01*
X35952493Y-96846873D02*
X35952493Y-95846873D01*
X35857254Y-95989731D01*
X35762016Y-96084969D01*
X35666778Y-96132588D01*
M02*
