M48
; DRILL file {KiCad (5.1.6)-1} date 06/08/20 17:19:36
; FORMAT={-:-/ absolute / inch / decimal}
; #@! TF.CreationDate,2020-06-08T17:19:36+12:00
; #@! TF.GenerationSoftware,Kicad,Pcbnew,(5.1.6)-1
; #@! TF.FileFunction,NonPlated,1,2,NPTH
FMAT,2
INCH
T1C0.0670
T2C0.1181
T3C0.1200
T4C0.1570
%
G90
G05
T1
X2.8021Y-3.3221
X3.2021Y-3.3221
X1.0521Y-3.3121
X1.4521Y-3.3121
X0.2021Y-3.3121
X0.6021Y-3.3121
X2.8021Y-2.4721
X3.2021Y-2.4721
X0.5821Y-6.6721
X0.9821Y-6.6721
X0.2021Y-4.9921
X0.6021Y-4.9921
X0.2021Y-2.4721
X0.6021Y-2.4721
X1.0521Y-2.4621
X1.4521Y-2.4621
X1.9121Y-3.3121
X2.3121Y-3.3121
X1.9121Y-5.0021
X2.3121Y-5.0021
X0.2021Y-4.1521
X0.6021Y-4.1521
X1.0621Y-5.8421
X1.4621Y-5.8421
X1.0521Y-4.9921
X1.4521Y-4.9921
X0.2021Y-5.8321
X0.6021Y-5.8321
X1.9121Y-6.6821
X2.3121Y-6.6821
X1.9121Y-5.8321
X2.3121Y-5.8321
X1.9121Y-4.1621
X2.3121Y-4.1621
X3.0021Y-6.1021
X3.0021Y-6.5021
X1.0521Y-4.1621
X1.4521Y-4.1621
X1.9121Y-2.4621
X2.3121Y-2.4621
X3.0035Y-4.4039
X3.0035Y-4.8039
T2
X1.9621Y-5.7321
X2.2121Y-5.6321
X1.9621Y-4.0621
X2.2121Y-3.9621
X3.1021Y-6.1521
X3.2021Y-6.4021
X1.1021Y-4.0621
X1.3521Y-3.9621
X1.9621Y-2.3621
X2.2121Y-2.2621
X3.1035Y-4.4539
X3.2035Y-4.7039
X2.8521Y-3.2221
X3.1021Y-3.1221
X1.1021Y-3.2121
X1.3521Y-3.1121
X0.2521Y-3.2121
X0.5021Y-3.1121
X2.8521Y-2.3721
X3.1021Y-2.2721
X0.6321Y-6.5721
X0.8821Y-6.4721
X0.2521Y-4.8921
X0.5021Y-4.7921
X0.2521Y-2.3721
X0.5021Y-2.2721
X1.1021Y-2.3621
X1.3521Y-2.2621
X1.9621Y-3.2121
X2.2121Y-3.1121
X1.9621Y-4.9021
X2.2121Y-4.8021
X0.2521Y-4.0521
X0.5021Y-3.9521
X1.1121Y-5.7421
X1.3621Y-5.6421
X1.1021Y-4.8921
X1.3521Y-4.7921
X0.2521Y-5.7321
X0.5021Y-5.6321
X1.9621Y-6.5821
X2.2121Y-6.4821
T3
X3.2771Y-4.1436
X3.2771Y-5.0806
X0.3136Y-6.3971
X1.2506Y-6.3971
X3.2771Y-5.8336
X3.2771Y-6.7706
T4
X2.6771Y-5.8336
X2.6771Y-6.7706
X1.2521Y-4.1621
X2.1121Y-2.4621
X3.0035Y-4.6039
X3.0021Y-3.3221
X1.2521Y-3.3121
X0.4021Y-3.3121
X3.0021Y-2.4721
X0.7821Y-6.6721
X0.4021Y-4.9921
X0.4021Y-2.4721
X1.2521Y-2.4621
X2.1121Y-3.3121
X2.1121Y-5.0021
X0.4021Y-4.1521
X2.6771Y-4.1436
X2.6771Y-5.0806
X1.2621Y-5.8421
X1.2521Y-4.9921
X0.3136Y-6.9971
X1.2506Y-6.9971
X0.4021Y-5.8321
X2.1121Y-6.6821
X2.1121Y-5.8321
X2.1121Y-4.1621
X3.0021Y-6.3021
T0
M30
