G04 #@! TF.GenerationSoftware,KiCad,Pcbnew,(5.1.6)-1*
G04 #@! TF.CreationDate,2020-06-08T17:18:55+12:00*
G04 #@! TF.ProjectId,discipad-pcb,64697363-6970-4616-942d-7063622e6b69,rev?*
G04 #@! TF.SameCoordinates,Original*
G04 #@! TF.FileFunction,Paste,Top*
G04 #@! TF.FilePolarity,Positive*
%FSLAX46Y46*%
G04 Gerber Fmt 4.6, Leading zero omitted, Abs format (unit mm)*
G04 Created by KiCad (PCBNEW (5.1.6)-1) date 2020-06-08 17:18:55*
%MOMM*%
%LPD*%
G01*
G04 APERTURE LIST*
%ADD10R,0.650000X0.400000*%
%ADD11R,1.060000X0.650000*%
%ADD12R,1.200000X1.200000*%
%ADD13R,1.500000X1.000000*%
%ADD14R,1.000000X1.500000*%
G04 APERTURE END LIST*
D10*
X68820493Y-6768493D03*
X68820493Y-8068493D03*
X66920493Y-7418493D03*
X68820493Y-7418493D03*
X66920493Y-8068493D03*
X66920493Y-6768493D03*
D11*
X56864493Y-3288493D03*
X56864493Y-1388493D03*
X59064493Y-1388493D03*
X59064493Y-2338493D03*
X59064493Y-3288493D03*
D12*
X67413493Y-17578493D03*
X64263493Y-17578493D03*
X71934493Y-11787493D03*
X71934493Y-8637493D03*
D13*
X78702493Y-140082493D03*
X78702493Y-136882493D03*
X73802493Y-140082493D03*
X73802493Y-136882493D03*
X78448493Y-97410493D03*
X78448493Y-94210493D03*
X73548493Y-97410493D03*
X73548493Y-94210493D03*
X73802493Y-71858493D03*
X73802493Y-75058493D03*
X78702493Y-71858493D03*
X78702493Y-75058493D03*
X78448493Y-53468493D03*
X78448493Y-50268493D03*
X73548493Y-53468493D03*
X73548493Y-50268493D03*
D14*
X63222493Y-64986493D03*
X66422493Y-64986493D03*
X63222493Y-60086493D03*
X66422493Y-60086493D03*
X66422493Y-81676493D03*
X63222493Y-81676493D03*
X66422493Y-86576493D03*
X63222493Y-86576493D03*
X63222493Y-101816493D03*
X66422493Y-101816493D03*
X63222493Y-96916493D03*
X66422493Y-96916493D03*
X66422493Y-120538493D03*
X63222493Y-120538493D03*
X66422493Y-125438493D03*
X63222493Y-125438493D03*
X63222493Y-144488493D03*
X66422493Y-144488493D03*
X63222493Y-139588493D03*
X66422493Y-139588493D03*
X66422493Y-162702493D03*
X63222493Y-162702493D03*
X66422493Y-167602493D03*
X63222493Y-167602493D03*
D13*
X51196493Y-157202493D03*
X51196493Y-160402493D03*
X56096493Y-157202493D03*
X56096493Y-160402493D03*
X56096493Y-139066493D03*
X56096493Y-135866493D03*
X51196493Y-139066493D03*
X51196493Y-135866493D03*
X51450493Y-114530493D03*
X51450493Y-117730493D03*
X56350493Y-114530493D03*
X56350493Y-117730493D03*
X56096493Y-96394493D03*
X56096493Y-93194493D03*
X51196493Y-96394493D03*
X51196493Y-93194493D03*
X51196493Y-71858493D03*
X51196493Y-75058493D03*
X56096493Y-71858493D03*
X56096493Y-75058493D03*
X56096493Y-53468493D03*
X56096493Y-50268493D03*
X51196493Y-53468493D03*
X51196493Y-50268493D03*
D14*
X41124493Y-65240493D03*
X44324493Y-65240493D03*
X41124493Y-60340493D03*
X44324493Y-60340493D03*
X44324493Y-80914493D03*
X41124493Y-80914493D03*
X44324493Y-85814493D03*
X41124493Y-85814493D03*
X41124493Y-107404493D03*
X44324493Y-107404493D03*
X41124493Y-102504493D03*
X44324493Y-102504493D03*
X44324493Y-123840493D03*
X41124493Y-123840493D03*
X44324493Y-128740493D03*
X41124493Y-128740493D03*
X41124493Y-150584493D03*
X44324493Y-150584493D03*
X41124493Y-145684493D03*
X44324493Y-145684493D03*
X43054493Y-167274493D03*
X39854493Y-167274493D03*
X43054493Y-172174493D03*
X39854493Y-172174493D03*
D13*
X34178493Y-157202493D03*
X34178493Y-160402493D03*
X39078493Y-157202493D03*
X39078493Y-160402493D03*
X34252493Y-139066493D03*
X34252493Y-135866493D03*
X29352493Y-139066493D03*
X29352493Y-135866493D03*
X29352493Y-114530493D03*
X29352493Y-117730493D03*
X34252493Y-114530493D03*
X34252493Y-117730493D03*
X7508493Y-50268493D03*
X7508493Y-53468493D03*
X12408493Y-50268493D03*
X12408493Y-53468493D03*
X7762493Y-71604493D03*
X7762493Y-74804493D03*
X12662493Y-71604493D03*
X12662493Y-74804493D03*
X8016493Y-93194493D03*
X8016493Y-96394493D03*
X12916493Y-93194493D03*
X12916493Y-96394493D03*
X7762493Y-114530493D03*
X7762493Y-117730493D03*
X12662493Y-114530493D03*
X12662493Y-117730493D03*
X7762493Y-135866493D03*
X7762493Y-139066493D03*
X12662493Y-135866493D03*
X12662493Y-139066493D03*
X11826493Y-157202493D03*
X11826493Y-160402493D03*
X16726493Y-157202493D03*
X16726493Y-160402493D03*
D14*
X19534493Y-150584493D03*
X22734493Y-150584493D03*
X19534493Y-145684493D03*
X22734493Y-145684493D03*
X22734493Y-124348493D03*
X19534493Y-124348493D03*
X22734493Y-129248493D03*
X19534493Y-129248493D03*
X19534493Y-108166493D03*
X22734493Y-108166493D03*
X19534493Y-103266493D03*
X22734493Y-103266493D03*
X22734493Y-81676493D03*
X19534493Y-81676493D03*
X22734493Y-86576493D03*
X19534493Y-86576493D03*
X19534493Y-65240493D03*
X22734493Y-65240493D03*
X19534493Y-60340493D03*
X22734493Y-60340493D03*
D13*
X34252493Y-53468493D03*
X34252493Y-50268493D03*
X29352493Y-53468493D03*
X29352493Y-50268493D03*
X34252493Y-75058493D03*
X34252493Y-71858493D03*
X29352493Y-75058493D03*
X29352493Y-71858493D03*
X34252493Y-96394493D03*
X34252493Y-93194493D03*
X29352493Y-96394493D03*
X29352493Y-93194493D03*
M02*
